<?xml version="1.0" encoding="UTF-8" standalone="no"?>
<!-- Created with Inkscape (http://www.inkscape.org/) -->

<svg
   xmlns:dc="http://purl.org/dc/elements/1.1/"
   xmlns:cc="http://creativecommons.org/ns#"
   xmlns:rdf="http://www.w3.org/1999/02/22-rdf-syntax-ns#"
   xmlns:svg="http://www.w3.org/2000/svg"
   xmlns="http://www.w3.org/2000/svg"
   xmlns:sodipodi="http://sodipodi.sourceforge.net/DTD/sodipodi-0.dtd"
   xmlns:inkscape="http://www.inkscape.org/namespaces/inkscape"
   id="svg2985"
   version="1.1"
   inkscape:version="0.48.2 r9819"
   width="90"
   height="90"
   sodipodi:docname="Custom Poke Ball.svg">
  <metadata
     id="metadata2991">
    <rdf:RDF>
      <cc:Work
         rdf:about="">
        <dc:format>image/svg+xml</dc:format>
        <dc:type
           rdf:resource="http://purl.org/dc/dcmitype/StillImage" />
        <dc:title></dc:title>
      </cc:Work>
    </rdf:RDF>
  </metadata>
  <defs
     id="defs2989" />
  <sodipodi:namedview
     pagecolor="#ffffff"
     bordercolor="#666666"
     borderopacity="1"
     objecttolerance="10"
     gridtolerance="10"
     guidetolerance="10"
     inkscape:pageopacity="0"
     inkscape:pageshadow="2"
     inkscape:window-width="1366"
     inkscape:window-height="706"
     id="namedview2987"
     showgrid="false"
     inkscape:zoom="5.7444444"
     inkscape:cx="45"
     inkscape:cy="45"
     inkscape:window-x="-8"
     inkscape:window-y="-8"
     inkscape:window-maximized="1"
     inkscape:current-layer="svg2985" />
  <path
     style="opacity:1;fill:#231815;fill-opacity:1;fill-rule:nonzero;stroke:none"
     d="M 45,0 C 20.147186,0 0,20.147186 0,45 0,69.852814 20.147186,90 45,90 69.852814,90 90,69.852814 90,45 90,20.147186 69.852814,0 45,0 z"
     id="path3129" />
  <path
     style="opacity:1;fill:#d04038;fill-opacity:1;fill-rule:nonzero;stroke:none"
     d="M 45,3.125 C 21.877749,3.125 3.125,21.877749 3.125,45 c 0,1.790476 0.1255375,3.549853 0.34375,5.28125 2.9888754,1.67664 6.0828009,3.187576 8.875,4.125 2.792199,0.937425 4.71875,2.863261 4.71875,5.21875 0,0.373218 -0.06232,0.72116 -0.15625,1.0625 0.208623,0.05999 0.415089,0.128854 0.625,0.1875 0.916308,-6.848992 6.772774,-12.125 13.875,-12.125 7.739464,0 14.03125,6.260535 14.03125,14 0,0.528311 -0.03666,1.049221 -0.09375,1.5625 0.459519,-0.0078 0.918361,-0.01724 1.375,-0.03125 0.306108,-2.091126 2.476143,-3.716105 9.84375,-4.09375 8.013713,-0.410763 19.656878,-4.122025 29.96875,-9.90625 C 86.749462,48.549853 86.875,46.790476 86.875,45 86.875,21.877749 68.122251,3.125 45,3.125 z"
     id="path6261" />
  <path
     style="opacity:1;fill:#d04038;fill-opacity:1;fill-rule:nonzero;stroke:none"
     d="M 6.34375,61.15625 C 12.664942,76.26731 27.598952,86.875 45,86.875 c 17.401048,0 32.335058,-10.60769 38.65625,-25.71875 -10.080977,4.976073 -21.241509,8.053789 -28.25,7.90625 -6.53529,-0.137576 -8.454046,-1.743421 -8.6875,-3.78125 -0.508311,0.01537 -1.019442,0.02353 -1.53125,0.03125 -1.212542,6.512251 -6.921736,11.46875 -13.78125,11.46875 -7.739465,0 -14,-6.291786 -14,-14.03125 0,-0.294337 0.0134,-0.585204 0.03125,-0.875 -0.313373,-0.08684 -0.626909,-0.160196 -0.9375,-0.25 -0.78087,1.273949 -2.360564,2.023544 -4.53125,1.5 -3.1573617,-0.761519 -4.3855516,-1.356601 -5.625,-1.96875 z"
     id="path5673" />
  <path
     style="fill:#f86860;fill-opacity:1;fill-rule:nonzero;stroke:none"
     d="M 31.53125 53.375 C 26.314701 53.375 22.09375 57.595951 22.09375 62.8125 C 22.09375 68.029049 26.314701 72.25 31.53125 72.25 C 36.747799 72.25 41 68.029049 41 62.8125 C 41 57.595951 36.747799 53.375 31.53125 53.375 z M 31.53125 56.53125 C 34.997607 56.53125 37.8125 59.346143 37.8125 62.8125 C 37.8125 66.278857 34.997607 69.09375 31.53125 69.09375 C 28.064893 69.09375 25.28125 66.278857 25.28125 62.8125 C 25.28125 59.346143 28.064893 56.53125 31.53125 56.53125 z M 31.53125 58.5625 C 29.177811 58.5625 27.28125 60.459061 27.28125 62.8125 C 27.28125 65.165939 29.177811 67.0625 31.53125 67.0625 C 33.884689 67.0625 35.8125 65.165939 35.8125 62.8125 C 35.8125 60.459061 33.884689 58.5625 31.53125 58.5625 z "
     id="path3002" />
  <path
     style="fill:#f86860;fill-opacity:1;fill-rule:nonzero;stroke:none"
     d="M 45,3.125 C 21.877749,3.125 3.125,21.877749 3.125,45 c 0,1.790476 0.1255375,3.549853 0.34375,5.28125 2.9888754,1.67664 6.0828009,3.187576 8.875,4.125 2.792199,0.937425 4.71875,2.863261 4.71875,5.21875 0,0.36951 -0.06369,0.724129 -0.15625,1.0625 0.208623,0.05999 0.415089,0.128854 0.625,0.1875 0.916308,-6.848992 6.772774,-12.125 13.875,-12.125 0.241858,0 0.478906,0.0079 0.71875,0.03125 7.218321,0.365072 12.993234,6.16907 13.28125,13.40625 0.04026,0.233242 0.06972,0.438242 0.03125,0.5625 0,0.530571 -0.03507,1.047512 -0.09375,1.5625 0.459519,-0.0078 0.918361,-0.01724 1.375,-0.03125 0.305839,-2.090511 2.476143,-3.716105 9.84375,-4.09375 1.001714,-0.05134 2.050858,-0.160535 3.15625,-0.3125 0.160316,-0.02204 0.337737,-0.0384 0.5,-0.0625 0.103569,-0.01546 0.208154,-0.0462 0.3125,-0.0625 0.540098,-0.08435 1.065368,-0.174779 1.625,-0.28125 0.332917,-0.06334 0.692035,-0.116501 1.03125,-0.1875 0.337583,-0.07032 0.687879,-0.140957 1.03125,-0.21875 0.257424,-0.05862 0.520801,-0.124748 0.78125,-0.1875 0.436674,-0.104825 0.868006,-0.227449 1.3125,-0.34375 0.536392,-0.140845 1.07872,-0.280409 1.625,-0.4375 0.176877,-0.05072 0.353434,-0.103837 0.53125,-0.15625 0.09313,-0.02753 0.187873,-0.06576 0.28125,-0.09375 0.639937,-0.191345 1.287376,-0.381117 1.9375,-0.59375 0.650685,-0.213044 1.310526,-0.454038 1.96875,-0.6875 0.09302,-0.03299 0.188099,-0.06035 0.28125,-0.09375 C 77.580376,50.065409 80.25,42.553502 80.25,34.5 c 0,-6.591678 -1.77232,-12.847417 -4.96875,-18.40625 -0.01017,-0.01065 -0.02107,-0.02061 -0.03125,-0.03125 -0.212904,-0.222484 -0.438542,-0.438483 -0.65625,-0.65625 -0.270627,-0.270627 -0.534584,-0.549326 -0.8125,-0.8125 -0.07002,-0.06635 -0.148273,-0.121632 -0.21875,-0.1875 -0.394996,-0.369166 -0.778461,-0.739898 -1.1875,-1.09375 -0.03919,-0.03389 -0.08569,-0.06 -0.125,-0.09375 -0.432905,-0.371702 -0.86454,-0.739672 -1.3125,-1.09375 -0.09369,-0.07404 -0.186912,-0.145495 -0.28125,-0.21875 -0.02948,-0.0229 -0.06421,-0.03968 -0.09375,-0.0625 C 70.04583,11.444627 69.504146,11.062635 68.96875,10.6875 68.414589,10.299217 67.854596,9.9241944 67.28125,9.5625 67.269012,9.5547886 67.262247,9.538949 67.25,9.53125 66.723051,9.1995884 66.198646,8.8709854 65.65625,8.5625 65.59534,8.5279066 65.52985,8.5030463 65.46875,8.46875 64.863678,8.1286233 64.248178,7.8104511 63.625,7.5 63.001822,7.1895489 62.359085,6.8735617 61.71875,6.59375 61.078415,6.3139383 60.437792,6.0607086 59.78125,5.8125 59.124708,5.5642914 58.45305,5.3406416 57.78125,5.125 57.10945,4.9093584 56.436109,4.7133608 55.75,4.53125 55.063891,4.3491392 54.386968,4.1788662 53.6875,4.03125 53.091062,3.9053774 52.480512,3.7876425 51.875,3.6875 51.770077,3.6701489 51.667684,3.6415691 51.5625,3.625 51.294774,3.5828192 51.019389,3.5683218 50.75,3.53125 48.868464,3.2724734 46.952511,3.125 45,3.125 z"
     id="path6268" />
  <path
     style="fill:#f86860;fill-opacity:1;fill-rule:nonzero;stroke:none"
     d="m 6.34375,61.15625 c 0.2555436,0.610887 0.5292106,1.216736 0.8125,1.8125 0.040062,0.08443 0.084395,0.165876 0.125,0.25 0.260669,0.538802 0.5297011,1.068138 0.8125,1.59375 0.050871,0.09471 0.1046771,0.186978 0.15625,0.28125 0.2777266,0.50678 0.5459224,1.006255 0.84375,1.5 0.2285644,0.380275 0.4786037,0.752693 0.71875,1.125 0.073,0.112716 0.1446979,0.231784 0.21875,0.34375 0.244405,0.370988 0.494244,0.731137 0.75,1.09375 0.03885,0.05497 0.08589,0.101474 0.125,0.15625 0.253811,0.356203 0.485417,0.714742 0.75,1.0625 0.3061,0.401523 0.617391,0.797567 0.9375,1.1875 0.07912,0.09657 0.170027,0.185408 0.25,0.28125 0.242664,0.290233 0.499693,0.560272 0.75,0.84375 0.209797,0.23805 0.409881,0.485606 0.625,0.71875 0.125661,0.135956 0.247567,0.271974 0.375,0.40625 0.34991,0.369271 0.699318,0.737589 1.0625,1.09375 4.521492,1.149866 9.319806,1.794426 14.28125,1.8125 C 29.009049,76.622078 28.115105,76.426095 27.25,76.15625 26.815842,76.020827 26.383573,75.863082 25.96875,75.6875 25.554166,75.512019 25.143014,75.338287 24.75,75.125 c -0.04484,-0.02426 -0.08046,-0.06901 -0.125,-0.09375 -0.36518,-0.203509 -0.718337,-0.421842 -1.0625,-0.65625 -0.236591,-0.160337 -0.461528,-0.325852 -0.6875,-0.5 -0.116863,-0.0903 -0.229855,-0.187374 -0.34375,-0.28125 -0.02268,-0.01866 -0.03993,-0.0437 -0.0625,-0.0625 -0.336548,-0.280937 -0.659983,-0.564126 -0.96875,-0.875 -0.319601,-0.321782 -0.61878,-0.648562 -0.90625,-1 C 20.355555,71.365052 20.120875,71.060014 19.90625,70.75 19.827981,70.637325 19.762522,70.521296 19.6875,70.40625 19.546189,70.189168 19.41069,69.975153 19.28125,69.75 19.166786,69.551289 19.042369,69.36094 18.9375,69.15625 c -0.03577,-0.07009 -0.05912,-0.147986 -0.09375,-0.21875 -0.165647,-0.337353 -0.33002,-0.679341 -0.46875,-1.03125 -0.0034,-0.0087 0.0034,-0.02252 0,-0.03125 -0.153735,-0.392351 -0.287694,-0.810151 -0.40625,-1.21875 -0.105065,-0.363387 -0.205322,-0.718985 -0.28125,-1.09375 -0.0062,-0.03035 0.006,-0.06333 0,-0.09375 -0.03045,-0.155544 -0.06847,-0.311433 -0.09375,-0.46875 -0.04906,-0.303335 -0.09569,-0.596772 -0.125,-0.90625 -0.04187,-0.44203 -0.0625,-0.890936 -0.0625,-1.34375 0,-0.294337 0.0134,-0.585204 0.03125,-0.875 -0.313373,-0.08684 -0.626909,-0.160196 -0.9375,-0.25 -0.64182,1.041583 -1.809109,1.728935 -3.40625,1.65625 -0.355117,-0.01616 -0.73033,-0.06106 -1.125,-0.15625 C 10.390069,62.744241 9.2941487,62.414229 8.4375,62.09375 7.5808513,61.773271 6.9634742,61.462325 6.34375,61.15625 z"
     id="path6266" />
  <path
     style="fill:#f86860;fill-opacity:1;fill-rule:nonzero;stroke:none"
     d="m 46.71875,65.28125 c -0.508311,0.01537 -1.019442,0.02353 -1.53125,0.03125 -0.339575,1.798183 -1.016699,3.479307 -1.96875,4.96875 -0.06474,0.318436 -0.113006,0.519619 -0.21875,1.03125 -0.769772,3.724457 6.661216,0.255382 16.21875,-2.4375 -0.33618,0.03624 -0.675118,0.06762 -1,0.09375 -0.324885,0.02577 -0.655641,0.04701 -0.96875,0.0625 -0.642429,0.03229 -1.256615,0.04361 -1.84375,0.03125 -0.8899,-0.01873 -1.678967,-0.05476 -2.40625,-0.125 -0.706818,-0.06764 -1.339095,-0.1697 -1.90625,-0.28125 -0.01049,-0.0021 -0.02081,0.0021 -0.03125,0 -0.287045,-0.05701 -0.527631,-0.120106 -0.78125,-0.1875 -0.253807,-0.06707 -0.496623,-0.141946 -0.71875,-0.21875 -0.443843,-0.154309 -0.828828,-0.310395 -1.15625,-0.5 -1.134347,-0.653414 -1.5782,-1.522297 -1.6875,-2.46875 z"
     id="path5709" />
  <path
     style="fill:#f8a098;fill-opacity:1;fill-rule:nonzero;stroke:none"
     d="M 45 3.125 C 22.706785 3.125 4.497448 20.557961 3.21875 42.53125 C 8.9837896 44.400453 15.505587 45.4375 22.40625 45.4375 C 45.92835 45.4375 65 33.217216 65 18.125 C 65 13.831622 63.437336 9.7712449 60.6875 6.15625 C 55.844781 4.1989363 50.543125 3.125 45 3.125 z "
     id="path5704" />
  <path
     style="fill:#f8a098;fill-opacity:1;fill-rule:nonzero;stroke:none"
     d="M 31.53125 53.375 C 26.314701 53.375 22.09375 57.595951 22.09375 62.8125 C 22.09375 65.627584 23.329703 68.146661 25.28125 69.875 C 23.741319 68.195886 22.78125 65.960748 22.78125 63.5 C 22.78125 58.283451 27.002201 54.0625 32.21875 54.0625 C 34.699867 54.0625 36.965196 55.031068 38.65625 56.59375 C 36.918706 54.620245 34.364503 53.375 31.53125 53.375 z "
     id="path5656" />
  <path
     style="fill:#f4a7a4;fill-opacity:1;fill-rule:nonzero;stroke:none"
     d="M 31.53125 58.5625 C 29.177811 58.5625 27.28125 60.459061 27.28125 62.8125 C 27.28125 64.164276 27.927656 65.347504 28.90625 66.125 C 28.493641 65.469641 28.25 64.678115 28.25 63.84375 C 28.25 61.490311 30.146561 59.59375 32.5 59.59375 C 33.513486 59.59375 34.420599 59.974039 35.15625 60.5625 C 34.396482 59.365998 33.052855 58.5625 31.53125 58.5625 z "
     id="path5660" />
  <path
     style="fill:#ffffff;fill-opacity:1;fill-rule:nonzero;stroke:none"
     d="M 31.15625 13.4375 C 25.241733 13.4375 20.101082 18.241733 19.6875 24.15625 C 19.273918 30.070767 23.741733 34.84375 29.65625 34.84375 C 35.570767 34.84375 40.711418 30.070767 41.125 24.15625 C 41.538582 18.241733 37.070767 13.4375 31.15625 13.4375 z "
     id="path5701" />
  <path
     style="font-size:medium;font-style:normal;font-variant:normal;font-weight:normal;font-stretch:normal;text-indent:0;text-align:start;text-decoration:none;line-height:normal;letter-spacing:normal;word-spacing:normal;text-transform:none;direction:ltr;block-progression:tb;writing-mode:lr-tb;text-anchor:start;baseline-shift:baseline;color:#000000;fill:#d04038;fill-opacity:1;stroke:none;stroke-width:2;marker:none;visibility:visible;display:inline;overflow:visible;enable-background:accumulate;font-family:Sans;-inkscape-font-specification:Sans"
     d="m 85.5625,56.03125 c -9.566603,4.316617 -21.029087,7.092218 -33.5,7.75 a 1.001098,1.001098 0 1 0 0.09375,2 c 12.012346,-0.633594 23.167635,-3.189122 32.65625,-7.21875 0.281734,-0.827413 0.51931,-1.681548 0.75,-2.53125 z"
     id="path5717" />
  <path
     style="fill:#f86860;fill-opacity:1;stroke:none"
     d="m 4.25,55.40625 c 0.2144563,0.841727 0.4543663,1.679433 0.71875,2.5 2.3228748,0.987596 4.7306612,1.897616 7.21875,2.71875 a 1.0030471,1.0030471 0 1 0 0.625,-1.90625 C 9.8348956,57.736063 6.975976,56.626336 4.25,55.40625 z"
     id="path6248" />
  <path
     style="fill:#f86860;fill-opacity:1;stroke:none"
     d="m 70.25,61.1875 c -5.72156,1.362369 -11.822586,2.258031 -18.1875,2.59375 a 1.001098,1.001098 0 1 0 0.09375,2 C 57.643837,65.491806 62.947322,64.767686 68,63.71875 c 0.776425,-0.822026 1.537717,-1.659849 2.25,-2.53125 z"
     id="path6237" />
</svg>
