<?xml version="1.0" encoding="UTF-8" standalone="no"?>
<!-- Created with Inkscape (http://www.inkscape.org/) -->

<svg
   xmlns:dc="http://purl.org/dc/elements/1.1/"
   xmlns:cc="http://creativecommons.org/ns#"
   xmlns:rdf="http://www.w3.org/1999/02/22-rdf-syntax-ns#"
   xmlns:svg="http://www.w3.org/2000/svg"
   xmlns="http://www.w3.org/2000/svg"
   xmlns:sodipodi="http://sodipodi.sourceforge.net/DTD/sodipodi-0.dtd"
   xmlns:inkscape="http://www.inkscape.org/namespaces/inkscape"
   id="svg2985"
   version="1.1"
   inkscape:version="0.48.2 r9819"
   width="90"
   height="90"
   sodipodi:docname="Custom Poke Ball.svg">
  <metadata
     id="metadata2991">
    <rdf:RDF>
      <cc:Work
         rdf:about="">
        <dc:format>image/svg+xml</dc:format>
        <dc:type
           rdf:resource="http://purl.org/dc/dcmitype/StillImage" />
        <dc:title></dc:title>
      </cc:Work>
    </rdf:RDF>
  </metadata>
  <defs
     id="defs2989" />
  <sodipodi:namedview
     pagecolor="#ffffff"
     bordercolor="#666666"
     borderopacity="1"
     objecttolerance="10"
     gridtolerance="10"
     guidetolerance="10"
     inkscape:pageopacity="0"
     inkscape:pageshadow="2"
     inkscape:window-width="1366"
     inkscape:window-height="706"
     id="namedview2987"
     showgrid="false"
     inkscape:zoom="5.7444444"
     inkscape:cx="45"
     inkscape:cy="45"
     inkscape:window-x="-8"
     inkscape:window-y="-8"
     inkscape:window-maximized="1"
     inkscape:current-layer="svg2985"
     showguides="true"
     inkscape:guide-bbox="true" />
  <path
     style="opacity:1;fill:#231815;fill-opacity:1;fill-rule:nonzero;stroke:none"
     d="M 45,0 C 20.147186,0 0,20.147186 0,45 0,69.852814 20.147186,90 45,90 69.852814,90 90,69.852814 90,45 90,20.147186 69.852814,0 45,0 z"
     id="path3129" />
  <path
     style="fill:#ffffff;fill-opacity:1;fill-rule:nonzero;stroke:none"
     d="M 31.53125 53.375 C 26.314701 53.375 22.09375 57.595951 22.09375 62.8125 C 22.09375 68.029049 26.314701 72.25 31.53125 72.25 C 36.747799 72.25 41 68.029049 41 62.8125 C 41 57.595951 36.747799 53.375 31.53125 53.375 z M 31.53125 56.53125 C 34.997607 56.53125 37.8125 59.346143 37.8125 62.8125 C 37.8125 66.278857 34.997607 69.09375 31.53125 69.09375 C 28.064893 69.09375 25.28125 66.278857 25.28125 62.8125 C 25.28125 59.346143 28.064893 56.53125 31.53125 56.53125 z M 31.53125 58.5625 C 29.177811 58.5625 27.28125 60.459061 27.28125 62.8125 C 27.28125 65.165939 29.177811 67.0625 31.53125 67.0625 C 33.884689 67.0625 35.8125 65.165939 35.8125 62.8125 C 35.8125 60.459061 33.884689 58.5625 31.53125 58.5625 z "
     id="path3002" />
  <path
     style="fill:#5997d1;fill-opacity:1;fill-rule:nonzero;stroke:none;opacity:1"
     d="M 45,3.28125 C 21.954493,3.28125 3.28125,21.954493 3.28125,45 c 0,1.920024 0.1240372,3.805194 0.375,5.65625 4.8388659,2.714709 10.007239,4.788348 15.25,6.34375 2.203885,-4.774788 7.020901,-8.09375 12.625,-8.09375 6.978813,0 12.748854,5.143748 13.75,11.84375 14.166068,-0.0085 28.558525,-2.925184 41.0625,-10.15625 0.245463,-1.831175 0.375,-3.695233 0.375,-5.59375 C 86.71875,21.954493 68.045507,3.28125 45,3.28125 z"
     id="path3043" />
  <path
     style="fill:#356bb3;fill-opacity:1;fill-rule:nonzero;stroke:none"
     d="m 83.03125,62.15625 c -10.353102,4.305344 -21.490381,6.478741 -32.1875,7.21875 -2.334967,0.09504 -4.698034,0.101949 -7.0625,0.0625 -2.355854,4.336732 -6.967659,7.28125 -12.25,7.28125 -6.599635,0 -12.103546,-4.584461 -13.53125,-10.75 -3.7418,-1.016892 -7.414607,-2.271994 -11,-3.78125 6.548237,14.467136 21.083311,24.53125 38,24.53125 16.9314,0 31.491271,-10.075119 38.03125,-24.5625 z"
     id="path3120" />
  <path
     style="fill:#81c7ef;stroke:none;stroke-width:1px;stroke-linecap:butt;stroke-linejoin:miter;stroke-opacity:1;fill-opacity:1"
     d="M 45 3.28125 C 23.034364 3.28125 5.0443085 20.236096 3.40625 41.78125 C 7.3172795 46.527487 13.465904 51.398982 20.90625 53.875 C 23.454623 50.839526 27.256402 48.90625 31.53125 48.90625 C 36.015079 48.90625 39.98958 51.048585 42.53125 54.34375 C 54.062895 51.778307 63.088903 45.403254 68.9375 38.125 C 72.870105 33.231092 79.267818 32.021433 84.65625 32.03125 C 79.202304 15.340393 63.515734 3.28125 45 3.28125 z "
     id="path6855" />
  <path
     style="fill:#d2cde6;stroke:none;stroke-width:1px;stroke-linecap:butt;stroke-linejoin:miter;stroke-opacity:1;fill-opacity:1"
     d="M 54.15625 4.3125 C 52.764131 5.9105004 51.473615 7.4933113 50.46875 8.875 C 46.2908 14.619681 44.557 18.111581 37.59375 17.9375 C 33.811294 17.842938 32.866596 11.167156 32.78125 5.09375 C 23.809982 7.8363239 16.119076 13.529076 10.84375 21.03125 C 11.325536 24.800153 11.628677 28.753067 12 32.21875 C 13.044488 41.967299 17.393013 43.361581 18.4375 43.1875 C 19.481988 43.013419 23.487125 42.472437 26.96875 37.25 C 30.450375 32.027563 32.567819 27.84375 38.3125 27.84375 C 44.057181 27.84375 50.670757 44.745406 58.15625 43.875 C 61.78749 43.452763 62.496131 41.941005 66.5 35.5 C 70.503868 29.058994 72.424444 25.9375 74.6875 25.9375 C 76.950556 25.9375 77.112306 26.817276 81.8125 28.90625 C 82.506188 29.214556 83.179173 29.478535 83.8125 29.6875 C 78.79813 16.98101 67.728817 7.352353 54.15625 4.3125 z "
     id="path6329" />
  <path
     style="fill:#a0d8e5;fill-opacity:1;fill-rule:nonzero;stroke:none"
     d="M 36.03125 4.25 C 19.448728 7.8818674 6.5516595 21.381748 3.8125 38.28125 C 6.2237243 45.19938 11.474847 49.78125 18.1875 49.78125 C 28.735131 49.78125 38.903357 38.495791 40.90625 24.5625 C 42.104159 16.229147 40.086066 8.8438667 36.03125 4.25 z "
     id="path6333" />
  <path
     style="fill:#dbf0fc;stroke:none;stroke-width:1px;stroke-linecap:butt;stroke-linejoin:miter;stroke-opacity:1;fill-opacity:1"
     d="M 32.78125 5.09375 C 23.807718 7.8386454 16.12101 13.523656 10.84375 21.03125 C 11.319206 24.80049 11.628684 28.753131 12 32.21875 C 13.044488 41.967299 17.393013 43.361581 18.4375 43.1875 C 19.481988 43.013419 23.487125 42.472437 26.96875 37.25 C 30.450375 32.027563 32.567819 27.84375 38.3125 27.84375 C 38.910904 27.84375 39.507707 28.047708 40.125 28.375 C 40.146516 28.291715 40.166564 28.208551 40.1875 28.125 C 40.313694 27.625652 40.424258 27.131646 40.53125 26.625 C 40.539772 26.583391 40.554123 26.541666 40.5625 26.5 C 40.694109 25.865232 40.812821 25.212452 40.90625 24.5625 C 40.982161 24.034416 41.04437 23.519444 41.09375 23 C 41.101082 22.924822 41.118194 22.856248 41.125 22.78125 C 41.138057 22.633377 41.145275 22.490881 41.15625 22.34375 C 41.189133 21.902919 41.204044 21.465159 41.21875 21.03125 C 41.25798 19.87379 41.236306 18.72822 41.15625 17.625 C 40.135786 17.86076 38.957146 17.971585 37.59375 17.9375 C 33.795307 17.842539 32.859583 11.173722 32.78125 5.09375 z "
     id="path6327" />
  <path
     sodipodi:type="arc"
     style="opacity:1;fill:#ffffff;fill-opacity:1;fill-rule:nonzero;stroke:none"
     id="path3066"
     sodipodi:cx="25.088533"
     sodipodi:cy="25.097055"
     sodipodi:rx="9.0900478"
     sodipodi:ry="9.0900478"
     d="m 34.178581,25.097055 a 9.0900478,9.0900478 0 1 1 -18.180095,0 9.0900478,9.0900478 0 1 1 18.180095,0 z"
     transform="matrix(1.07,0,0,1.09,-0.93809303,-1.9860337)" />
  <path
     style="fill:#5997d1;stroke:none;stroke-width:1px;stroke-linecap:butt;stroke-linejoin:miter;stroke-opacity:1;fill-opacity:1"
     d="M 7 62.1875 C 8.9027624 66.391307 11.47978 70.209871 14.59375 73.53125 C 16.639496 73.168834 18.755732 72.434307 20.84375 71.6875 C 19.489389 70.053408 18.495854 68.110093 18 65.96875 C 14.2582 64.951858 10.585393 63.696756 7 62.1875 z M 74.125 65.28125 C 66.436276 67.553493 58.532304 68.843119 50.84375 69.375 C 48.508783 69.47004 46.145716 69.476949 43.78125 69.4375 C 42.396727 71.986175 40.214808 74.040614 37.59375 75.3125 C 40.834978 77.452906 45.52417 79.375449 53.4375 79.21875 C 61.132392 79.066376 69.157724 71.19087 74.125 65.28125 z "
     id="path6860" />
  <path
     style="fill:#81c7ef;fill-opacity:1;fill-rule:nonzero;stroke:none"
     d="M 14.59375 65.5 C 14.179383 65.521732 13.839625 65.632418 13.5625 65.84375 C 12.084498 66.970853 13.38824 70.505789 16.46875 73.71875 C 19.54926 76.931711 23.240748 78.595853 24.71875 77.46875 C 25.301257 77.024539 25.438015 76.209482 25.21875 75.1875 C 21.836051 73.455053 19.259917 70.403856 18.1875 66.6875 C 16.83576 65.885048 15.545926 65.450061 14.59375 65.5 z "
     id="path3072" />
</svg>
