<?xml version="1.0" encoding="UTF-8" standalone="no"?>
<!-- Created with Inkscape (http://www.inkscape.org/) -->

<svg
   xmlns:dc="http://purl.org/dc/elements/1.1/"
   xmlns:cc="http://creativecommons.org/ns#"
   xmlns:rdf="http://www.w3.org/1999/02/22-rdf-syntax-ns#"
   xmlns:svg="http://www.w3.org/2000/svg"
   xmlns="http://www.w3.org/2000/svg"
   xmlns:sodipodi="http://sodipodi.sourceforge.net/DTD/sodipodi-0.dtd"
   xmlns:inkscape="http://www.inkscape.org/namespaces/inkscape"
   id="svg2985"
   version="1.1"
   inkscape:version="0.48.2 r9819"
   width="90"
   height="90"
   sodipodi:docname="Drasil Ball.svg">
  <metadata
     id="metadata2991">
    <rdf:RDF>
      <cc:Work
         rdf:about="">
        <dc:format>image/svg+xml</dc:format>
        <dc:type
           rdf:resource="http://purl.org/dc/dcmitype/StillImage" />
        <dc:title></dc:title>
      </cc:Work>
    </rdf:RDF>
  </metadata>
  <defs
     id="defs2989" />
  <sodipodi:namedview
     pagecolor="#ffffff"
     bordercolor="#666666"
     borderopacity="1"
     objecttolerance="10"
     gridtolerance="10"
     guidetolerance="10"
     inkscape:pageopacity="0"
     inkscape:pageshadow="2"
     inkscape:window-width="1366"
     inkscape:window-height="706"
     id="namedview2987"
     showgrid="false"
     inkscape:zoom="5.7444444"
     inkscape:cx="45"
     inkscape:cy="45"
     inkscape:window-x="-8"
     inkscape:window-y="-8"
     inkscape:window-maximized="1"
     inkscape:current-layer="svg2985" />
  <path
     style="opacity:1;fill:#231815;fill-opacity:1;fill-rule:nonzero;stroke:none"
     d="M 45,0 C 20.147186,0 0,20.147186 0,45 0,69.852814 20.147186,90 45,90 69.852814,90 90,69.852814 90,45 90,20.147186 69.852814,0 45,0 z"
     id="path3129" />
  <path
     style="fill:#ffffff;fill-opacity:1;fill-rule:nonzero;stroke:none"
     d="M 31.53125 53.375 C 26.314701 53.375 22.09375 57.595951 22.09375 62.8125 C 22.09375 68.029049 26.314701 72.25 31.53125 72.25 C 36.747799 72.25 41 68.029049 41 62.8125 C 41 57.595951 36.747799 53.375 31.53125 53.375 z M 31.53125 56.53125 C 34.997607 56.53125 37.8125 59.346143 37.8125 62.8125 C 37.8125 66.278857 34.997607 69.09375 31.53125 69.09375 C 28.064893 69.09375 25.28125 66.278857 25.28125 62.8125 C 25.28125 59.346143 28.064893 56.53125 31.53125 56.53125 z M 31.53125 58.5625 C 29.177811 58.5625 27.28125 60.459061 27.28125 62.8125 C 27.28125 65.165939 29.177811 67.0625 31.53125 67.0625 C 33.884689 67.0625 35.8125 65.165939 35.8125 62.8125 C 35.8125 60.459061 33.884689 58.5625 31.53125 58.5625 z "
     id="path3002" />
  <path
     style="fill:#f18e38;fill-opacity:1;fill-rule:nonzero;stroke:none;opacity:1"
     d="M 45,3.28125 C 21.954493,3.28125 3.28125,21.954493 3.28125,45 c 0,1.920024 0.1240372,3.805194 0.375,5.65625 4.8388659,2.714709 10.007239,4.788348 15.25,6.34375 2.203885,-4.774788 7.020901,-8.09375 12.625,-8.09375 6.978813,0 12.748854,5.143748 13.75,11.84375 14.166068,-0.0085 28.558525,-2.925184 41.0625,-10.15625 0.245463,-1.831175 0.375,-3.695233 0.375,-5.59375 C 86.71875,21.954493 68.045507,3.28125 45,3.28125 z"
     id="path3043" />
  <path
     style="opacity:1;fill:#fcc807;fill-opacity:1;fill-rule:nonzero;stroke:none"
     d="m 45,3.28125 c -22.028839,0 -40.0454728,17.054018 -41.59375,38.6875 4.349783,5.314512 10.54002,9.421846 17.78125,11.59375 2.547669,-2.852082 6.218555,-4.65625 10.34375,-4.65625 4.434105,0 8.389952,2.081199 10.9375,5.3125 C 58.004772,50.639659 69.4375,38.38008 69.4375,23.8125 69.4375,18.127809 67.703624,12.787374 64.65625,8.1875 58.79795,5.0518025 52.111039,3.28125 45,3.28125 z"
     id="path3057" />
  <path
     sodipodi:type="arc"
     style="opacity:1;fill:#ffffff;fill-opacity:1;fill-rule:nonzero;stroke:none"
     id="path3066"
     sodipodi:cx="25.088533"
     sodipodi:cy="25.097055"
     sodipodi:rx="9.0900478"
     sodipodi:ry="9.0900478"
     d="m 34.178581,25.097055 a 9.0900478,9.0900478 0 1 1 -18.180095,0 9.0900478,9.0900478 0 1 1 18.180095,0 z"
     transform="matrix(1.07,0,0,1.09,-0.93809303,-1.9860337)" />
  <path
     style="fill:#a5a3c3;fill-opacity:1;fill-rule:nonzero;stroke:none"
     d="m 83.03125,62.15625 c -10.353102,4.305344 -21.490381,6.478741 -32.1875,7.21875 -2.334967,0.09504 -4.698034,0.101949 -7.0625,0.0625 -2.355854,4.336732 -6.967659,7.28125 -12.25,7.28125 -6.599635,0 -12.103546,-4.584461 -13.53125,-10.75 -3.7418,-1.016892 -7.414607,-2.271994 -11,-3.78125 6.548237,14.467136 21.083311,24.53125 38,24.53125 16.9314,0 31.491271,-10.075119 38.03125,-24.5625 z"
     id="path3120" />
  <path
     style="fill:#d1c3e0;fill-opacity:1;fill-rule:nonzero;stroke:none;opacity:1"
     d="m 7,62.1875 c 2.2149254,4.893474 5.326785,9.270962 9.15625,12.9375 7.252091,5.876934 16.499354,9.40625 26.5625,9.40625 15.514343,0 29.049331,-8.36675 36.375,-20.84375 -9.205452,3.303877 -18.899452,5.040645 -28.25,5.6875 -2.334967,0.09504 -4.698034,0.101949 -7.0625,0.0625 -2.355854,4.336732 -6.967659,7.28125 -12.25,7.28125 -6.599635,0 -12.103546,-4.584461 -13.53125,-10.75 C 14.2582,64.951858 10.585393,63.696756 7,62.1875 z"
     id="path3108" />
  <path
     style="fill:#ffffff;fill-opacity:1;fill-rule:nonzero;stroke:none"
     d="M 14.59375 65.5 C 14.179383 65.521732 13.839625 65.632418 13.5625 65.84375 C 12.084498 66.970853 13.38824 70.505789 16.46875 73.71875 C 19.54926 76.931711 23.240748 78.595853 24.71875 77.46875 C 25.301257 77.024539 25.438015 76.209482 25.21875 75.1875 C 21.836051 73.455053 19.259917 70.403856 18.1875 66.6875 C 16.83576 65.885048 15.545926 65.450061 14.59375 65.5 z "
     id="path3072" />
  <path
     style="font-size:medium;font-style:normal;font-variant:normal;font-weight:normal;font-stretch:normal;text-indent:0;text-align:start;text-decoration:none;line-height:normal;letter-spacing:normal;word-spacing:normal;text-transform:none;direction:ltr;block-progression:tb;writing-mode:lr-tb;text-anchor:start;baseline-shift:baseline;color:#000000;fill:#923436;fill-opacity:1;fill-rule:nonzero;stroke:none;stroke-width:0.75;marker:none;visibility:visible;display:inline;overflow:visible;enable-background:accumulate;font-family:Sans;-inkscape-font-specification:Sans"
     d="M 43.65625 6.0625 A 0.3750375 0.3750375 0 0 0 43.53125 6.15625 A 0.3750375 0.3750375 0 0 0 43.46875 6.25 C 43.43844 6.298125 43.43526 6.356674 43.40625 6.40625 C 43.25395 6.666524 43.097098 6.9090084 43 7.1875 C 42.558463 8.4539327 42.94773 9.6203053 43.78125 10.40625 C 43.642151 10.667873 43.528927 10.925267 43.4375 11.1875 C 43.180786 11.923808 43.21087 12.59292 43.375 13.1875 C 40.976722 12.926154 38.975103 12.275727 38 11.375 C 37.473297 10.888472 37.213579 10.375574 37.25 9.78125 C 37.286421 9.1869258 37.639892 8.4479735 38.4375 7.625 A 0.3750375 0.3750375 0 0 0 38.46875 7.59375 A 0.3750375 0.3750375 0 0 0 38.375 7.0625 A 0.3750375 0.3750375 0 0 0 38.125 7 C 34.87283 7.4784887 31.702543 9.0964394 29.1875 11.09375 C 26.672457 13.091061 24.808227 15.450715 24.09375 17.5 C 22.850449 21.066063 22.995762 24.422697 24.3125 27.1875 A 0.3750375 0.3750375 0 0 0 24.90625 27.3125 C 29.493963 23.395731 35.657012 20.720923 41.78125 20.28125 L 39.21875 31 L 39.1875 31.0625 A 0.3750375 0.3750375 0 0 0 39.84375 31.40625 A 0.3750375 0.3750375 0 0 0 39.90625 31.3125 L 39.9375 31.25 L 44.9375 20.25 C 50.88139 20.623504 55.157174 23.299709 57 27.1875 A 0.3750375 0.3750375 0 0 0 57.59375 27.3125 C 60.768428 24.607296 63.225448 21.316063 64.46875 17.75 C 65.897705 13.651431 63.489239 7.9665591 57.59375 7 A 0.3750375 0.3750375 0 0 0 57.1875 7.46875 C 57.395747 8.2346933 57.25239 8.9200006 56.84375 9.5625 C 56.435111 10.204999 55.738803 10.792067 54.8125 11.3125 C 53.154242 12.244174 50.774925 12.847453 48.28125 13.125 C 48.758459 12.604236 49.293679 12.118909 49.53125 11.4375 C 49.62334 11.173354 49.674345 10.898628 49.71875 10.625 C 51.118888 9.9060661 52.278953 8.7885753 52.75 7.4375 C 52.865694 7.1057102 52.947669 6.7841699 52.96875 6.46875 A 0.3750375 0.3750375 0 0 0 52.34375 6.15625 A 0.3750375 0.3750375 0 0 0 52.28125 6.25 C 51.634332 7.2762415 50.45994 8.071093 49.15625 8.53125 C 48.768241 8.1054778 48.221707 7.8125 47.5625 7.8125 C 46.851787 7.8125 46.172971 8.1595048 45.53125 8.59375 C 44.596422 8.1652753 44.090659 7.4421718 44.15625 6.46875 A 0.3750375 0.3750375 0 0 0 43.6875 6.0625 A 0.3750375 0.3750375 0 0 0 43.65625 6.0625 z "
     id="path5084" />
  <path
     inkscape:connector-curvature="0"
     id="path5080"
     d="m 43.775528,6.4367142 c -0.175565,0.2787192 -0.330282,0.5888019 -0.434425,0.8874996 -0.447626,1.2838976 -0.07314,2.4031685 0.863614,3.0801452 -0.173541,0.285403 -0.303026,0.600253 -0.412275,0.913603 -0.323255,0.927163 -0.256425,1.755996 0.09629,2.323161 -5.420897,-0.42356 -9.067476,-2.812913 -5.722074,-6.2647033 -6.329793,0.9312966 -12.382536,6.3854793 -13.732837,10.2584513 -1.216003,3.487765 -1.047898,6.726965 0.223733,9.397055 4.782933,-4.083438 11.235054,-6.856193 17.627701,-7.178306 L 39.563391,31.156189 44.722756,19.85362 c 6.168045,0.322113 10.686736,3.094868 12.622299,7.178306 3.133471,-2.67009 5.560264,-5.90929 6.776267,-9.397055 1.350301,-3.872972 -0.899256,-9.3271547 -6.579663,-10.2584513 0.938484,3.4517903 -4.374185,5.8411433 -10.090426,6.2647033 0.748193,-0.567165 1.392962,-1.395998 1.716214,-2.323161 0.109243,-0.31335 0.199312,-0.6282 0.224771,-0.913603 1.408801,-0.6769767 2.56376,-1.7962476 3.011386,-3.0801452 0.104322,-0.2991771 0.165779,-0.608372 0.184434,-0.8874996 -0.734576,1.1652983 -2.035685,2.0904965 -3.485622,2.5580871 -0.303294,-0.5043009 -0.832075,-0.8091907 -1.530373,-0.8091907 -0.698298,0 -1.439681,0.3048898 -2.094627,0.8091907 -1.124097,-0.4674352 -1.78043,-1.3923177 -1.701878,-2.5580871 z"
     style="fill:#d35337;fill-opacity:1;fill-rule:nonzero;stroke:none;stroke-opacity:1;stroke-linejoin:round;stroke-linecap:round;stroke-width:0.75000000000000000;stroke-miterlimit:4;stroke-dasharray:none" />
  <path
     style="opacity:1;fill:#d35337;fill-opacity:1;fill-rule:nonzero;stroke:none"
     d="M 25.90625 15.46875 C 25.633406 15.46875 25.360909 15.477557 25.09375 15.5 C 24.661141 16.180491 24.317024 16.859598 24.09375 17.5 C 22.850449 21.066063 22.995762 24.422697 24.3125 27.1875 A 0.3750375 0.3750375 0 0 0 24.90625 27.3125 C 27.766439 24.870608 31.24384 22.892011 34.9375 21.65625 C 33.497227 18.019493 29.992111 15.46875 25.90625 15.46875 z "
     id="path5092" />
  <path
     style="fill:#f18e38;fill-opacity:1;fill-rule:nonzero;stroke:none;stroke-opacity:1;stroke-linejoin:round;stroke-linecap:round;stroke-width:0.75000000000000000;stroke-miterlimit:4;stroke-dasharray:none"
     d="M 25.5625 15.46875 C 25.053389 16.219495 24.676504 16.939482 24.4375 17.625 C 23.221497 21.112765 23.384619 24.36116 24.65625 27.03125 C 27.548472 24.56201 31.050553 22.571159 34.78125 21.3125 C 33.26024 17.861976 29.859889 15.46875 25.90625 15.46875 C 25.790955 15.46875 25.676825 15.464696 25.5625 15.46875 z "
     id="path5087" />
</svg>
