<?xml version="1.0" encoding="UTF-8" standalone="no"?>
<!-- Created with Inkscape (http://www.inkscape.org/) -->

<svg
   xmlns:dc="http://purl.org/dc/elements/1.1/"
   xmlns:cc="http://creativecommons.org/ns#"
   xmlns:rdf="http://www.w3.org/1999/02/22-rdf-syntax-ns#"
   xmlns:svg="http://www.w3.org/2000/svg"
   xmlns="http://www.w3.org/2000/svg"
   xmlns:sodipodi="http://sodipodi.sourceforge.net/DTD/sodipodi-0.dtd"
   xmlns:inkscape="http://www.inkscape.org/namespaces/inkscape"
   id="svg2985"
   version="1.1"
   inkscape:version="0.48.2 r9819"
   width="90"
   height="90"
   sodipodi:docname="Custom Poke Ball.svg">
  <metadata
     id="metadata2991">
    <rdf:RDF>
      <cc:Work
         rdf:about="">
        <dc:format>image/svg+xml</dc:format>
        <dc:type
           rdf:resource="http://purl.org/dc/dcmitype/StillImage" />
        <dc:title></dc:title>
      </cc:Work>
    </rdf:RDF>
  </metadata>
  <defs
     id="defs2989">
    <clipPath
       clipPathUnits="userSpaceOnUse"
       id="clipPath7613">
      <rect
         style="fill:#94493a;fill-opacity:1;fill-rule:nonzero;stroke:none"
         id="rect7615"
         width="17.785299"
         height="17.785299"
         x="-40.401356"
         y="27.32205" />
    </clipPath>
  </defs>
  <sodipodi:namedview
     pagecolor="#ffffff"
     bordercolor="#666666"
     borderopacity="1"
     objecttolerance="10"
     gridtolerance="10"
     guidetolerance="10"
     inkscape:pageopacity="0"
     inkscape:pageshadow="2"
     inkscape:window-width="1366"
     inkscape:window-height="706"
     id="namedview2987"
     showgrid="false"
     inkscape:zoom="5.7444444"
     inkscape:cx="45"
     inkscape:cy="45"
     inkscape:window-x="-8"
     inkscape:window-y="-8"
     inkscape:window-maximized="1"
     inkscape:current-layer="svg2985" />
  <path
     style="opacity:1;fill:#231815;fill-opacity:1;fill-rule:nonzero;stroke:none"
     d="M 45,0 C 20.147186,0 0,20.147186 0,45 0,69.852814 20.147186,90 45,90 69.852814,90 90,69.852814 90,45 90,20.147186 69.852814,0 45,0 z"
     id="path3129" />
  <path
     style="fill:#ffffff;fill-opacity:1;fill-rule:nonzero;stroke:none"
     d="M 31.53125 53.375 C 26.314701 53.375 22.09375 57.595951 22.09375 62.8125 C 22.09375 68.029049 26.314701 72.25 31.53125 72.25 C 36.747799 72.25 41 68.029049 41 62.8125 C 41 57.595951 36.747799 53.375 31.53125 53.375 z M 31.53125 56.53125 C 34.997607 56.53125 37.8125 59.346143 37.8125 62.8125 C 37.8125 66.278857 34.997607 69.09375 31.53125 69.09375 C 28.064893 69.09375 25.28125 66.278857 25.28125 62.8125 C 25.28125 59.346143 28.064893 56.53125 31.53125 56.53125 z M 31.53125 58.5625 C 29.177811 58.5625 27.28125 60.459061 27.28125 62.8125 C 27.28125 65.165939 29.177811 67.0625 31.53125 67.0625 C 33.884689 67.0625 35.8125 65.165939 35.8125 62.8125 C 35.8125 60.459061 33.884689 58.5625 31.53125 58.5625 z "
     id="path3002" />
  <path
     style="fill:#e098b8;fill-opacity:1;fill-rule:nonzero;stroke:none;opacity:1"
     d="M 45,3.28125 C 21.954493,3.28125 3.28125,21.954493 3.28125,45 c 0,1.920024 0.1240372,3.805194 0.375,5.65625 4.8388659,2.714709 10.007239,4.788348 15.25,6.34375 2.203885,-4.774788 7.020901,-8.09375 12.625,-8.09375 6.978813,0 12.748854,5.143748 13.75,11.84375 14.166068,-0.0085 28.558525,-2.925184 41.0625,-10.15625 0.245463,-1.831175 0.375,-3.695233 0.375,-5.59375 C 86.71875,21.954493 68.045507,3.28125 45,3.28125 z"
     id="path3043" />
  <path
     style="opacity:1;fill:#f8b0d0;fill-opacity:1;fill-rule:nonzero;stroke:none"
     d="m 45,3.28125 c -22.028839,0 -40.0454728,17.054018 -41.59375,38.6875 4.349783,5.314512 10.54002,9.421846 17.78125,11.59375 2.547669,-2.852082 6.218555,-4.65625 10.34375,-4.65625 4.434105,0 8.389952,2.081199 10.9375,5.3125 C 58.004772,50.639659 69.4375,38.38008 69.4375,23.8125 69.4375,18.127809 67.703624,12.787374 64.65625,8.1875 58.79795,5.0518025 52.111039,3.28125 45,3.28125 z"
     id="path3057" />
  <path
     style="fill:#685088;fill-opacity:1;fill-rule:nonzero;stroke:none"
     d="m 83.03125,62.15625 c -10.353102,4.305344 -21.490381,6.478741 -32.1875,7.21875 -2.334967,0.09504 -4.698034,0.101949 -7.0625,0.0625 -2.355854,4.336732 -6.967659,7.28125 -12.25,7.28125 -6.599635,0 -12.103546,-4.584461 -13.53125,-10.75 -3.7418,-1.016892 -7.414607,-2.271994 -11,-3.78125 6.548237,14.467136 21.083311,24.53125 38,24.53125 16.9314,0 31.491271,-10.075119 38.03125,-24.5625 z"
     id="path3120" />
  <path
     style="fill:#8060c0;fill-opacity:1;fill-rule:nonzero;stroke:none;opacity:1"
     d="m 7,62.1875 c 2.2149254,4.893474 5.326785,9.270962 9.15625,12.9375 7.252091,5.876934 16.499354,9.40625 26.5625,9.40625 15.514343,0 29.049331,-8.36675 36.375,-20.84375 -9.205452,3.303877 -18.899452,5.040645 -28.25,5.6875 -2.334967,0.09504 -4.698034,0.101949 -7.0625,0.0625 -2.355854,4.336732 -6.967659,7.28125 -12.25,7.28125 -6.599635,0 -12.103546,-4.584461 -13.53125,-10.75 C 14.2582,64.951858 10.585393,63.696756 7,62.1875 z"
     id="path3108" />
  <path
     style="fill:#f860a0;stroke:none;stroke-width:1px;stroke-linecap:butt;stroke-linejoin:miter;stroke-opacity:1;fill-opacity:1"
     d="M 45 3.28125 C 36.972542 3.28125 29.487024 5.5417638 23.125 9.46875 C 25.028918 18.764369 29.270573 28.85263 38.8125 29.59375 C 48.325045 30.332588 59.165332 20.06093 68.90625 10.8125 C 62.134784 6.0675961 53.898555 3.28125 45 3.28125 z "
     id="path7617" />
  <path
     sodipodi:type="arc"
     style="opacity:1;fill:#ffffff;fill-opacity:1;fill-rule:nonzero;stroke:none"
     id="path3066"
     sodipodi:cx="25.088533"
     sodipodi:cy="25.097055"
     sodipodi:rx="9.0900478"
     sodipodi:ry="9.0900478"
     d="m 34.178581,25.097055 a 9.0900478,9.0900478 0 1 1 -18.180095,0 9.0900478,9.0900478 0 1 1 18.180095,0 z"
     transform="matrix(1.07,0,0,1.09,-0.93809303,-1.9860337)" />
  <path
     style="fill:#e098b8;stroke:none;stroke-width:1px;stroke-linecap:butt;stroke-linejoin:miter;stroke-opacity:1;fill-opacity:1"
     d="m 83.03125,62.15625 c -4.62929,1.925093 -9.416596,3.396206 -14.25,4.53125 0.820529,1.689247 0.922707,6.349175 7.0625,6.4375 2.942988,-3.227689 5.366332,-6.934493 7.1875,-10.96875 z"
     id="path8139" />
  <path
     style="fill:#e098b8;stroke:none;stroke-width:1px;stroke-linecap:butt;stroke-linejoin:miter;stroke-opacity:1;fill-opacity:1"
     d="m 7,62.1875 c 2.4433965,5.398239 5.998764,10.184454 10.375,14.0625 0.952505,-1.834018 1.922303,-3.62235 2.90625,-5.28125 C 19.211697,69.492343 18.425197,67.804963 18,65.96875 14.2582,64.951858 10.585393,63.696756 7,62.1875 z"
     id="path8137" />
  <path
     style="fill:#e098b8;stroke:none;stroke-width:1px;stroke-linecap:butt;stroke-linejoin:miter;stroke-opacity:1;fill-opacity:1"
     d="m 66.625,67.1875 c -5.271543,1.118972 -10.577086,1.827485 -15.78125,2.1875 -2.334967,0.09504 -4.698034,0.101949 -7.0625,0.0625 -0.509854,0.938556 -1.13864,1.801345 -1.84375,2.59375 C 46.883698,76.206318 51.787175,80.25 55,80.25 c 5.839316,0 9.239363,-9.77011 11.625,-13.0625 z"
     id="path8130" />
  <path
     style="fill:#c07898;stroke:none;stroke-width:1px;stroke-linecap:butt;stroke-linejoin:miter;stroke-opacity:1;fill-opacity:1"
     d="M 83.03125 62.15625 C 82.384181 62.425334 81.746646 62.684901 81.09375 62.9375 C 80.574712 63.137655 80.053653 63.34174 79.53125 63.53125 C 79.395494 63.580785 79.260969 63.638648 79.125 63.6875 C 79.115688 63.690824 79.103065 63.684183 79.09375 63.6875 C 77.224844 66.8706 74.950686 69.797606 72.34375 72.375 C 73.217039 72.822555 74.362525 73.103692 75.84375 73.125 C 76.474871 72.432825 77.072313 71.702435 77.65625 70.96875 C 77.749782 70.851232 77.845215 70.743547 77.9375 70.625 C 78.141616 70.361451 78.333447 70.081108 78.53125 69.8125 C 78.823402 69.417697 79.127866 68.999072 79.40625 68.59375 C 79.556149 68.3755 79.69792 68.158723 79.84375 67.9375 C 79.968302 67.747311 80.097224 67.567335 80.21875 67.375 C 80.389784 67.106096 80.553746 66.835546 80.71875 66.5625 C 80.927781 66.214236 81.144547 65.854713 81.34375 65.5 C 81.414166 65.375328 81.493333 65.250466 81.5625 65.125 C 81.618563 65.022755 81.663504 64.915255 81.71875 64.8125 C 81.763076 64.730491 81.799958 64.644839 81.84375 64.5625 C 82.031278 64.208131 82.228474 63.860182 82.40625 63.5 C 82.626116 63.05606 82.826876 62.608981 83.03125 62.15625 z M 75.96875 64.71875 C 75.10501 64.993627 74.24481 65.250777 73.375 65.5 C 74.244555 65.251265 75.105332 64.993166 75.96875 64.71875 z M 72.40625 65.78125 C 72.230066 65.82972 72.05138 65.858799 71.875 65.90625 C 70.949054 66.155356 70.024161 66.403423 69.09375 66.625 C 68.99085 66.64948 68.884193 66.663326 68.78125 66.6875 C 68.784997 66.695213 68.777533 66.710913 68.78125 66.71875 C 69.985607 66.436247 71.209555 66.109934 72.40625 65.78125 z "
     id="path8141" />
</svg>
