<?xml version="1.0" encoding="UTF-8" standalone="no"?>
<!-- Created with Inkscape (http://www.inkscape.org/) -->

<svg
   xmlns:dc="http://purl.org/dc/elements/1.1/"
   xmlns:cc="http://creativecommons.org/ns#"
   xmlns:rdf="http://www.w3.org/1999/02/22-rdf-syntax-ns#"
   xmlns:svg="http://www.w3.org/2000/svg"
   xmlns="http://www.w3.org/2000/svg"
   xmlns:sodipodi="http://sodipodi.sourceforge.net/DTD/sodipodi-0.dtd"
   xmlns:inkscape="http://www.inkscape.org/namespaces/inkscape"
   id="svg2985"
   version="1.1"
   inkscape:version="0.48.2 r9819"
   width="90"
   height="90"
   sodipodi:docname="Custom Poke Ball.svg">
  <metadata
     id="metadata2991">
    <rdf:RDF>
      <cc:Work
         rdf:about="">
        <dc:format>image/svg+xml</dc:format>
        <dc:type
           rdf:resource="http://purl.org/dc/dcmitype/StillImage" />
        <dc:title></dc:title>
      </cc:Work>
    </rdf:RDF>
  </metadata>
  <defs
     id="defs2989" />
  <sodipodi:namedview
     pagecolor="#ffffff"
     bordercolor="#666666"
     borderopacity="1"
     objecttolerance="10"
     gridtolerance="10"
     guidetolerance="10"
     inkscape:pageopacity="0"
     inkscape:pageshadow="2"
     inkscape:window-width="1366"
     inkscape:window-height="706"
     id="namedview2987"
     showgrid="false"
     inkscape:zoom="5.7444444"
     inkscape:cx="45"
     inkscape:cy="45"
     inkscape:window-x="-8"
     inkscape:window-y="-8"
     inkscape:window-maximized="1"
     inkscape:current-layer="svg2985" />
  <path
     style="opacity:1;fill:#231815;fill-opacity:1;fill-rule:nonzero;stroke:none"
     d="M 45,0 C 20.147186,0 0,20.147186 0,45 0,69.852814 20.147186,90 45,90 69.852814,90 90,69.852814 90,45 90,20.147186 69.852814,0 45,0 z"
     id="path3129" />
  <path
     id="path4936"
     d="M 45,3.3075435 C 21.973892,3.3075435 3.3075435,21.973892 3.3075435,45 3.3075435,68.026108 21.973892,86.692456 45,86.692456 68.026108,86.692456 86.692456,68.026108 86.692456,45 86.692456,21.973892 68.026108,3.3075435 45,3.3075435 z"
     style="fill:#b01f24;fill-opacity:1;fill-rule:nonzero;stroke:none"
     inkscape:connector-curvature="0" />
  <path
     style="fill:#ed6d1e;fill-opacity:1;fill-rule:nonzero;stroke:none"
     d="m 35.78125,32.21875 c -12.016387,0 -20.28125,13.309648 -20.28125,29.75 0,6.737341 5.317256,14.24478 10.71875,20.25 5.133714,2.597199 10.855839,4.142649 16.9375,4.40625 C 49.892767,81.268216 63.35185,66.134282 69.792855,52.394282 76.771036,37.508377 47.797637,32.21875 35.78125,32.21875 z"
     id="path4953"
     inkscape:connector-curvature="0"
     sodipodi:nodetypes="ssccss" />
  <path
     style="fill:#30a241;fill-opacity:1;fill-rule:nonzero;stroke:none;opacity:1"
     d="M 45,3.28125 C 21.954493,3.28125 3.28125,21.954493 3.28125,45 c 0,1.920024 0.1240372,3.805194 0.375,5.65625 4.8388659,2.714709 10.007239,4.788348 15.25,6.34375 2.203885,-4.774788 7.020901,-8.09375 12.625,-8.09375 6.978813,0 12.748854,5.143748 13.75,11.84375 14.166068,-0.0085 28.558525,-2.925184 41.0625,-10.15625 0.245463,-1.831175 0.375,-3.695233 0.375,-5.59375 C 86.71875,21.954493 68.045507,3.28125 45,3.28125 z"
     id="path3043" />
  <path
     style="fill:#30a241;fill-opacity:1;fill-rule:nonzero;stroke:none"
     d="m 83.03125,62.15625 c -10.353102,4.305344 -21.490381,6.478741 -32.1875,7.21875 -2.334967,0.09504 -4.698034,0.101949 -7.0625,0.0625 -2.355854,4.336732 -6.967659,7.28125 -12.25,7.28125 -6.599635,0 -12.103546,-4.584461 -13.53125,-10.75 -3.7418,-1.016892 -7.414607,-2.271994 -11,-3.78125 6.548237,14.467136 21.083311,24.53125 38,24.53125 16.9314,0 31.491271,-10.075119 38.03125,-24.5625 z"
     id="path3120" />
  <path
     inkscape:connector-curvature="0"
     style="fill:#231815;fill-opacity:1;fill-rule:nonzero;stroke:none"
     d="m 31.53125,53.375 c -5.216549,0 -9.4375,4.220951 -9.4375,9.4375 0,5.216549 4.220951,9.4375 9.4375,9.4375 C 36.747799,72.25 41,68.029049 41,62.8125 41,57.595951 36.747799,53.375 31.53125,53.375 z m 0,1.21875 c 4.544102,0 8.25,3.674648 8.25,8.21875 0,4.544102 -3.705898,8.21875 -8.25,8.21875 -4.544102,0 -8.21875,-3.674648 -8.21875,-8.21875 0,-4.544102 3.674648,-8.21875 8.21875,-8.21875 z m 0,1.9375 c -3.466357,0 -6.25,2.814893 -6.25,6.28125 0,3.466357 2.783643,6.28125 6.25,6.28125 3.466357,0 6.28125,-2.814893 6.28125,-6.28125 0,-3.466357 -2.814893,-6.28125 -6.28125,-6.28125 z m 0,2.03125 c 2.353439,0 4.28125,1.896561 4.28125,4.25 0,2.353439 -1.927811,4.25 -4.28125,4.25 -2.353439,0 -4.25,-1.896561 -4.25,-4.25 0,-2.353439 1.896561,-4.25 4.25,-4.25 z"
     id="path3002-1" />
  <path
     style="fill:#9bca54;fill-opacity:1;fill-rule:nonzero;stroke:none"
     d="M 43.4375 16.53125 C 28.198927 16.53125 15.84375 31.555085 15.84375 50.0625 C 15.84375 52.157709 16.009547 54.199038 16.3125 56.1875 C 17.17371 56.473409 18.039826 56.742953 18.90625 57 C 21.110135 52.225212 25.927151 48.90625 31.53125 48.90625 C 38.510063 48.90625 44.280104 54.049998 45.28125 60.75 C 53.715154 60.744939 62.226902 59.675936 70.375 57.3125 C 70.799626 54.97664 71.03125 52.553724 71.03125 50.0625 C 71.03125 31.555085 58.676073 16.53125 43.4375 16.53125 z "
     id="path4970" />
  <path
     style="fill:#4f4b47;fill-opacity:1;fill-rule:nonzero;stroke:none;opacity:1"
     d="M 59.5 5.875 C 62.346958 7.8355644 64.0625 10.28481 64.0625 12.96875 C 64.0625 19.362221 54.436088 24.53125 42.5625 24.53125 C 30.688912 24.53125 21.0625 19.362221 21.0625 12.96875 C 21.0625 12.123642 21.243151 11.29321 21.5625 10.5 C 17.228055 13.451479 13.454055 17.198702 10.5 21.53125 C 11.44357 26.024371 12 31.27362 12 36.90625 C 12 43.196392 11.343575 49.03464 10.1875 53.84375 C 12.061655 54.646836 13.95414 55.374997 15.875 56.03125 C 17.608743 42.439689 25.251241 32.21875 35.78125 32.21875 C 47.296846 32.21875 56.934206 44.449327 57.71875 59.9375 C 60.863602 59.52769 63.980186 58.970994 67.0625 58.21875 C 66.362256 55.125894 65.96875 51.719347 65.96875 48.125 C 65.96875 34.23242 71.77489 22.96875 78.9375 22.96875 C 79.490835 22.96875 80.027408 23.025787 80.5625 23.15625 C 75.711185 15.278482 68.29707 9.1356682 59.5 5.875 z "
     id="path4947" />
  <path
     style="fill:#4f4b47;fill-opacity:1;fill-rule:nonzero;stroke:none"
     d="M 7,62.1875 C 10.939665,70.891472 17.780298,77.997617 26.28125,82.28125 21.755253,77.259102 17.267515,71.187305 15.90625,65.375 12.888616,64.475933 9.9121674,63.413365 7,62.1875 z"
     id="path4965" />
  <path
     style="fill:#9bca54;fill-opacity:1;fill-rule:nonzero;stroke:none"
     d="M 67.21875 67.0625 C 61.752373 68.256294 56.243292 69.001469 50.84375 69.375 C 48.508783 69.47004 46.145716 69.476949 43.78125 69.4375 C 41.425396 73.774232 36.813591 76.71875 31.53125 76.71875 C 29.230298 76.71875 27.064506 76.143501 25.15625 75.15625 C 30.02418 80.385907 36.42626 83.5625 43.4375 83.5625 C 53.566424 83.5625 62.419228 76.939671 67.21875 67.0625 z "
     id="path4975" />
  <path
     style="fill:#4f4b47;fill-opacity:1;fill-rule:nonzero;stroke:none"
     d="m 70.03125,66.375 c -4.449752,1.105198 -8.945972,1.900131 -13.40625,2.4375 -2.429532,7.388507 -8.303324,13.718462 -13.5,17.84375 0.617329,0.02711 1.250906,0.0625 1.875,0.0625 12.406217,0 23.549921,-5.409141 31.1875,-14 -2.350138,-0.991262 -4.471612,-3.249489 -6.15625,-6.34375 z"
     id="path4950" />
</svg>
