<?xml version="1.0" encoding="UTF-8" standalone="no"?>
<!-- Created with Inkscape (http://www.inkscape.org/) -->

<svg
   xmlns:dc="http://purl.org/dc/elements/1.1/"
   xmlns:cc="http://creativecommons.org/ns#"
   xmlns:rdf="http://www.w3.org/1999/02/22-rdf-syntax-ns#"
   xmlns:svg="http://www.w3.org/2000/svg"
   xmlns="http://www.w3.org/2000/svg"
   xmlns:sodipodi="http://sodipodi.sourceforge.net/DTD/sodipodi-0.dtd"
   xmlns:inkscape="http://www.inkscape.org/namespaces/inkscape"
   id="svg2985"
   version="1.1"
   inkscape:version="0.48.2 r9819"
   width="90"
   height="90"
   sodipodi:docname="Custom Poke Ball.svg">
  <metadata
     id="metadata2991">
    <rdf:RDF>
      <cc:Work
         rdf:about="">
        <dc:format>image/svg+xml</dc:format>
        <dc:type
           rdf:resource="http://purl.org/dc/dcmitype/StillImage" />
        <dc:title></dc:title>
      </cc:Work>
    </rdf:RDF>
  </metadata>
  <defs
     id="defs2989" />
  <sodipodi:namedview
     pagecolor="#ffffff"
     bordercolor="#666666"
     borderopacity="1"
     objecttolerance="10"
     gridtolerance="10"
     guidetolerance="10"
     inkscape:pageopacity="0"
     inkscape:pageshadow="2"
     inkscape:window-width="1366"
     inkscape:window-height="706"
     id="namedview2987"
     showgrid="false"
     inkscape:zoom="5.7444444"
     inkscape:cx="45"
     inkscape:cy="45"
     inkscape:window-x="-8"
     inkscape:window-y="-8"
     inkscape:window-maximized="1"
     inkscape:current-layer="svg2985" />
  <path
     style="opacity:1;fill:#231815;fill-opacity:1;fill-rule:nonzero;stroke:none"
     d="M 45,0 C 20.147186,0 0,20.147186 0,45 0,69.852814 20.147186,90 45,90 69.852814,90 90,69.852814 90,45 90,20.147186 69.852814,0 45,0 z"
     id="path3129" />
  <path
     style="fill:#ffffff;fill-opacity:1;fill-rule:nonzero;stroke:none"
     d="M 31.53125 53.375 C 26.314701 53.375 22.09375 57.595951 22.09375 62.8125 C 22.09375 68.029049 26.314701 72.25 31.53125 72.25 C 36.747799 72.25 41 68.029049 41 62.8125 C 41 57.595951 36.747799 53.375 31.53125 53.375 z M 31.53125 56.53125 C 34.997607 56.53125 37.8125 59.346143 37.8125 62.8125 C 37.8125 66.278857 34.997607 69.09375 31.53125 69.09375 C 28.064893 69.09375 25.28125 66.278857 25.28125 62.8125 C 25.28125 59.346143 28.064893 56.53125 31.53125 56.53125 z M 31.53125 58.5625 C 29.177811 58.5625 27.28125 60.459061 27.28125 62.8125 C 27.28125 65.165939 29.177811 67.0625 31.53125 67.0625 C 33.884689 67.0625 35.8125 65.165939 35.8125 62.8125 C 35.8125 60.459061 33.884689 58.5625 31.53125 58.5625 z "
     id="path3002" />
  <path
     style="fill:#c05828;fill-opacity:1;fill-rule:nonzero;stroke:none;opacity:1"
     d="M 45,3.28125 C 21.954493,3.28125 3.28125,21.954493 3.28125,45 c 0,1.920024 0.1240372,3.805194 0.375,5.65625 4.8388659,2.714709 10.007239,4.788348 15.25,6.34375 2.203885,-4.774788 7.020901,-8.09375 12.625,-8.09375 6.978813,0 12.748854,5.143748 13.75,11.84375 14.166068,-0.0085 28.558525,-2.925184 41.0625,-10.15625 0.245463,-1.831175 0.375,-3.695233 0.375,-5.59375 C 86.71875,21.954493 68.045507,3.28125 45,3.28125 z"
     id="path3043" />
  <path
     style="opacity:1;fill:#e87840;fill-opacity:1;fill-rule:nonzero;stroke:none"
     d="m 45,3.28125 c -22.028839,0 -40.0454728,17.054018 -41.59375,38.6875 4.349783,5.314512 10.54002,9.421846 17.78125,11.59375 2.547669,-2.852082 6.218555,-4.65625 10.34375,-4.65625 4.434105,0 8.389952,2.081199 10.9375,5.3125 C 58.004772,50.639659 69.4375,38.38008 69.4375,23.8125 69.4375,18.127809 67.703624,12.787374 64.65625,8.1875 58.79795,5.0518025 52.111039,3.28125 45,3.28125 z"
     id="path3057" />
  <path
     style="fill:#a5a3c3;fill-opacity:1;fill-rule:nonzero;stroke:none"
     d="m 83.03125,62.15625 c -10.353102,4.305344 -21.490381,6.478741 -32.1875,7.21875 -2.334967,0.09504 -4.698034,0.101949 -7.0625,0.0625 -2.355854,4.336732 -6.967659,7.28125 -12.25,7.28125 -6.599635,0 -12.103546,-4.584461 -13.53125,-10.75 -3.7418,-1.016892 -7.414607,-2.271994 -11,-3.78125 6.548237,14.467136 21.083311,24.53125 38,24.53125 16.9314,0 31.491271,-10.075119 38.03125,-24.5625 z"
     id="path3120" />
  <path
     style="fill:#d1c3e0;fill-opacity:1;fill-rule:nonzero;stroke:none;opacity:1"
     d="m 7,62.1875 c 2.2149254,4.893474 5.326785,9.270962 9.15625,12.9375 7.252091,5.876934 16.499354,9.40625 26.5625,9.40625 15.514343,0 29.049331,-8.36675 36.375,-20.84375 -9.205452,3.303877 -18.899452,5.040645 -28.25,5.6875 -2.334967,0.09504 -4.698034,0.101949 -7.0625,0.0625 -2.355854,4.336732 -6.967659,7.28125 -12.25,7.28125 -6.599635,0 -12.103546,-4.584461 -13.53125,-10.75 C 14.2582,64.951858 10.585393,63.696756 7,62.1875 z"
     id="path3108" />
  <path
     style="fill:#ffffff;fill-opacity:1;fill-rule:nonzero;stroke:none"
     d="M 14.59375 65.5 C 14.179383 65.521732 13.839625 65.632418 13.5625 65.84375 C 12.084498 66.970853 13.38824 70.505789 16.46875 73.71875 C 19.54926 76.931711 23.240748 78.595853 24.71875 77.46875 C 25.301257 77.024539 25.438015 76.209482 25.21875 75.1875 C 21.836051 73.455053 19.259917 70.403856 18.1875 66.6875 C 16.83576 65.885048 15.545926 65.450061 14.59375 65.5 z "
     id="path3072" />
  <path
     style="fill:#f8c848;stroke:none;stroke-width:1px;stroke-linecap:butt;stroke-linejoin:miter;stroke-opacity:1;fill-opacity:1"
     d="M 45 3.28125 C 42.201622 3.28125 39.455851 3.5689125 36.8125 4.09375 L 19.65625 20.875 L 31.5 20.875 L 23.15625 36.03125 L 32.21875 36.03125 L 49.4375 16.375 L 40.5625 16.375 L 57.1875 5.09375 C 53.335213 3.9210161 49.239502 3.28125 45 3.28125 z "
     id="path5032" />
  <path
     style="fill:#f0a810;stroke:none;stroke-width:1px;stroke-linecap:butt;stroke-linejoin:miter;stroke-opacity:1;fill-opacity:1"
     d="M 83.03125 62.15625 C 78.542814 64.022769 73.902198 65.440471 69.21875 66.5625 C 70.516633 69.907333 72.118232 72.728603 73.90625 75.09375 C 77.717537 71.429627 80.826484 67.040253 83.03125 62.15625 z "
     id="path5034" />
  <path
     sodipodi:type="arc"
     style="fill:#ffffff;fill-opacity:1;fill-rule:nonzero;stroke:none"
     id="path3066"
     sodipodi:cx="25.088533"
     sodipodi:cy="25.097055"
     sodipodi:rx="9.0900478"
     sodipodi:ry="9.0900478"
     d="m 34.178581,25.097055 a 9.0900478,9.0900478 0 1 1 -18.180095,0 9.0900478,9.0900478 0 1 1 18.180095,0 z"
     transform="matrix(0.79317514,0,0,0.79316337,5.2314979,2.7654325)" />
  <path
     style="fill:#f8e080;fill-opacity:1;fill-rule:nonzero;stroke:none"
     d="M 28.59375 12.15625 L 19.65625 20.875 L 31.5 20.875 L 26.5625 29.875 C 26.668014 29.878683 26.768587 29.875 26.875 29.875 C 31.818411 29.875 35.8125 25.880838 35.8125 20.9375 C 35.8125 16.580715 32.716725 12.956289 28.59375 12.15625 z "
     id="path5549" />
  <path
     style="fill:#f0a810;stroke:none;stroke-width:1px;stroke-linecap:butt;stroke-linejoin:miter;stroke-opacity:1;fill-opacity:1"
     d="M 7 62.1875 C 7.5245082 63.346305 8.0960281 64.464154 8.71875 65.5625 C 8.952652 64.784783 9.1580512 63.995192 9.375 63.15625 C 8.5822883 62.850174 7.7845341 62.517746 7 62.1875 z "
     id="path5564" />
  <path
     style="fill:#f8c848;stroke:none;stroke-width:1px;stroke-linecap:butt;stroke-linejoin:miter;stroke-opacity:1;fill-opacity:1"
     d="M 7.9375 62.5625 C 7.8565086 62.922317 7.7711498 63.276252 7.6875 63.625 C 8.0106728 64.272433 8.3326386 64.903861 8.6875 65.53125 C 8.9187644 64.76106 9.1603483 63.986356 9.375 63.15625 C 8.8943471 62.970664 8.4151744 62.756948 7.9375 62.5625 z "
     id="path5558" />
  <path
     style="fill:#f0a810;stroke:none;stroke-width:1px;stroke-linecap:butt;stroke-linejoin:miter;stroke-opacity:1;fill-opacity:1"
     d="M 7.0625 27.65625 C 4.6463393 32.937265 3.28125 38.811481 3.28125 45 C 3.28125 46.920024 3.4052872 48.805194 3.65625 50.65625 C 6.0672917 52.008897 8.5506548 53.200474 11.09375 54.25 C 11.311505 52.669902 11.506775 50.990311 11.65625 49.25 C 12.538457 38.978584 10.283521 32.186644 7.0625 27.65625 z "
     id="path5593" />
  <path
     style="fill:#f8c848;stroke:none;stroke-width:1px;stroke-linecap:butt;stroke-linejoin:miter;stroke-opacity:1;fill-opacity:1"
     d="M 7.0625 27.625 C 6.8915455 27.997981 6.7226828 28.3712 6.5625 28.75 C 9.112935 33.263643 10.749394 39.797231 9.9375 49.25 C 9.8083451 50.753732 9.6715156 52.178686 9.5 53.5625 C 10.029658 53.795895 10.559362 54.02946 11.09375 54.25 C 11.313306 52.660804 11.505827 51.001358 11.65625 49.25 C 12.539236 38.969517 10.28868 32.154023 7.0625 27.625 z "
     id="path5566" />
  <path
     style="fill:#f0a810;stroke:none;stroke-width:1px;stroke-linecap:butt;stroke-linejoin:miter;stroke-opacity:1;fill-opacity:1"
     d="M 79.46875 21.5 C 71.497157 26.968823 64.553947 36.509905 66.15625 53.09375 C 66.332443 54.917344 66.60099 56.613926 66.90625 58.25 C 73.671681 56.612835 80.233456 54.127342 86.34375 50.59375 C 86.589213 48.762575 86.71875 46.898517 86.71875 45 C 86.71875 36.277609 84.043304 28.194348 79.46875 21.5 z "
     id="path5568" />
  <path
     style="fill:#f8c848;stroke:none;stroke-width:1px;stroke-linecap:butt;stroke-linejoin:miter;stroke-opacity:1;fill-opacity:1"
     d="M 73.28125 65.53125 C 71.930217 65.916832 70.580275 66.267668 69.21875 66.59375 C 70.515111 69.934035 72.090034 72.762076 73.875 75.125 C 74.702907 74.330751 75.489708 73.48475 76.25 72.625 C 75.139417 70.560552 74.126966 68.203292 73.28125 65.53125 z "
     id="path5570" />
  <path
     style="fill:#f8c848;fill-opacity:1;fill-rule:nonzero;stroke:none;opacity:1"
     d="M 79.46875 21.5 C 71.501124 26.967081 64.553947 36.509905 66.15625 53.09375 C 66.331408 54.90663 66.603592 56.622449 66.90625 58.25 C 68.396497 57.889376 69.875954 57.477682 71.34375 57.03125 C 71.150826 55.768575 70.976023 54.462779 70.84375 53.09375 C 69.37494 37.891562 74.270729 28.621368 80.40625 22.96875 C 80.098885 22.476074 79.795819 21.978629 79.46875 21.5 z "
     id="path5572" />
</svg>
