<?xml version="1.0" encoding="UTF-8" standalone="no"?>
<!-- Created with Inkscape (http://www.inkscape.org/) -->

<svg
   xmlns:dc="http://purl.org/dc/elements/1.1/"
   xmlns:cc="http://creativecommons.org/ns#"
   xmlns:rdf="http://www.w3.org/1999/02/22-rdf-syntax-ns#"
   xmlns:svg="http://www.w3.org/2000/svg"
   xmlns="http://www.w3.org/2000/svg"
   xmlns:sodipodi="http://sodipodi.sourceforge.net/DTD/sodipodi-0.dtd"
   xmlns:inkscape="http://www.inkscape.org/namespaces/inkscape"
   id="svg2985"
   version="1.1"
   inkscape:version="0.48.2 r9819"
   width="90"
   height="90"
   sodipodi:docname="Glace Ball.svg">
  <metadata
     id="metadata2991">
    <rdf:RDF>
      <cc:Work
         rdf:about="">
        <dc:format>image/svg+xml</dc:format>
        <dc:type
           rdf:resource="http://purl.org/dc/dcmitype/StillImage" />
        <dc:title></dc:title>
      </cc:Work>
    </rdf:RDF>
  </metadata>
  <defs
     id="defs2989" />
  <sodipodi:namedview
     pagecolor="#ffffff"
     bordercolor="#666666"
     borderopacity="1"
     objecttolerance="10"
     gridtolerance="10"
     guidetolerance="10"
     inkscape:pageopacity="0"
     inkscape:pageshadow="2"
     inkscape:window-width="1366"
     inkscape:window-height="706"
     id="namedview2987"
     showgrid="false"
     inkscape:zoom="5.7444444"
     inkscape:cx="45"
     inkscape:cy="45"
     inkscape:window-x="-8"
     inkscape:window-y="-8"
     inkscape:window-maximized="1"
     inkscape:current-layer="svg2985" />
  <path
     style="opacity:1;fill:#231815;fill-opacity:1;fill-rule:nonzero;stroke:none"
     d="M 45,0 C 20.147186,0 0,20.147186 0,45 0,69.852814 20.147186,90 45,90 69.852814,90 90,69.852814 90,45 90,20.147186 69.852814,0 45,0 z"
     id="path3129" />
  <path
     style="fill:#ffffff;fill-opacity:1;fill-rule:nonzero;stroke:none"
     d="M 31.53125 53.375 C 26.314701 53.375 22.09375 57.595951 22.09375 62.8125 C 22.09375 68.029049 26.314701 72.25 31.53125 72.25 C 36.747799 72.25 41 68.029049 41 62.8125 C 41 57.595951 36.747799 53.375 31.53125 53.375 z M 31.53125 56.53125 C 34.997607 56.53125 37.8125 59.346143 37.8125 62.8125 C 37.8125 66.278857 34.997607 69.09375 31.53125 69.09375 C 28.064893 69.09375 25.28125 66.278857 25.28125 62.8125 C 25.28125 59.346143 28.064893 56.53125 31.53125 56.53125 z M 31.53125 58.5625 C 29.177811 58.5625 27.28125 60.459061 27.28125 62.8125 C 27.28125 65.165939 29.177811 67.0625 31.53125 67.0625 C 33.884689 67.0625 35.8125 65.165939 35.8125 62.8125 C 35.8125 60.459061 33.884689 58.5625 31.53125 58.5625 z "
     id="path3002" />
  <path
     style="fill:#81c7ef;fill-opacity:1;fill-rule:nonzero;stroke:none;opacity:1"
     d="M 45,3.28125 C 21.954493,3.28125 3.28125,21.954493 3.28125,45 c 0,1.920024 0.1240372,3.805194 0.375,5.65625 4.8388659,2.714709 10.007239,4.788348 15.25,6.34375 2.203885,-4.774788 7.020901,-8.09375 12.625,-8.09375 6.978813,0 12.748854,5.143748 13.75,11.84375 14.166068,-0.0085 28.558525,-2.925184 41.0625,-10.15625 0.245463,-1.831175 0.375,-3.695233 0.375,-5.59375 C 86.71875,21.954493 68.045507,3.28125 45,3.28125 z"
     id="path3043" />
  <path
     style="opacity:1;fill:#a0d8e5;fill-opacity:1;fill-rule:nonzero;stroke:none"
     d="m 45,3.28125 c -22.028839,0 -40.0454728,17.054018 -41.59375,38.6875 4.349783,5.314512 10.54002,9.421846 17.78125,11.59375 2.547669,-2.852082 6.218555,-4.65625 10.34375,-4.65625 4.434105,0 8.389952,2.081199 10.9375,5.3125 C 58.004772,50.639659 69.4375,38.38008 69.4375,23.8125 69.4375,18.127809 67.703624,12.787374 64.65625,8.1875 58.79795,5.0518025 52.111039,3.28125 45,3.28125 z"
     id="path3057" />
  <path
     sodipodi:type="arc"
     style="opacity:1;fill:#dbf0fc;fill-opacity:1;fill-rule:nonzero;stroke:none"
     id="path3066"
     sodipodi:cx="25.088533"
     sodipodi:cy="25.097055"
     sodipodi:rx="9.0900478"
     sodipodi:ry="9.0900478"
     d="m 34.178581,25.097055 a 9.0900478,9.0900478 0 1 1 -18.180095,0 9.0900478,9.0900478 0 1 1 18.180095,0 z"
     transform="matrix(1.07,0,0,1.09,-0.93809303,-1.9860337)" />
  <path
     style="fill:#a5a3c3;fill-opacity:1;fill-rule:nonzero;stroke:none"
     d="m 83.03125,62.15625 c -10.353102,4.305344 -21.490381,6.478741 -32.1875,7.21875 -2.334967,0.09504 -4.698034,0.101949 -7.0625,0.0625 -2.355854,4.336732 -6.967659,7.28125 -12.25,7.28125 -6.599635,0 -12.103546,-4.584461 -13.53125,-10.75 -3.7418,-1.016892 -7.414607,-2.271994 -11,-3.78125 6.548237,14.467136 21.083311,24.53125 38,24.53125 16.9314,0 31.491271,-10.075119 38.03125,-24.5625 z"
     id="path3120" />
  <path
     style="fill:#d1c3e0;fill-opacity:1;fill-rule:nonzero;stroke:none;opacity:1"
     d="m 7,62.1875 c 2.2149254,4.893474 5.326785,9.270962 9.15625,12.9375 7.252091,5.876934 16.499354,9.40625 26.5625,9.40625 15.514343,0 29.049331,-8.36675 36.375,-20.84375 -9.205452,3.303877 -18.899452,5.040645 -28.25,5.6875 -2.334967,0.09504 -4.698034,0.101949 -7.0625,0.0625 -2.355854,4.336732 -6.967659,7.28125 -12.25,7.28125 -6.599635,0 -12.103546,-4.584461 -13.53125,-10.75 C 14.2582,64.951858 10.585393,63.696756 7,62.1875 z"
     id="path3108" />
  <path
     style="fill:#ffffff;fill-opacity:1;fill-rule:nonzero;stroke:none"
     d="M 14.59375 65.5 C 14.179383 65.521732 13.839625 65.632418 13.5625 65.84375 C 12.084498 66.970853 13.38824 70.505789 16.46875 73.71875 C 19.54926 76.931711 23.240748 78.595853 24.71875 77.46875 C 25.301257 77.024539 25.438015 76.209482 25.21875 75.1875 C 21.836051 73.455053 19.259917 70.403856 18.1875 66.6875 C 16.83576 65.885048 15.545926 65.450061 14.59375 65.5 z "
     id="path3072" />
  <path
     style="font-size:medium;font-style:normal;font-variant:normal;font-weight:normal;font-stretch:normal;text-indent:0;text-align:start;text-decoration:none;line-height:normal;letter-spacing:normal;word-spacing:normal;text-transform:none;direction:ltr;block-progression:tb;writing-mode:lr-tb;text-anchor:start;baseline-shift:baseline;color:#000000;fill:#5997d1;fill-opacity:1;fill-rule:nonzero;stroke:none;stroke-width:1;marker:none;visibility:visible;display:inline;overflow:visible;enable-background:accumulate;font-family:Sans;-inkscape-font-specification:Sans"
     d="m 34.485534,23.93987 2.417742,1.60356 -3.090532,1.60356 z m 8.254065,1.5945 3.08863,-1.5945 -0.672789,3.20712 z m 6.661538,-3.424552 4.016173,1.757574 0.08299,0.03624 0.06868,0.01812 c 0.147608,0.03721 0.115604,0.01905 0.159273,0.01812 0.01439,-3.08e-4 0.04632,0.0018 0.05436,0 0.287007,0.01361 0.604557,-0.07169 0.799022,-0.181194 0.208662,-0.117501 0.320911,-0.223224 0.408886,-0.308028 0.328481,-0.316638 0.515033,-0.6166 0.586649,-1.06904 0.0047,-0.03068 0.01362,-0.03794 0.019,-0.0906 l 0.0047,-0.108716 -0.01343,-0.108716 c -0.04136,-0.408322 -0.179521,-0.733463 -0.697793,-0.905966 l 0.0038,-0.01812 -1.973748,-0.869728 0.0982,-0.03624 0.02192,-0.01812 c 0.753815,-0.390073 1.170504,-1.056604 1.104879,-1.811932 l 0.0038,-0.01812 c -0.05556,-0.556622 -0.382217,-0.841283 -0.733146,-0.996563 -0.347066,-0.15357 -0.822843,-0.207049 -1.396074,0.0906 -0.0064,0.0033 -0.01172,-0.0034 -0.01812,0 l -0.08388,0.05436 0.767957,-2.192438 0.04093,-0.108716 -0.01812,0 c 0.121207,-0.289414 0.210856,-0.540257 0.125178,-0.942205 -0.0752,-0.352799 -0.18577,-0.622574 -0.644321,-0.815369 -0.451752,-0.189921 -0.988937,-0.01281 -1.284443,0.163073 -0.360936,0.214833 -0.632108,0.515363 -0.806111,0.905967 l -0.02953,0.05436 -0.01143,0.05436 -1.67301,4.692905 -0.0038,0.01812 -0.01812,0 -5.188497,-3.424552 0.0038,-0.01812 4.290194,-2.917211 0.06196,-0.03624 -0.01431,-0.01812 c 0.427533,-0.30072 0.816027,-1.013997 0.785705,-1.413307 -0.03568,-0.469851 -0.36818,-0.858262 -0.863783,-0.978443 l -0.119233,-0.03624 -0.144955,0 c 0.02166,-3.25e-4 -0.0236,4.44e-4 -0.01812,0 0.01099,-8.7e-4 0.04411,-0.0036 -0.03624,0 l -0.0038,0.01812 c -0.401195,-0.02574 -0.693918,0.05435 -1.083101,0.326148 -0.0089,0.0062 -0.01283,0.0117 -0.02192,0.01812 l -2.068376,1.395188 0.01518,-0.07248 c 0.0037,-0.01557 -0.01381,-0.02087 -0.01052,-0.03624 0.125969,-0.586377 -0.564468,-1.014682 -1.10985,-1.014682 -0.545383,0 -1.415494,0.428305 -1.535571,1.014682 -0.0032,0.01537 -0.02282,0.02067 -0.02572,0.03624 l -0.01518,0.07248 -1.483012,-1.395188 c -0.0064,-0.0064 -0.008,-0.01187 -0.01432,-0.01812 -0.275146,-0.271801 -0.534267,-0.351894 -0.946262,-0.326148 l 0.0038,-0.01812 c -0.07885,-0.0036 -0.04687,-8.7e-4 -0.03624,0 0.0052,4.44e-4 -0.03964,-3.25e-4 -0.01812,0 l -0.144954,0 -0.134437,0.03624 c -0.546027,0.120181 -1.041488,0.508592 -1.274298,0.978443 -0.197858,0.39931 -0.108622,1.112587 0.192739,1.413307 l -0.02192,0.01812 0.04676,0.03624 3.066251,2.917211 -0.0038,0.01812 -6.6253,3.424552 -0.01812,0 0.0038,-0.01812 0.295944,-4.692905 0.01143,-0.05436 -0.0067,-0.05436 c -0.01012,-0.390604 -0.155202,-0.691134 -0.426003,-0.905967 -0.221712,-0.175887 -0.68459,-0.352994 -1.216024,-0.163073 -0.539441,0.192795 -0.763197,0.46257 -0.986418,0.815369 -0.254318,0.401948 -0.269913,0.652791 -0.270132,0.942205 l -0.01812,0 -0.0047,0.108716 -0.151918,2.192438 -0.06105,-0.05436 c -0.005,-0.0034 -0.01313,0.0033 -0.01812,0 -0.448349,-0.297646 -0.946565,-0.244167 -1.358063,-0.0906 -0.416076,0.15528 -0.862169,0.439941 -1.151263,0.996563 l -0.0038,0.01812 c -0.38253,0.755328 -0.245492,1.421859 0.344667,1.811932 l 0.01431,0.01812 0.083,0.03624 -2.338651,0.869728 -0.0038,0.01812 c -0.590647,0.172503 -0.865227,0.497644 -1.077899,0.905966 l -0.05904,0.108716 -0.04092,0.108716 c -0.01673,0.05265 -0.01082,0.05992 -0.01901,0.0906 -0.118207,0.45244 -0.05748,0.752402 0.138123,1.06904 0.05239,0.0848 0.120287,0.190527 0.27965,0.308028 0.14852,0.109508 0.430282,0.194807 0.723001,0.181194 0.0073,0.0018 0.04011,-3.08e-4 0.05436,0 0.04328,9.27e-4 0.0037,0.01909 0.166875,-0.01812 l 0.07628,-0.01812 0.0982,-0.03624 4.753579,-1.757574 -1.440602,6.867223 -4.016173,-1.757574 -0.08299,-0.03624 -0.06868,-0.01812 c -0.147608,-0.03721 -0.115604,-0.01905 -0.159274,-0.01812 -0.01439,3.07e-4 -0.04632,-0.0018 -0.05436,0 -0.287006,-0.01361 -0.604556,0.07169 -0.799022,0.181193 -0.20866,0.117501 -0.320911,0.223224 -0.408884,0.308028 -0.328482,0.316638 -0.515035,0.6166 -0.586649,1.06904 -0.0047,0.03068 -0.01365,0.03794 -0.01901,0.0906 l -0.0047,0.108716 0.01343,0.108716 c 0.04136,0.408322 0.179522,0.733464 0.697794,0.905966 l -0.0038,0.01812 1.973748,0.869728 -0.0982,0.03624 -0.02193,0.01812 c -0.753816,0.390073 -1.170504,1.056604 -1.104879,1.811932 l -0.0038,0.01812 c 0.05556,0.556622 0.382217,0.841284 0.733147,0.996563 0.347065,0.15357 0.822842,0.207049 1.396074,-0.0906 0.0064,-0.0033 0.01172,0.0034 0.01812,0 l 0.08388,-0.05436 -0.767956,2.192439 -0.04092,0.108715 0.01812,0 c -0.121206,0.289414 -0.210855,0.540257 -0.125177,0.942205 0.0752,0.352799 0.18577,0.622574 0.64432,0.81537 0.451753,0.18992 0.988937,0.01281 1.284444,-0.163074 0.360936,-0.214833 0.632108,-0.515362 0.806111,-0.905966 l 0.02952,-0.05436 0.01143,-0.05436 1.67301,-4.692905 0.0038,-0.01812 0.01812,0 5.188497,3.424552 -0.0038,0.01812 -4.290194,2.917211 -0.06196,0.03624 0.01433,0.01812 c -0.427535,0.30072 -0.816028,1.013997 -0.785705,1.413307 0.03568,0.469851 0.36818,0.858262 0.863783,0.978444 l 0.119232,0.03624 0.144955,0 c -0.02166,3.26e-4 0.0236,-4.44e-4 0.01812,0 -0.01098,8.7e-4 -0.04411,0.0036 0.03624,0 l 0.0038,-0.01812 c 0.401196,0.02574 0.693919,-0.05435 1.083102,-0.326148 0.0089,-0.0062 0.01283,-0.0117 0.02192,-0.01812 l 2.068376,-1.395188 -0.01518,0.07248 c -0.0037,0.01557 0.01381,0.02087 0.01052,0.03624 -0.125969,0.586378 0.564468,1.014682 1.10985,1.014682 0.545383,0 1.415518,-0.428304 1.535571,-1.014682 0.0032,-0.01537 0.02282,-0.02067 0.02572,-0.03624 l 0.01518,-0.07248 1.483011,1.395188 c 0.0064,0.0064 0.008,0.01187 0.01432,0.01812 0.275147,0.271802 0.534268,0.351892 0.946262,0.326148 l -0.0038,0.01812 c 0.07885,0.0036 0.04687,8.7e-4 0.03624,0 -0.0052,-4.44e-4 0.03964,3.26e-4 0.01812,0 l 0.144955,0 0.134438,-0.03624 c 0.546027,-0.120182 1.041487,-0.508593 1.274298,-0.978444 0.197857,-0.39931 0.108622,-1.112587 -0.192739,-1.413307 l 0.02192,-0.01812 -0.04676,-0.03624 -3.066251,-2.917211 0.0038,-0.01812 6.625301,-3.424552 0.01812,0 -0.0038,0.01812 -0.295944,4.692905 -0.01143,0.05436 0.0067,0.05436 c 0.01012,0.390604 0.155201,0.691133 0.426003,0.905966 0.221711,0.175888 0.684589,0.352994 1.216023,0.163074 0.539442,-0.192796 0.763198,-0.462571 0.986418,-0.81537 0.254319,-0.401948 0.269914,-0.652791 0.270133,-0.942205 l 0.01812,0 0.0047,-0.108715 0.151917,-2.192439 0.06107,0.05436 c 0.005,0.0034 0.01313,-0.0033 0.01812,0 0.448351,0.297646 0.946566,0.244167 1.358063,0.0906 0.416078,-0.155279 0.86217,-0.439941 1.151264,-0.996563 l 0.0038,-0.01812 c 0.38253,-0.755328 0.24549,-1.421859 -0.344666,-1.811932 l -0.01432,-0.01812 -0.083,-0.03624 2.338651,-0.869728 0.0038,-0.01812 c 0.590648,-0.172502 0.865228,-0.497644 1.0779,-0.905966 l 0.05912,-0.108716 0.04093,-0.108716 c 0.01671,-0.05265 0.01085,-0.05992 0.019,-0.0906 0.11821,-0.45244 0.05751,-0.752402 -0.138123,-1.06904 -0.05239,-0.0848 -0.120287,-0.190527 -0.279649,-0.308028 -0.148521,-0.109507 -0.430282,-0.194807 -0.723001,-0.181193 -0.0073,-0.0018 -0.0401,3.07e-4 -0.05436,0 -0.04328,-9.28e-4 -0.0037,-0.01909 -0.166875,0.01812 l -0.07628,0.01812 -0.0982,0.03624 -4.753579,1.757574 z m -9.680433,-2.482347 -0.661384,3.152762 -2.405327,-1.576381 z m 2.68166,0 2.405324,1.576381 -3.066709,1.576381 z m -4.50237,8.679155 -0.661385,3.152762 -2.405324,-1.576381 z m 2.681659,0 2.405327,1.576381 -3.066711,1.576381 z"
     id="path3904"
     inkscape:connector-curvature="0"
     sodipodi:nodetypes="ccccccccccccccsccccccccccccsccccccscscccccccccccscccccccccccscccccccccccscccccccccccscsccccccsccccccccccccsccccccccccccsccccccccccccsccccccscscccccccccccscccccccccccscccccccccccscccccccccccscsccccccsccccccccccccsccccccccccccccccccccccc" />
  <path
     style="opacity:1;fill:#81c7ef;fill-opacity:1;fill-rule:nonzero;stroke:none"
     d="M 31.125 17.03125 L 31.09375 17.53125 L 31.03125 17.5 C 31.02625 17.4966 31.00499 17.5033 31 17.5 C 30.551651 17.202354 30.067748 17.252683 29.65625 17.40625 C 29.240174 17.56153 28.789094 17.849628 28.5 18.40625 C 28.11747 19.161578 28.253591 19.828677 28.84375 20.21875 L 28.84375 20.25 L 28.9375 20.28125 L 26.59375 21.15625 C 26.003103 21.328753 25.712672 21.654178 25.5 22.0625 L 25.4375 22.1875 L 25.40625 22.28125 C 25.38952 22.3339 25.38319 22.34432 25.375 22.375 C 25.256793 22.82744 25.335647 23.120862 25.53125 23.4375 C 25.58364 23.5223 25.653137 23.632499 25.8125 23.75 C 25.96102 23.859508 26.238531 23.951113 26.53125 23.9375 C 26.53855 23.9393 26.5795 23.937192 26.59375 23.9375 C 26.63703 23.938427 26.586825 23.94346 26.75 23.90625 L 26.84375 23.90625 L 26.9375 23.875 L 31.6875 22.125 L 30.25 28.96875 L 26.21875 27.21875 L 26.15625 27.1875 L 26.0625 27.15625 C 25.914892 27.11904 25.94992 27.15532 25.90625 27.15625 C 25.89186 27.156557 25.85179 27.15445 25.84375 27.15625 C 25.556744 27.14264 25.256966 27.234247 25.0625 27.34375 C 24.85384 27.461251 24.744223 27.540196 24.65625 27.625 C 24.327768 27.941638 24.134114 28.26631 24.0625 28.71875 C 24.0578 28.74943 24.03661 28.72859 24.03125 28.78125 L 24.03125 28.90625 L 24.0625 29 C 24.10386 29.408322 24.231728 29.733748 24.75 29.90625 L 24.75 29.9375 L 26.71875 30.8125 L 26.625 30.84375 L 26.59375 30.875 C 25.839934 31.265073 25.434375 31.932172 25.5 32.6875 C 25.55556 33.244122 25.86782 33.532221 26.21875 33.6875 C 26.565815 33.84107 27.051768 33.891399 27.625 33.59375 L 27.71875 33.53125 L 27.15625 35.1875 C 28.322423 35.035687 29.407011 34.690273 30.40625 34.15625 L 31.25 31.71875 L 31.28125 31.71875 L 32.5625 32.5625 C 34.25312 30.939211 35.383732 28.716783 35.59375 26.21875 L 33.8125 27.15625 L 34.5 23.9375 L 35.59375 24.65625 C 35.37061 21.442219 33.644334 18.671752 31.125 17.03125 z "
     id="path3914" />
  <path
     id="path3825"
     style="font-size:medium;font-style:normal;font-variant:normal;font-weight:normal;font-stretch:normal;text-indent:0;text-align:start;text-decoration:none;line-height:normal;letter-spacing:normal;word-spacing:normal;text-transform:none;direction:ltr;block-progression:tb;writing-mode:lr-tb;text-anchor:start;baseline-shift:baseline;color:#000000;fill:#dbf0fc;fill-opacity:1;fill-rule:nonzero;stroke:none;stroke-width:1;marker:none;visibility:visible;display:inline;overflow:visible;enable-background:accumulate;font-family:Sans;-inkscape-font-specification:Sans"
     d="m 40.081117,26.313501 -0.04942,0.235551 -1.406393,6.704149 -0.05321,0.253671 0.244039,-0.126835 6.50138,-3.352075 0.244039,-0.126835 -0.190824,-0.126836 -5.094986,-3.352074 -0.194626,-0.108716 z m -0.865927,-0.01812 -0.240238,0.108715 -6.5195,3.352075 -0.244038,0.126835 0.190823,0.126836 5.109305,3.370194 0.190825,0.126835 0.05321,-0.253671 1.410193,-6.722268 0.04942,-0.235551 z m -5.741337,-4.330519 -0.04942,0.235552 -1.398791,6.66791 -0.05321,0.253671 0.24404,-0.126835 6.479459,-3.333956 0.24404,-0.126835 -0.190825,-0.126835 -5.080667,-3.333956 -0.194626,-0.108716 z m 14.19123,-0.01812 -0.240237,0.108716 -6.501381,3.352075 -0.244039,0.126835 0.190824,0.126835 5.094986,3.352075 0.190825,0.126835 0.05321,-0.25367 1.406394,-6.70415 0.04942,-0.235551 z m -5.763256,-4.312399 -0.04942,0.235552 -1.394991,6.649791 -0.05321,0.25367 0.244041,-0.126835 6.461339,-3.333955 0.24404,-0.126835 -0.190825,-0.126836 -5.066349,-3.315836 -0.194626,-0.108716 z m -0.869728,0 -0.240238,0.108716 -6.461341,3.333956 -0.244038,0.126835 0.190823,0.126835 5.062548,3.333955 0.190825,0.126836 0.05321,-0.253671 1.398792,-6.66791 0.04942,-0.235552 z m 6.09221,-5.979376 c 0.110714,-0.0075 0.223935,0.02485 0.274704,0.07248 0.101543,0.09525 0.04415,0.24311 -0.122775,0.326148 l -0.0038,0.01812 -0.01812,0 -4.815397,3.261478 -0.06576,0.05436 -0.01142,0.05436 -0.228066,1.08716 -0.01901,0.0906 0.06488,0.03624 6.063427,4.00437 0.06107,0.05436 0.08388,-0.05436 1.096283,-0.561699 0.06196,-0.03624 0.02953,-0.05436 1.840514,-5.145888 c 0.04984,-0.03754 0.116836,-0.07752 0.200199,-0.0906 0.100035,-0.01569 0.202359,-0.0018 0.264187,0.03624 0.08678,0.06798 0.08106,0.160655 0.02306,0.235551 l -0.02572,0.03624 -0.0038,0.01812 -1.54263,4.330518 -0.100858,0.308029 0.28788,-0.163074 2.174434,-1.123398 c 0.211994,-0.108173 0.495267,-0.02623 0.563728,0.163074 0.06846,0.189302 -0.07651,0.489765 -0.288509,0.597937 l -2.152513,1.105279 -0.28788,0.163074 0.248983,0.108716 3.716632,1.630739 0.01812,0 0.01812,0 c 0.108135,0.01072 0.211332,0.06133 0.263302,0.126835 0.05197,0.06551 0.05159,0.140456 0.03066,0.199313 -0.02093,0.05886 -0.08492,0.127577 -0.182965,0.181193 -0.09804,0.05362 -0.215098,0.08319 -0.323233,0.07248 l -4.431145,-1.938767 -0.06868,-0.01812 -0.05816,0.01812 -1.034316,0.52546 -0.08388,0.05436 -0.01518,0.07248 -1.687672,8.04498 -0.01901,0.0906 0.06488,0.03624 0.813854,0.52546 0.04676,0.03624 0.07628,-0.01812 5.262692,-1.938767 c 0.0043,-9.86e-4 0.01371,4.67e-4 0.01812,0 0.04758,-0.005 0.08556,0.02523 0.12595,0.0906 0.03911,0.0633 0.05689,0.160632 0.03738,0.25367 -0.0013,0.006 -0.0022,0.01215 -0.0038,0.01812 -0.0591,0.113703 -0.162701,0.207295 -0.226806,0.217432 l -0.01812,0 -0.01812,0 -4.400824,1.630739 -0.294596,0.108716 0.223262,0.144955 1.688783,1.105279 c 0.16661,0.108172 0.185523,0.408635 0.03764,0.597937 -0.147885,0.189303 -0.465537,0.271247 -0.632147,0.163074 l -1.703102,-1.123398 -0.223261,-0.144955 -0.02838,0.308029 -0.27808,4.348637 c 0.0021,0.10074 -0.0427,0.229207 -0.104658,0.326148 -0.06195,0.09694 -0.13952,0.159644 -0.201083,0.181193 -0.06156,0.02155 -0.117417,0.0091 -0.173592,-0.03624 -0.05618,-0.04534 -0.09727,-0.116692 -0.09934,-0.217432 l 0.344214,-5.182126 -0.0029,-0.07248 -0.04676,-0.03624 -0.795735,-0.525461 -0.06488,-0.03624 -0.08008,0.03624 -7.819775,4.02249 -0.08388,0.05436 -0.01518,0.07248 -0.21666,1.032802 -0.01518,0.07248 0.04295,0.05436 3.447014,3.261478 c 0.06279,0.05677 0.06155,0.118947 0.01254,0.199312 -0.049,0.08037 -0.146406,0.147925 -0.269761,0.163074 l -0.0038,0.01812 c -0.118142,0.01785 -0.249667,-0.03295 -0.307143,-0.0906 l -2.872511,-2.717898 -0.19754,-0.181194 -0.06081,0.28991 -0.471333,2.246796 -0.0038,0.01812 c -0.04255,0.217459 -0.308608,0.434864 -0.526089,0.434864 -0.217481,0 -0.392333,-0.217405 -0.343638,-0.434864 l 0.0038,-0.01812 0.471332,-2.246796 0.06081,-0.28991 -0.273562,0.181194 -4.012831,2.717898 c -0.06115,0.04621 -0.170335,0.08736 -0.272676,0.0906 -0.102341,0.0032 -0.207752,-0.0281 -0.256585,-0.07248 -0.09767,-0.08874 -0.05535,-0.220483 0.08274,-0.308028 l 4.811596,-3.243359 0.06576,-0.05436 0.01518,-0.07248 0.220461,-1.050921 0.01518,-0.07248 -0.06107,-0.05436 -6.128302,-4.040609 -0.06488,-0.03624 -0.08388,0.05436 -0.998078,0.525461 -0.05815,0.01812 -0.03332,0.07248 -1.840514,5.145888 c -0.04985,0.03754 -0.116836,0.07752 -0.200198,0.0906 -0.09348,0.01466 -0.183506,-0.0036 -0.246068,-0.03624 -0.0017,-0.0016 -0.01648,0.0017 -0.01812,0 -0.06612,-0.06685 -0.07608,-0.167094 -0.02306,-0.235551 l 0.02193,-0.01812 0.0038,-0.01812 1.524512,-4.330518 0.100858,-0.308029 -0.28408,0.144955 -2.112473,1.087159 -0.0038,0.01812 c -0.181533,0.09998 -0.425985,0.06395 -0.528375,-0.07248 -0.131581,-0.180434 0.01101,-0.569972 0.253156,-0.688534 l 2.112474,-1.087159 0.284079,-0.144955 -0.248983,-0.108716 -3.730951,-1.648858 -0.01812,0 -0.01431,-0.01812 c -0.105136,-0.01063 -0.198734,-0.04499 -0.248982,-0.108716 -0.05025,-0.06373 -0.05094,-0.142787 -0.03067,-0.199313 0.02028,-0.05653 0.06927,-0.129156 0.164846,-0.181193 0.08492,-0.04624 0.190938,-0.07412 0.286994,-0.07248 l 0.01812,0 4.463583,1.956886 0.06868,0.01812 0.06196,-0.03624 1.034316,-0.52546 0.08008,-0.03624 0.01901,-0.0906 1.687673,-8.04498 0.01518,-0.07248 -0.06107,-0.05436 -0.813855,-0.52546 -0.05055,-0.01812 -0.07628,0.01812 -5.262692,1.938767 c -0.0043,9.86e-4 -0.0137,-4.67e-4 -0.01812,0 -0.04759,0.005 -0.08556,-0.02523 -0.125949,-0.0906 -0.04162,-0.06737 -0.05939,-0.173015 -0.03358,-0.27179 0.0015,-0.006 0.0019,-0.01219 0.0038,-0.01812 0.05913,-0.113536 0.158957,-0.189185 0.223005,-0.199313 l 0.01812,0 0.01812,0 4.400824,-1.630739 0.294597,-0.108716 -0.219462,-0.163074 -1.656345,-1.087159 c -0.143901,-0.0917 -0.187547,-0.309807 -0.09668,-0.489222 0.12184,-0.234592 0.503085,-0.379734 0.687391,-0.25367 l 1.656346,1.087159 0.219461,0.163074 0.02838,-0.308029 0.2962,-4.348637 c -0.0026,-0.09772 0.02655,-0.231334 0.08654,-0.326148 0.05999,-0.09481 0.141717,-0.159975 0.201085,-0.181193 0.05937,-0.02122 0.118907,-0.0071 0.173591,0.03624 0.05468,0.04338 0.09681,0.119712 0.09934,0.217431 l -0.329895,5.200246 0.0067,0.05436 0.04676,0.03624 0.828173,0.543579 0.06107,0.05436 0.08388,-0.05436 7.761617,-4.00437 0.08008,-0.03624 0.01901,-0.0906 0.228064,-1.08716 0.01143,-0.05436 -0.04295,-0.05436 -3.428895,-3.261478 c -0.0651,-0.05341 -0.06864,-0.122664 -0.03067,-0.199312 0.03797,-0.07665 0.120942,-0.155578 0.237323,-0.181193 0.0046,6.9e-5 0.01358,-2.07e-4 0.01812,0 l 0.01812,0 c 0.118141,-0.01785 0.249666,0.03295 0.307142,0.0906 l 2.872512,2.717899 0.19754,0.181193 0.06462,-0.308029 0.459929,-2.192438 c 0.03541,-0.190629 0.240675,-0.393191 0.435492,-0.434863 0.251666,-0.05393 0.491845,0.188608 0.434235,0.434863 l -0.459928,2.192438 -0.06462,0.308029 0.273561,-0.181193 4.030951,-2.717899 0.02192,-0.01812 c 0.05572,-0.05055 0.165762,-0.10118 0.276476,-0.108716 z"
     inkscape:connector-curvature="0" />
  <path
     style="opacity:1;fill:#ffffff;fill-opacity:1;fill-rule:nonzero;stroke:none"
     d="M 31.96875 17.625 L 31.84375 19.4375 L 31.8125 19.75 L 31.59375 19.5625 L 29.9375 18.5 C 29.753194 18.373936 29.37184 18.515408 29.25 18.75 C 29.159133 18.929415 29.199849 19.12705 29.34375 19.21875 L 31 20.3125 L 31.21875 20.46875 L 30.9375 20.59375 L 26.53125 22.21875 L 26.5 22.21875 C 26.435952 22.228878 26.34038 22.292714 26.28125 22.40625 C 26.27935 22.41218 26.28275 22.4315 26.28125 22.4375 C 26.25544 22.536275 26.27088 22.65138 26.3125 22.71875 C 26.352889 22.78412 26.38991 22.8175 26.4375 22.8125 L 31.71875 20.875 L 31.78125 20.84375 L 31.84375 20.875 L 32.65625 21.375 L 32.71875 21.4375 L 32.6875 21.5 L 31 29.5625 L 31 29.65625 L 30.90625 29.6875 L 29.875 30.21875 L 29.8125 30.25 L 29.75 30.21875 L 25.28125 28.28125 C 25.185194 28.27961 25.05367 28.29751 24.96875 28.34375 C 24.873174 28.395787 24.83278 28.47472 24.8125 28.53125 C 24.79223 28.587776 24.7935 28.65502 24.84375 28.71875 C 24.893998 28.782476 24.988614 28.83312 25.09375 28.84375 L 25.125 28.84375 L 28.84375 30.5 L 29.09375 30.59375 L 28.8125 30.75 L 26.71875 31.84375 C 26.476604 31.962312 26.337169 32.350816 26.46875 32.53125 C 26.57114 32.66768 26.818467 32.69373 27 32.59375 L 29.09375 31.5 L 29.375 31.34375 L 29.28125 31.65625 L 28.09375 35 C 28.291544 34.953784 28.494512 34.933296 28.6875 34.875 L 30.0625 31.0625 L 30.09375 31 L 30.15625 30.96875 L 31.15625 30.4375 L 31.25 30.375 L 31.3125 30.4375 L 33.34375 31.78125 C 33.545259 31.538239 33.728113 31.262205 33.90625 31 L 32.40625 30 L 32.21875 29.875 L 32.46875 29.75 L 35.15625 28.375 C 35.26303 28.033909 35.367096 27.699774 35.4375 27.34375 L 32.21875 29 L 31.96875 29.125 L 32.03125 28.875 L 33.4375 22.1875 L 33.46875 21.96875 L 33.65625 22.0625 L 35.40625 23.1875 C 35.301895 22.715152 35.136722 22.256647 34.96875 21.8125 L 34.28125 21.34375 L 34.09375 21.21875 L 34.34375 21.0625 L 34.59375 20.9375 C 34.47681 20.70048 34.353353 20.475668 34.21875 20.25 L 33.40625 20.65625 L 33.3125 20.71875 L 33.25 20.65625 L 32.4375 20.125 L 32.375 20.09375 L 32.375 20.03125 L 32.5 18.09375 C 32.328903 17.932838 32.150874 17.773206 31.96875 17.625 z "
     id="path3909" />
</svg>
