<?xml version="1.0" encoding="UTF-8" standalone="no"?>
<!-- Created with Inkscape (http://www.inkscape.org/) -->

<svg
   xmlns:dc="http://purl.org/dc/elements/1.1/"
   xmlns:cc="http://creativecommons.org/ns#"
   xmlns:rdf="http://www.w3.org/1999/02/22-rdf-syntax-ns#"
   xmlns:svg="http://www.w3.org/2000/svg"
   xmlns="http://www.w3.org/2000/svg"
   xmlns:sodipodi="http://sodipodi.sourceforge.net/DTD/sodipodi-0.dtd"
   xmlns:inkscape="http://www.inkscape.org/namespaces/inkscape"
   id="svg2985"
   version="1.1"
   inkscape:version="0.48.2 r9819"
   width="90"
   height="90"
   sodipodi:docname="Great Ball.svg">
  <metadata
     id="metadata2991">
    <rdf:RDF>
      <cc:Work
         rdf:about="">
        <dc:format>image/svg+xml</dc:format>
        <dc:type
           rdf:resource="http://purl.org/dc/dcmitype/StillImage" />
        <dc:title />
      </cc:Work>
    </rdf:RDF>
  </metadata>
  <defs
     id="defs2989" />
  <sodipodi:namedview
     pagecolor="#ffffff"
     bordercolor="#666666"
     borderopacity="1"
     objecttolerance="10"
     gridtolerance="10"
     guidetolerance="10"
     inkscape:pageopacity="0"
     inkscape:pageshadow="2"
     inkscape:window-width="1366"
     inkscape:window-height="706"
     id="namedview2987"
     showgrid="false"
     inkscape:zoom="5.7444444"
     inkscape:cx="45"
     inkscape:cy="45"
     inkscape:window-x="-8"
     inkscape:window-y="-8"
     inkscape:window-maximized="1"
     inkscape:current-layer="svg2985" />
  <path
     style="opacity:1;fill:#231815;fill-opacity:1;fill-rule:nonzero;stroke:none"
     d="M 45,0 C 20.147186,0 0,20.147186 0,45 0,69.852814 20.147186,90 45,90 69.852814,90 90,69.852814 90,45 90,20.147186 69.852814,0 45,0 z"
     id="path3129" />
  <path
     style="fill:#ffffff;fill-opacity:1;fill-rule:nonzero;stroke:none"
     d="M 31.53125 53.375 C 26.314701 53.375 22.09375 57.595951 22.09375 62.8125 C 22.09375 68.029049 26.314701 72.25 31.53125 72.25 C 36.747799 72.25 41 68.029049 41 62.8125 C 41 57.595951 36.747799 53.375 31.53125 53.375 z M 31.53125 56.53125 C 34.997607 56.53125 37.8125 59.346143 37.8125 62.8125 C 37.8125 66.278857 34.997607 69.09375 31.53125 69.09375 C 28.064893 69.09375 25.28125 66.278857 25.28125 62.8125 C 25.28125 59.346143 28.064893 56.53125 31.53125 56.53125 z M 31.53125 58.5625 C 29.177811 58.5625 27.28125 60.459061 27.28125 62.8125 C 27.28125 65.165939 29.177811 67.0625 31.53125 67.0625 C 33.884689 67.0625 35.8125 65.165939 35.8125 62.8125 C 35.8125 60.459061 33.884689 58.5625 31.53125 58.5625 z "
     id="path3002" />
  <path
     style="fill:#1e51a2;fill-opacity:1;fill-rule:nonzero;stroke:none;opacity:1"
     d="M 45,3.28125 C 21.954493,3.28125 3.28125,21.954493 3.28125,45 c 0,1.920024 0.1240372,3.805194 0.375,5.65625 4.8388659,2.714709 10.007239,4.788348 15.25,6.34375 2.203885,-4.774788 7.020901,-8.09375 12.625,-8.09375 6.978813,0 12.748854,5.143748 13.75,11.84375 14.166068,-0.0085 28.558525,-2.925184 41.0625,-10.15625 0.245463,-1.831175 0.375,-3.695233 0.375,-5.59375 C 86.71875,21.954493 68.045507,3.28125 45,3.28125 z"
     id="path3043" />
  <path
     style="opacity:1;fill:#3b82c4;fill-opacity:1;fill-rule:nonzero;stroke:none"
     d="m 45,3.28125 c -22.028839,0 -40.0454728,17.054018 -41.59375,38.6875 4.349783,5.314512 10.54002,9.421846 17.78125,11.59375 2.547669,-2.852082 6.218555,-4.65625 10.34375,-4.65625 4.434105,0 8.389952,2.081199 10.9375,5.3125 C 58.004772,50.639659 69.4375,38.38008 69.4375,23.8125 69.4375,18.127809 67.703624,12.787374 64.65625,8.1875 58.79795,5.0518025 52.111039,3.28125 45,3.28125 z"
     id="path3057" />
  <path
     sodipodi:type="arc"
     style="fill:#ffffff;fill-opacity:1;fill-rule:nonzero;stroke:none"
     id="path3066"
     sodipodi:cx="25.088533"
     sodipodi:cy="25.097055"
     sodipodi:rx="9.0900478"
     sodipodi:ry="9.0900478"
     d="m 34.178581,25.097055 a 9.0900478,9.0900478 0 1 1 -18.180095,0 9.0900478,9.0900478 0 1 1 18.180095,0 z"
     transform="matrix(1.07,0,0,1.09,3.061907,-1.9860337)" />
  <path
     style="fill:#a5a3c3;fill-opacity:1;fill-rule:nonzero;stroke:none"
     d="m 83.03125,62.15625 c -10.353102,4.305344 -21.490381,6.478741 -32.1875,7.21875 -2.334967,0.09504 -4.698034,0.101949 -7.0625,0.0625 -2.355854,4.336732 -6.967659,7.28125 -12.25,7.28125 -6.599635,0 -12.103546,-4.584461 -13.53125,-10.75 -3.7418,-1.016892 -7.414607,-2.271994 -11,-3.78125 6.548237,14.467136 21.083311,24.53125 38,24.53125 16.9314,0 31.491271,-10.075119 38.03125,-24.5625 z"
     id="path3120" />
  <path
     style="fill:#d1c3e0;fill-opacity:1;fill-rule:nonzero;stroke:none;opacity:1"
     d="m 7,62.1875 c 2.2149254,4.893474 5.326785,9.270962 9.15625,12.9375 7.252091,5.876934 16.499354,9.40625 26.5625,9.40625 15.514343,0 29.049331,-8.36675 36.375,-20.84375 -9.205452,3.303877 -18.899452,5.040645 -28.25,5.6875 -2.334967,0.09504 -4.698034,0.101949 -7.0625,0.0625 -2.355854,4.336732 -6.967659,7.28125 -12.25,7.28125 -6.599635,0 -12.103546,-4.584461 -13.53125,-10.75 C 14.2582,64.951858 10.585393,63.696756 7,62.1875 z"
     id="path3108" />
  <path
     style="fill:#ffffff;fill-opacity:1;fill-rule:nonzero;stroke:none"
     d="M 14.59375 65.5 C 14.179383 65.521732 13.839625 65.632418 13.5625 65.84375 C 12.084498 66.970853 13.38824 70.505789 16.46875 73.71875 C 19.54926 76.931711 23.240748 78.595853 24.71875 77.46875 C 25.301257 77.024539 25.438015 76.209482 25.21875 75.1875 C 21.836051 73.455053 19.259917 70.403856 18.1875 66.6875 C 16.83576 65.885048 15.545926 65.450061 14.59375 65.5 z "
     id="path3072" />
  <path
     style="fill:#000022;stroke:none;stroke-width:1px;stroke-linecap:butt;stroke-linejoin:miter;stroke-opacity:1;fill-opacity:1"
     d="m 59.709865,49.961315 c 0,0 -0.348163,3.655706 1.914893,3.655706 2.263056,0 10.270793,-1.740812 18.104449,-12.533849 7.833656,-10.793037 9.052224,-12.70793 8.529981,-15.667311 C 87.736944,22.45648 87.040619,17.408124 80.773694,12.011605 74.50677,6.615087 73.462282,5.5705996 71.199226,6.0928433 68.93617,6.615087 66.847195,8.3558994 69.284333,12.185687 c 2.437137,3.829787 30.464216,7.833655 -9.574468,37.775628 z"
     id="path3807"
     inkscape:connector-curvature="0" />
  <path
     style="fill:#014099;stroke:none;stroke-width:1px;stroke-linecap:butt;stroke-linejoin:miter;stroke-opacity:1;fill-opacity:1"
     d="M 78.5625 31.78125 C 75.636045 36.458298 69.871961 42.375914 59.71875 49.96875 C 59.71875 49.96875 59.361944 53.625 61.625 53.625 C 63.888056 53.625 71.885094 51.886787 79.71875 41.09375 C 80.573363 39.916283 81.07777 39.19777 81.78125 38.21875 C 81.204269 36.08121 80.152096 33.592337 78.5625 31.78125 z "
     id="path3809" />
  <path
     style="fill:#b02d2e;stroke:none;stroke-width:1px;stroke-linecap:butt;stroke-linejoin:miter;stroke-opacity:1;fill-opacity:1"
     d="m 73.11412,10.096712 c 0,0 10.793037,9.574468 10.967118,14.970986 0.174081,5.396519 -7.659574,13.926499 -10.618955,17.234043 -2.646951,2.958358 -10.618956,7.659574 -10.618956,7.659574 l -5.5706,-8.704062 c 0,0 12.445362,-14.076094 15.145068,-23.675048 1.566731,-5.5706 0.696325,-7.485493 0.696325,-7.485493 z"
     id="path3008"
     inkscape:connector-curvature="0"
     sodipodi:nodetypes="cssccsc" />
  <path
     style="fill:#000022;stroke:none;stroke-width:1px;stroke-linecap:butt;stroke-linejoin:miter;stroke-opacity:1;fill-opacity:1"
     d="m 24.719536,5.5705996 c 0,3.4816248 -4.17795,3.4816248 -4.874275,8.0077374 -0.348163,2.263056 -0.696325,8.181818 0.06528,13.730657 0.761605,5.54884 2.632978,10.727757 1.849613,12.903772 -1.566731,4.352031 -6.441006,7.485493 -8.878143,7.485493 -2.437138,0 -7.4854936,-4.874274 -10.4448747,-11.31528 C -0.52224371,29.941973 0.52224371,21.411992 4.8742747,16.189555 9.2263056,10.967118 19.845261,-2.0889749 24.719536,5.5705996 z"
     id="path3814"
     inkscape:connector-curvature="0"
     sodipodi:nodetypes="cssssssc" />
  <path
     style="fill:#014099;stroke:none;stroke-width:1px;stroke-linecap:butt;stroke-linejoin:miter;stroke-opacity:1;fill-opacity:1"
     d="M 14.4375 12.71875 L 10.96875 34.28125 L 4.6875 40.4375 C 7.5265534 44.75939 10.984546 47.6875 12.875 47.6875 C 15.312137 47.6875 20.183269 44.570781 21.75 40.21875 C 22.533365 38.042735 20.667855 32.86134 19.90625 27.3125 C 19.221768 22.325556 19.447321 17.193447 19.75 14.53125 L 14.4375 12.71875 z "
     id="path3816" />
  <path
     style="fill:#e94646;stroke:none;stroke-width:1px;stroke-linecap:butt;stroke-linejoin:miter;stroke-opacity:1;fill-opacity:1"
     d="M 15.875 15.5625 L 4.875 25.40625 C 4.4478434 28.41908 5.0895693 31.19856 5.90625 34.125 C 5.9153797 34.157715 5.9282712 34.186201 5.9375 34.21875 C 7.3072608 32.200313 9.1652861 29.971363 10.78125 29.78125 C 11.983193 29.639845 14.095296 29.717378 16.15625 29.90625 C 15.983835 28.700807 15.803884 27.310705 15.65625 25.75 C 15.255604 21.514596 15.449217 18.178012 15.875 15.5625 z "
     id="path3778" />
  <path
     style="fill:#f4a7a4;stroke:none;stroke-width:1px;stroke-linecap:butt;stroke-linejoin:miter;stroke-opacity:1;fill-opacity:1"
     d="M 18.625,8 C 8.8707453,15.421716 5.5404606,20.712609 4.875,25.40625 l 11,-9.84375 C 16.744238,10.222914 18.625,8 18.625,8 z"
     id="path3790" />
  <path
     style="fill:#b02d2e;stroke:none;stroke-width:1px;stroke-linecap:butt;stroke-linejoin:miter;stroke-opacity:1;fill-opacity:1"
     d="m 12.125,29.71875 c -0.511704,0 -0.973827,0.01898 -1.34375,0.0625 C 9.1652861,29.971363 7.3072608,32.200313 5.9375,34.21875 8.0399305,41.633677 12.71875,44.75 12.71875,44.75 l 6.4375,-6.09375 c 0,0 -1.749308,-0.0058 -3,-8.75 -1.426653,-0.130743 -2.880339,-0.1875 -4.03125,-0.1875 z"
     id="path3782" />
  <path
     style="fill:#e94646;fill-opacity:1;stroke:none"
     d="m 71.71875,9.5625 c -1.218569,0 -2.4375,1.9375 -2.4375,1.9375 0,0 1.557544,0.170938 -1.75,8.875 C 64.223707,29.079062 53.4375,40.75 53.4375,40.75 L 59.53125,51.6875 62.830331,49.861581 57.28125,41.25 c 0,0 12.425294,-14.057296 15.125,-23.65625 1.175048,-4.17795 0.983861,-6.325314 0.8125,-7.125 -0.516925,-0.505288 -1.069824,-0.90625 -1.5,-0.90625 z"
     id="path3792"
     inkscape:connector-curvature="0"
     sodipodi:nodetypes="scsccccscs" />
  <path
     style="fill:#f4a7a4;fill-opacity:1;stroke:none"
     d="M 69,16.03125 C 68.675757,17.181165 68.222128,18.556901 67.53125,20.375 64.223707,29.079062 53.4375,40.75 53.4375,40.75 l 3.84375,0.5 c 0,0 12.425294,-14.057296 15.125,-23.65625 z"
     id="path3794"
     inkscape:connector-curvature="0"
     sodipodi:nodetypes="cscccc" />
</svg>
