<?xml version="1.0" encoding="UTF-8" standalone="no"?>
<!-- Created with Inkscape (http://www.inkscape.org/) -->

<svg
   xmlns:dc="http://purl.org/dc/elements/1.1/"
   xmlns:cc="http://creativecommons.org/ns#"
   xmlns:rdf="http://www.w3.org/1999/02/22-rdf-syntax-ns#"
   xmlns:svg="http://www.w3.org/2000/svg"
   xmlns="http://www.w3.org/2000/svg"
   xmlns:sodipodi="http://sodipodi.sourceforge.net/DTD/sodipodi-0.dtd"
   xmlns:inkscape="http://www.inkscape.org/namespaces/inkscape"
   id="svg2985"
   version="1.1"
   inkscape:version="0.48.2 r9819"
   width="90"
   height="90"
   sodipodi:docname="Custom Poke Ball.svg">
  <metadata
     id="metadata2991">
    <rdf:RDF>
      <cc:Work
         rdf:about="">
        <dc:format>image/svg+xml</dc:format>
        <dc:type
           rdf:resource="http://purl.org/dc/dcmitype/StillImage" />
        <dc:title></dc:title>
      </cc:Work>
    </rdf:RDF>
  </metadata>
  <defs
     id="defs2989" />
  <sodipodi:namedview
     pagecolor="#ffffff"
     bordercolor="#666666"
     borderopacity="1"
     objecttolerance="10"
     gridtolerance="10"
     guidetolerance="10"
     inkscape:pageopacity="0"
     inkscape:pageshadow="2"
     inkscape:window-width="1366"
     inkscape:window-height="706"
     id="namedview2987"
     showgrid="false"
     inkscape:zoom="5.7444444"
     inkscape:cx="45"
     inkscape:cy="45"
     inkscape:window-x="-8"
     inkscape:window-y="-8"
     inkscape:window-maximized="1"
     inkscape:current-layer="svg2985" />
  <path
     style="opacity:1;fill:#231815;fill-opacity:1;fill-rule:nonzero;stroke:none"
     d="M 45,0 C 20.147186,0 0,20.147186 0,45 0,69.852814 20.147186,90 45,90 69.852814,90 90,69.852814 90,45 90,20.147186 69.852814,0 45,0 z"
     id="path3129" />
  <path
     id="path4279"
     d="M 45,3.3075435 C 21.973891,3.3075435 3.3075435,21.973891 3.3075435,45 3.3075435,68.026109 21.973891,86.692457 45,86.692457 68.026109,86.692457 86.692457,68.026109 86.692457,45 86.692457,21.973891 68.026109,3.3075435 45,3.3075435 z"
     style="fill:#5086bf;fill-opacity:1;fill-rule:nonzero;stroke:none"
     inkscape:connector-curvature="0" />
  <path
     style="fill:#7d98cd;stroke:none;stroke-width:1px;stroke-linecap:butt;stroke-linejoin:miter;stroke-opacity:1;fill-opacity:1"
     d="m 25.241779,18.626692 c 5.222438,4.003869 -17.1378893,12.750589 -14.970986,38.994198 1.566731,18.974855 22.630561,26.982592 22.630561,26.982592 0,0 21.047448,-2.614255 26.286267,-24.545455 C 63.836243,40.597559 38.929381,27.358351 41.953578,23.326886 z"
     id="path4291"
     inkscape:connector-curvature="0"
     sodipodi:nodetypes="cscscc" />
  <path
     style="fill:#d72e8b;fill-opacity:1;fill-rule:nonzero;stroke:none;opacity:1"
     d="M 45,3.28125 C 21.954493,3.28125 3.28125,21.954493 3.28125,45 c 0,1.920024 0.1240372,3.805194 0.375,5.65625 4.8388659,2.714709 10.007239,4.788348 15.25,6.34375 2.203885,-4.774788 7.020901,-8.09375 12.625,-8.09375 6.978813,0 12.748854,5.143748 13.75,11.84375 14.166068,-0.0085 28.558525,-2.925184 41.0625,-10.15625 0.245463,-1.831175 0.375,-3.695233 0.375,-5.59375 C 86.71875,21.954493 68.045507,3.28125 45,3.28125 z"
     id="path3043" />
  <path
     style="opacity:1;fill:#e95098;fill-opacity:1;fill-rule:nonzero;stroke:none"
     d="m 45,3.28125 c -22.028839,0 -40.0454728,17.054018 -41.59375,38.6875 4.349783,5.314512 10.54002,9.421846 17.78125,11.59375 2.547669,-2.852082 6.218555,-4.65625 10.34375,-4.65625 4.434105,0 8.389952,2.081199 10.9375,5.3125 C 58.004772,50.639659 69.4375,38.38008 69.4375,23.8125 69.4375,18.127809 67.703624,12.787374 64.65625,8.1875 58.79795,5.0518025 52.111039,3.28125 45,3.28125 z"
     id="path3057" />
  <path
     style="fill:#e95098;fill-opacity:1;fill-rule:nonzero;stroke:none"
     d="m 83.03125,62.15625 c -10.353102,4.305344 -21.490381,6.478741 -32.1875,7.21875 -2.334967,0.09504 -4.698034,0.101949 -7.0625,0.0625 -2.355854,4.336732 -6.967659,7.28125 -12.25,7.28125 -6.599635,0 -12.103546,-4.584461 -13.53125,-10.75 -3.7418,-1.016892 -7.414607,-2.271994 -11,-3.78125 6.548237,14.467136 21.083311,24.53125 38,24.53125 16.9314,0 31.491271,-10.075119 38.03125,-24.5625 z"
     id="path3120" />
  <path
     style="fill:#d72e8b;fill-opacity:1;fill-rule:nonzero;stroke:none;opacity:1"
     d="m 7,62.1875 c 2.2149254,4.893474 5.326785,9.270962 9.15625,12.9375 7.252091,5.876934 16.499354,9.40625 26.5625,9.40625 15.514343,0 29.049331,-8.36675 36.375,-20.84375 -9.205452,3.303877 -18.899452,5.040645 -28.25,5.6875 -2.334967,0.09504 -4.698034,0.101949 -7.0625,0.0625 -2.355854,4.336732 -6.967659,7.28125 -12.25,7.28125 -6.599635,0 -12.103546,-4.584461 -13.53125,-10.75 C 14.2582,64.951858 10.585393,63.696756 7,62.1875 z"
     id="path3108" />
  <path
     style="fill:#231815;fill-opacity:1;fill-rule:nonzero;stroke:none;opacity:1"
     d="M 31.53125 53.375 C 26.314701 53.375 22.09375 57.595951 22.09375 62.8125 C 22.09375 68.029049 26.314701 72.25 31.53125 72.25 C 36.747799 72.25 41 68.029049 41 62.8125 C 41 57.595951 36.747799 53.375 31.53125 53.375 z M 31.53125 54.59375 C 36.075352 54.59375 39.78125 58.268398 39.78125 62.8125 C 39.78125 67.356602 36.075352 71.03125 31.53125 71.03125 C 26.987148 71.03125 23.3125 67.356602 23.3125 62.8125 C 23.3125 58.268398 26.987148 54.59375 31.53125 54.59375 z M 31.53125 56.53125 C 28.064893 56.53125 25.28125 59.346143 25.28125 62.8125 C 25.28125 66.278857 28.064893 69.09375 31.53125 69.09375 C 34.997607 69.09375 37.8125 66.278857 37.8125 62.8125 C 37.8125 59.346143 34.997607 56.53125 31.53125 56.53125 z M 31.53125 58.5625 C 33.884689 58.5625 35.8125 60.459061 35.8125 62.8125 C 35.8125 65.165939 33.884689 67.0625 31.53125 67.0625 C 29.177811 67.0625 27.28125 65.165939 27.28125 62.8125 C 27.28125 60.459061 29.177811 58.5625 31.53125 58.5625 z "
     id="path3002" />
  <path
     style="fill:#f8c4a2;stroke:none;stroke-width:1px;stroke-linecap:butt;stroke-linejoin:miter;stroke-opacity:1;fill-opacity:1"
     d="M 69.90625 11.53125 C 74.330197 18.509738 82.430341 32.732156 83.5625 45.4375 C 83.775222 47.824709 83.788567 50.005959 83.6875 52.03125 C 84.576178 51.568912 85.472686 51.097487 86.34375 50.59375 C 86.589213 48.762575 86.71875 46.898517 86.71875 45 C 86.71875 31.292081 80.110135 19.135576 69.90625 11.53125 z M 23.25 18.125 C 19.748885 18.226271 13.544342 21.692446 7.46875 26.78125 C 4.7941328 32.28503 3.28125 38.468092 3.28125 45 C 3.28125 46.920024 3.4052872 48.805194 3.65625 50.65625 C 5.7570903 51.834867 7.9208171 52.865507 10.125 53.8125 C 10.283276 30.527313 30.209993 22.427661 25.25 18.625 C 24.760397 18.249637 24.078692 18.10103 23.25 18.125 z M 47.5625 20.46875 C 45.327354 20.527075 43.393967 21.412586 41.96875 23.3125 C 38.960878 27.322203 63.557828 40.461473 59.25 59.75 C 64.637654 58.957089 69.961652 57.670234 75.09375 55.8125 C 74.817095 52.310634 74.066927 48.314049 72.40625 44.03125 C 67.238213 30.703155 55.545163 20.260447 47.5625 20.46875 z "
     id="path4857" />
  <path
     style="fill:#fef4d6;stroke:none;stroke-width:1px;stroke-linecap:butt;stroke-linejoin:miter;stroke-opacity:1;fill-opacity:1"
     d="m 23.25,18.125 c -3.494536,0.101081 -9.685388,3.551872 -15.75,8.625 -2.2687707,4.657659 -3.7049278,9.785886 -4.09375,15.21875 2.0018177,2.445797 4.4205365,4.605283 7.125,6.46875 C 13.343919,29.225976 29.8093,22.120463 25.25,18.625 c -0.489603,-0.375363 -1.171308,-0.52397 -2,-0.5 z"
     id="path4316" />
  <path
     style="fill:#fef4d6;stroke:none;stroke-width:1px;stroke-linecap:butt;stroke-linejoin:miter;stroke-opacity:1;fill-opacity:1"
     d="m 47.5625,20.46875 c -2.235146,0.05832 -4.168533,0.943836 -5.59375,2.84375 -2.268148,3.023599 11.160342,11.252613 16.0625,23.375 4.108594,-3.35743 7.299,-7.523858 9.25,-12.21875 -5.833248,-8.411267 -13.791905,-14.154658 -19.71875,-14 z"
     id="path4293" />
  <path
     sodipodi:type="arc"
     style="opacity:1;fill:#ffffff;fill-opacity:1;fill-rule:nonzero;stroke:none"
     id="path3066"
     sodipodi:cx="25.088533"
     sodipodi:cy="25.097055"
     sodipodi:rx="9.0900478"
     sodipodi:ry="9.0900478"
     d="m 34.178581,25.097055 a 9.0900478,9.0900478 0 1 1 -18.180095,0 9.0900478,9.0900478 0 1 1 18.180095,0 z"
     transform="matrix(1.07,0,0,1.09,-0.93809303,-1.9860337)" />
  <path
     style="fill:#f8c4a2;stroke:none;stroke-width:1px;stroke-linecap:butt;stroke-linejoin:miter;stroke-opacity:1;fill-opacity:1"
     d="M 83.03125 62.15625 C 82.518981 62.369277 82.01596 62.578577 81.5 62.78125 C 79.352015 68.063545 76.27507 70.36423 75.1875 69.96875 C 74.457505 69.703297 74.68551 67.929515 74.9375 65.0625 C 68.616283 66.992925 62.147177 68.231905 55.75 68.9375 C 47.93004 82.746615 32.90625 84.59375 32.90625 84.59375 C 32.90625 84.59375 16.563254 78.379306 11.59375 63.9375 C 10.050707 63.389842 8.5132838 62.82451 7 62.1875 C 13.548237 76.654636 28.083311 86.71875 45 86.71875 C 61.9314 86.71875 76.491271 76.643631 83.03125 62.15625 z "
     id="path4846" />
</svg>
