<?xml version="1.0" encoding="UTF-8" standalone="no"?>
<!-- Created with Inkscape (http://www.inkscape.org/) -->

<svg
   xmlns:dc="http://purl.org/dc/elements/1.1/"
   xmlns:cc="http://creativecommons.org/ns#"
   xmlns:rdf="http://www.w3.org/1999/02/22-rdf-syntax-ns#"
   xmlns:svg="http://www.w3.org/2000/svg"
   xmlns="http://www.w3.org/2000/svg"
   xmlns:sodipodi="http://sodipodi.sourceforge.net/DTD/sodipodi-0.dtd"
   xmlns:inkscape="http://www.inkscape.org/namespaces/inkscape"
   id="svg2985"
   version="1.1"
   inkscape:version="0.48.2 r9819"
   width="90"
   height="90"
   sodipodi:docname="Custom Poke Ball.svg">
  <metadata
     id="metadata2991">
    <rdf:RDF>
      <cc:Work
         rdf:about="">
        <dc:format>image/svg+xml</dc:format>
        <dc:type
           rdf:resource="http://purl.org/dc/dcmitype/StillImage" />
        <dc:title></dc:title>
      </cc:Work>
    </rdf:RDF>
  </metadata>
  <defs
     id="defs2989" />
  <sodipodi:namedview
     pagecolor="#ffffff"
     bordercolor="#666666"
     borderopacity="1"
     objecttolerance="10"
     gridtolerance="10"
     guidetolerance="10"
     inkscape:pageopacity="0"
     inkscape:pageshadow="2"
     inkscape:window-width="1366"
     inkscape:window-height="706"
     id="namedview2987"
     showgrid="false"
     inkscape:zoom="5.7444444"
     inkscape:cx="45"
     inkscape:cy="45"
     inkscape:window-x="-8"
     inkscape:window-y="-8"
     inkscape:window-maximized="1"
     inkscape:current-layer="svg2985" />
  <path
     sodipodi:nodetypes="sssss"
     inkscape:connector-curvature="0"
     id="path3824"
     d="m 16.766399,16.495398 c 4.313075,6.725927 0.787732,15.339913 -5.518395,17.947421 -3.1591487,1.30627 -5.7067515,1.035803 -8.1608435,-1.65625 -4.481473,-4.91602 -3.73402396,-13.085764 0,-16.352756 4.995965,-4.371096 11.2878205,-3.667657 13.6792385,0.06159 z"
     style="fill:#356bb3;fill-opacity:1;fill-rule:nonzero;stroke:none" />
  <path
     sodipodi:nodetypes="sssss"
     inkscape:connector-curvature="0"
     id="path3826"
     d="m 16.953814,17.048676 c 2.554945,2.129654 1.919717,7.798178 0,12.099124 -2.353289,5.272322 -9.7120257,8.063779 -12.9871767,3.829787 -3.59000399,-4.641022 -4.12941795,-11.796901 1e-6,-15.928911 4.398225,-4.400987 9.4664347,-2.934686 12.9871757,0 z"
     style="fill:#5997d1;fill-opacity:1;fill-rule:nonzero;stroke:none" />
  <path
     transform="matrix(-1.2272727,0,0,1.2272727,99.33019,-16.339552)"
     d="m 79.03288,30.029013 a 3.0464218,3.2205029 0 1 1 -6.092844,0 3.0464218,3.2205029 0 1 1 6.092844,0 z"
     sodipodi:ry="3.2205029"
     sodipodi:rx="3.0464218"
     sodipodi:cy="30.029013"
     sodipodi:cx="75.986458"
     id="path3828"
     style="fill:#81c7ef;fill-opacity:1;fill-rule:nonzero;stroke:none"
     sodipodi:type="arc" />
  <path
     style="opacity:1;fill:#231815;fill-opacity:1;fill-rule:nonzero;stroke:none"
     d="M 45,0 C 20.147186,0 0,20.147186 0,45 0,69.852814 20.147186,90 45,90 69.852814,90 90,69.852814 90,45 90,20.147186 69.852814,0 45,0 z"
     id="path3129" />
  <path
     style="fill:#ffffff;fill-opacity:1;fill-rule:nonzero;stroke:none"
     d="M 31.53125 53.375 C 26.314701 53.375 22.09375 57.595951 22.09375 62.8125 C 22.09375 68.029049 26.314701 72.25 31.53125 72.25 C 36.747799 72.25 41 68.029049 41 62.8125 C 41 57.595951 36.747799 53.375 31.53125 53.375 z M 31.53125 56.53125 C 34.997607 56.53125 37.8125 59.346143 37.8125 62.8125 C 37.8125 66.278857 34.997607 69.09375 31.53125 69.09375 C 28.064893 69.09375 25.28125 66.278857 25.28125 62.8125 C 25.28125 59.346143 28.064893 56.53125 31.53125 56.53125 z M 31.53125 58.5625 C 29.177811 58.5625 27.28125 60.459061 27.28125 62.8125 C 27.28125 65.165939 29.177811 67.0625 31.53125 67.0625 C 33.884689 67.0625 35.8125 65.165939 35.8125 62.8125 C 35.8125 60.459061 33.884689 58.5625 31.53125 58.5625 z "
     id="path3002" />
  <path
     style="fill:#44494d;fill-opacity:1;fill-rule:nonzero;stroke:none;opacity:1"
     d="M 45,3.28125 C 21.954493,3.28125 3.28125,21.954493 3.28125,45 c 0,1.920024 0.1240372,3.805194 0.375,5.65625 4.8388659,2.714709 10.007239,4.788348 15.25,6.34375 2.203885,-4.774788 7.020901,-8.09375 12.625,-8.09375 6.978813,0 12.748854,5.143748 13.75,11.84375 14.166068,-0.0085 28.558525,-2.925184 41.0625,-10.15625 0.245463,-1.831175 0.375,-3.695233 0.375,-5.59375 C 86.71875,21.954493 68.045507,3.28125 45,3.28125 z"
     id="path3043" />
  <path
     style="opacity:1;fill:#626872;fill-opacity:1;fill-rule:nonzero;stroke:none"
     d="m 45,3.28125 c -22.028839,0 -40.0454728,17.054018 -41.59375,38.6875 4.349783,5.314512 10.54002,9.421846 17.78125,11.59375 2.547669,-2.852082 6.218555,-4.65625 10.34375,-4.65625 4.434105,0 8.389952,2.081199 10.9375,5.3125 C 58.004772,50.639659 69.4375,38.38008 69.4375,23.8125 69.4375,18.127809 67.703624,12.787374 64.65625,8.1875 58.79795,5.0518025 52.111039,3.28125 45,3.28125 z"
     id="path3057" />
  <path
     sodipodi:type="arc"
     style="opacity:1;fill:#ffffff;fill-opacity:1;fill-rule:nonzero;stroke:none"
     id="path3066"
     sodipodi:cx="25.088533"
     sodipodi:cy="25.097055"
     sodipodi:rx="9.0900478"
     sodipodi:ry="9.0900478"
     d="m 34.178581,25.097055 a 9.0900478,9.0900478 0 1 1 -18.180095,0 9.0900478,9.0900478 0 1 1 18.180095,0 z"
     transform="matrix(1.07,0,0,1.09,-0.93809303,-1.9860337)" />
  <path
     style="fill:#a5a3c3;fill-opacity:1;fill-rule:nonzero;stroke:none"
     d="m 83.03125,62.15625 c -10.353102,4.305344 -21.490381,6.478741 -32.1875,7.21875 -2.334967,0.09504 -4.698034,0.101949 -7.0625,0.0625 -2.355854,4.336732 -6.967659,7.28125 -12.25,7.28125 -6.599635,0 -12.103546,-4.584461 -13.53125,-10.75 -3.7418,-1.016892 -7.414607,-2.271994 -11,-3.78125 6.548237,14.467136 21.083311,24.53125 38,24.53125 16.9314,0 31.491271,-10.075119 38.03125,-24.5625 z"
     id="path3120" />
  <path
     style="fill:#d1c3e0;fill-opacity:1;fill-rule:nonzero;stroke:none;opacity:1"
     d="m 7,62.1875 c 2.2149254,4.893474 5.326785,9.270962 9.15625,12.9375 7.252091,5.876934 16.499354,9.40625 26.5625,9.40625 15.514343,0 29.049331,-8.36675 36.375,-20.84375 -9.205452,3.303877 -18.899452,5.040645 -28.25,5.6875 -2.334967,0.09504 -4.698034,0.101949 -7.0625,0.0625 -2.355854,4.336732 -6.967659,7.28125 -12.25,7.28125 -6.599635,0 -12.103546,-4.584461 -13.53125,-10.75 C 14.2582,64.951858 10.585393,63.696756 7,62.1875 z"
     id="path3108" />
  <path
     style="fill:#ffffff;fill-opacity:1;fill-rule:nonzero;stroke:none"
     d="M 14.59375 65.5 C 14.179383 65.521732 13.839625 65.632418 13.5625 65.84375 C 12.084498 66.970853 13.38824 70.505789 16.46875 73.71875 C 19.54926 76.931711 23.240748 78.595853 24.71875 77.46875 C 25.301257 77.024539 25.438015 76.209482 25.21875 75.1875 C 21.836051 73.455053 19.259917 70.403856 18.1875 66.6875 C 16.83576 65.885048 15.545926 65.450061 14.59375 65.5 z "
     id="path3072" />
  <path
     style="fill:#356bb3;fill-opacity:1;fill-rule:nonzero;stroke:none"
     d="m 72.363194,22.240079 c -4.313075,6.725927 -0.787732,15.339913 5.518395,17.947421 3.159149,1.30627 6.577158,1.035803 9.03125,-1.65625 4.481473,-4.91602 3.734024,-13.608008 0,-16.875 -4.995965,-4.371096 -12.158227,-3.145413 -14.549645,0.583829 z"
     id="path3800"
     inkscape:connector-curvature="0"
     sodipodi:nodetypes="sssss" />
  <path
     style="fill:#5997d1;fill-opacity:1;fill-rule:nonzero;stroke:none"
     d="m 72.175779,22.793357 c -2.554945,2.129654 -1.919717,7.798178 0,12.099124 2.353289,5.272322 9.712026,8.063779 12.987177,3.829787 3.590004,-4.641022 4.129418,-11.796901 -10e-7,-15.928911 -4.398225,-4.400987 -9.466435,-2.934686 -12.987176,0 z"
     id="path3030"
     inkscape:connector-curvature="0"
     sodipodi:nodetypes="sssss" />
  <path
     sodipodi:type="arc"
     style="fill:#81c7ef;fill-opacity:1;fill-rule:nonzero;stroke:none"
     id="path3805"
     sodipodi:cx="75.986458"
     sodipodi:cy="30.029013"
     sodipodi:rx="3.0464218"
     sodipodi:ry="3.2205029"
     d="m 79.03288,30.029013 a 3.0464218,3.2205029 0 1 1 -6.092844,0 3.0464218,3.2205029 0 1 1 6.092844,0 z"
     transform="matrix(1.2272727,0,0,1.2272727,-18.556504,-10.594871)" />
  <path
     sodipodi:type="arc"
     style="fill:#356bb3;fill-opacity:1;fill-rule:nonzero;stroke:none"
     id="path3811"
     sodipodi:cx="49.787235"
     sodipodi:cy="35.16441"
     sodipodi:rx="3.8297873"
     sodipodi:ry="3.8297873"
     d="m 53.617023,35.16441 a 3.8297873,3.8297873 0 1 1 -7.659575,0 3.8297873,3.8297873 0 1 1 7.659575,0 z"
     transform="matrix(2.2727273,0,0,2.2727273,-59.361704,-39.532266)" />
  <path
     transform="matrix(1.9545455,0,0,1.9545455,-44.738879,-28.169509)"
     d="m 53.617023,35.16441 a 3.8297873,3.8297873 0 1 1 -7.659575,0 3.8297873,3.8297873 0 1 1 7.659575,0 z"
     sodipodi:ry="3.8297873"
     sodipodi:rx="3.8297873"
     sodipodi:cy="35.16441"
     sodipodi:cx="49.787235"
     id="path3809"
     style="fill:#5997d1;fill-opacity:1;fill-rule:nonzero;stroke:none"
     sodipodi:type="arc" />
  <path
     sodipodi:type="arc"
     style="fill:#81c7ef;fill-opacity:1;fill-rule:nonzero;stroke:none"
     id="path3807"
     sodipodi:cx="49.787235"
     sodipodi:cy="35.16441"
     sodipodi:rx="3.8297873"
     sodipodi:ry="3.8297873"
     d="m 53.617023,35.16441 a 3.8297873,3.8297873 0 1 1 -7.659575,0 3.8297873,3.8297873 0 1 1 7.659575,0 z"
     transform="translate(0.69632495,3.3075435)" />
  <path
     transform="matrix(2.2727273,0,0,2.2727273,-100.27079,-40.576753)"
     d="m 53.617023,35.16441 a 3.8297873,3.8297873 0 1 1 -7.659575,0 3.8297873,3.8297873 0 1 1 7.659575,0 z"
     sodipodi:ry="3.8297873"
     sodipodi:rx="3.8297873"
     sodipodi:cy="35.16441"
     sodipodi:cx="49.787235"
     id="path3813"
     style="fill:#356bb3;fill-opacity:1;fill-rule:nonzero;stroke:none"
     sodipodi:type="arc" />
  <path
     sodipodi:type="arc"
     style="fill:#5997d1;fill-opacity:1;fill-rule:nonzero;stroke:none"
     id="path3815"
     sodipodi:cx="49.787235"
     sodipodi:cy="35.16441"
     sodipodi:rx="3.8297873"
     sodipodi:ry="3.8297873"
     d="m 53.617023,35.16441 a 3.8297873,3.8297873 0 1 1 -7.659575,0 3.8297873,3.8297873 0 1 1 7.659575,0 z"
     transform="matrix(1.9545455,0,0,1.9545455,-85.64797,-29.213996)" />
  <path
     transform="translate(-40.212766,2.2630561)"
     d="m 53.617023,35.16441 a 3.8297873,3.8297873 0 1 1 -7.659575,0 3.8297873,3.8297873 0 1 1 7.659575,0 z"
     sodipodi:ry="3.8297873"
     sodipodi:rx="3.8297873"
     sodipodi:cy="35.16441"
     sodipodi:cx="49.787235"
     id="path3817"
     style="fill:#81c7ef;fill-opacity:1;fill-rule:nonzero;stroke:none"
     sodipodi:type="arc" />
</svg>
