<?xml version="1.0" encoding="UTF-8" standalone="no"?>
<!-- Created with Inkscape (http://www.inkscape.org/) -->

<svg
   xmlns:dc="http://purl.org/dc/elements/1.1/"
   xmlns:cc="http://creativecommons.org/ns#"
   xmlns:rdf="http://www.w3.org/1999/02/22-rdf-syntax-ns#"
   xmlns:svg="http://www.w3.org/2000/svg"
   xmlns="http://www.w3.org/2000/svg"
   xmlns:sodipodi="http://sodipodi.sourceforge.net/DTD/sodipodi-0.dtd"
   xmlns:inkscape="http://www.inkscape.org/namespaces/inkscape"
   id="svg2985"
   version="1.1"
   inkscape:version="0.48.2 r9819"
   width="90"
   height="90"
   sodipodi:docname="Level Ball.svg">
  <metadata
     id="metadata2991">
    <rdf:RDF>
      <cc:Work
         rdf:about="">
        <dc:format>image/svg+xml</dc:format>
        <dc:type
           rdf:resource="http://purl.org/dc/dcmitype/StillImage" />
        <dc:title />
      </cc:Work>
    </rdf:RDF>
  </metadata>
  <defs
     id="defs2989" />
  <sodipodi:namedview
     pagecolor="#ffffff"
     bordercolor="#666666"
     borderopacity="1"
     objecttolerance="10"
     gridtolerance="10"
     guidetolerance="10"
     inkscape:pageopacity="0"
     inkscape:pageshadow="2"
     inkscape:window-width="1366"
     inkscape:window-height="706"
     id="namedview2987"
     showgrid="false"
     inkscape:zoom="5.7444444"
     inkscape:cx="45"
     inkscape:cy="45"
     inkscape:window-x="-8"
     inkscape:window-y="-8"
     inkscape:window-maximized="1"
     inkscape:current-layer="svg2985" />
  <path
     style="opacity:1;fill:#231815;fill-opacity:1;fill-rule:nonzero;stroke:none"
     d="M 45,0 C 20.147186,0 0,20.147186 0,45 0,69.852814 20.147186,90 45,90 69.852814,90 90,69.852814 90,45 90,20.147186 69.852814,0 45,0 z"
     id="path3129" />
  <path
     style="fill:#ffffff;fill-opacity:1;fill-rule:nonzero;stroke:none"
     d="M 31.53125 53.375 C 26.314701 53.375 22.09375 57.595951 22.09375 62.8125 C 22.09375 68.029049 26.314701 72.25 31.53125 72.25 C 36.747799 72.25 41 68.029049 41 62.8125 C 41 57.595951 36.747799 53.375 31.53125 53.375 z M 31.53125 56.53125 C 34.997607 56.53125 37.8125 59.346143 37.8125 62.8125 C 37.8125 66.278857 34.997607 69.09375 31.53125 69.09375 C 28.064893 69.09375 25.28125 66.278857 25.28125 62.8125 C 25.28125 59.346143 28.064893 56.53125 31.53125 56.53125 z M 31.53125 58.5625 C 29.177811 58.5625 27.28125 60.459061 27.28125 62.8125 C 27.28125 65.165939 29.177811 67.0625 31.53125 67.0625 C 33.884689 67.0625 35.8125 65.165939 35.8125 62.8125 C 35.8125 60.459061 33.884689 58.5625 31.53125 58.5625 z "
     id="path3002" />
  <path
     style="fill:#ff7f2a;fill-opacity:1;fill-rule:nonzero;stroke:none;opacity:1"
     d="M 45,3.28125 C 21.954493,3.28125 3.28125,21.954493 3.28125,45 c 0,1.920024 0.1240372,3.805194 0.375,5.65625 4.8388659,2.714709 10.007239,4.788348 15.25,6.34375 2.203885,-4.774788 7.020901,-8.09375 12.625,-8.09375 6.978813,0 12.748854,5.143748 13.75,11.84375 14.166068,-0.0085 28.558525,-2.925184 41.0625,-10.15625 0.245463,-1.831175 0.375,-3.695233 0.375,-5.59375 C 86.71875,21.954493 68.045507,3.28125 45,3.28125 z"
     id="path3043" />
  <path
     style="opacity:1;fill:#ff9955;fill-opacity:1;fill-rule:nonzero;stroke:none"
     d="m 45,3.28125 c -22.028839,0 -40.0454728,17.054018 -41.59375,38.6875 4.349783,5.314512 10.54002,9.421846 17.78125,11.59375 2.547669,-2.852082 6.218555,-4.65625 10.34375,-4.65625 4.434105,0 8.389952,2.081199 10.9375,5.3125 C 58.004772,50.639659 69.4375,38.38008 69.4375,23.8125 69.4375,18.127809 67.703624,12.787374 64.65625,8.1875 58.79795,5.0518025 52.111039,3.28125 45,3.28125 z"
     id="path3057" />
  <path
     style="fill:#a5a3c3;fill-opacity:1;fill-rule:nonzero;stroke:none"
     d="m 83.03125,62.15625 c -10.353102,4.305344 -21.490381,6.478741 -32.1875,7.21875 -2.334967,0.09504 -4.698034,0.101949 -7.0625,0.0625 -2.355854,4.336732 -6.967659,7.28125 -12.25,7.28125 -6.599635,0 -12.103546,-4.584461 -13.53125,-10.75 -3.7418,-1.016892 -7.414607,-2.271994 -11,-3.78125 6.548237,14.467136 21.083311,24.53125 38,24.53125 16.9314,0 31.491271,-10.075119 38.03125,-24.5625 z"
     id="path3120" />
  <path
     style="fill:#d1c3e0;fill-opacity:1;fill-rule:nonzero;stroke:none;opacity:1"
     d="m 7,62.1875 c 2.2149254,4.893474 5.326785,9.270962 9.15625,12.9375 7.252091,5.876934 16.499354,9.40625 26.5625,9.40625 15.514343,0 29.049331,-8.36675 36.375,-20.84375 -9.205452,3.303877 -18.899452,5.040645 -28.25,5.6875 -2.334967,0.09504 -4.698034,0.101949 -7.0625,0.0625 -2.355854,4.336732 -6.967659,7.28125 -12.25,7.28125 -6.599635,0 -12.103546,-4.584461 -13.53125,-10.75 C 14.2582,64.951858 10.585393,63.696756 7,62.1875 z"
     id="path3108" />
  <path
     style="fill:#ffffff;fill-opacity:1;fill-rule:nonzero;stroke:none"
     d="M 14.59375 65.5 C 14.179383 65.521732 13.839625 65.632418 13.5625 65.84375 C 12.084498 66.970853 13.38824 70.505789 16.46875 73.71875 C 19.54926 76.931711 23.240748 78.595853 24.71875 77.46875 C 25.301257 77.024539 25.438015 76.209482 25.21875 75.1875 C 21.836051 73.455053 19.259917 70.403856 18.1875 66.6875 C 16.83576 65.885048 15.545926 65.450061 14.59375 65.5 z "
     id="path3072" />
  <path
     style="fill:#1a1a1a;fill-opacity:1;fill-rule:nonzero;stroke:none"
     d="M 45 3.28125 C 36.932194 3.28125 29.413769 5.5677575 23.03125 9.53125 C 25.455511 18.712936 35.308903 25.59375 47.09375 25.59375 C 57.850049 25.59375 66.985904 19.855669 70.34375 11.875 C 63.317538 6.4917475 54.537889 3.28125 45 3.28125 z "
     id="path3166" />
  <path
     style="fill:#333333;fill-opacity:1;fill-rule:nonzero;stroke:none"
     d="M 45 3.28125 C 44.495762 3.28125 43.999803 3.2947855 43.5 3.3125 C 43.313721 3.3190549 43.123147 3.3347628 42.9375 3.34375 C 42.424755 3.3685721 41.913947 3.3943456 41.40625 3.4375 C 41.11247 3.4625751 40.823232 3.5001194 40.53125 3.53125 C 40.249317 3.561182 39.96772 3.589484 39.6875 3.625 C 39.480377 3.6513463 39.26865 3.6581272 39.0625 3.6875 C 39.010283 3.6949156 38.958404 3.7111414 38.90625 3.71875 C 38.391842 3.7940661 37.883063 3.8748296 37.375 3.96875 C 36.97597 4.0422512 36.58245 4.1339849 36.1875 4.21875 C 36.155202 4.2256979 36.12602 4.2429773 36.09375 4.25 C 35.729696 4.3290382 35.360428 4.3802787 35 4.46875 C 34.926195 4.4869205 34.854899 4.5126868 34.78125 4.53125 C 34.771401 4.5337257 34.759846 4.5287673 34.75 4.53125 C 34.196174 4.6709001 33.669737 4.8384558 33.125 5 C 32.915845 5.0620221 32.707766 5.1222957 32.5 5.1875 C 31.933903 5.365115 31.367886 5.5491895 30.8125 5.75 C 30.675576 5.7995324 30.542504 5.8553269 30.40625 5.90625 C 29.832752 6.1205872 29.280002 6.3551682 28.71875 6.59375 C 28.363076 6.7448114 28.006773 6.9019265 27.65625 7.0625 C 27.386497 7.1862103 27.11039 7.308232 26.84375 7.4375 C 26.496757 7.6055688 26.154037 7.7914267 25.8125 7.96875 C 25.560007 8.099915 25.311964 8.2388479 25.0625 8.375 C 24.376037 8.7496561 23.693882 9.1197609 23.03125 9.53125 C 25.455511 18.712936 35.308903 25.59375 47.09375 25.59375 C 56.064343 25.59375 63.882693 21.579423 68.1875 15.625 C 67.375534 13.002182 66.178495 10.520884 64.65625 8.21875 C 64.652021 8.2164803 64.66048 8.1897682 64.65625 8.1875 C 64.208741 7.9479676 63.738249 7.7234198 63.28125 7.5 C 62.800405 7.2648818 62.303488 7.0294648 61.8125 6.8125 C 61.791011 6.8030181 61.771508 6.7906965 61.75 6.78125 C 61.719952 6.7680319 61.686335 6.7631492 61.65625 6.75 C 60.659905 6.3145283 59.660101 5.9205707 58.625 5.5625 C 58.144196 5.3961762 57.644855 5.242788 57.15625 5.09375 C 57.102863 5.0775401 57.053478 5.047251 57 5.03125 C 56.867971 4.9915596 56.726327 4.9759124 56.59375 4.9375 C 55.791335 4.7050118 54.977848 4.4972303 54.15625 4.3125 C 53.998841 4.2773396 53.845578 4.2208755 53.6875 4.1875 C 53.605369 4.1700492 53.51981 4.1732157 53.4375 4.15625 C 52.958166 4.0574495 52.485216 3.9571652 52 3.875 C 51.025675 3.7100103 50.027458 3.5960033 49.03125 3.5 C 48.863598 3.4839798 48.699483 3.451535 48.53125 3.4375 C 48.239601 3.4129247 47.949593 3.3935265 47.65625 3.375 C 46.781414 3.320462 45.88888 3.28125 45 3.28125 z "
     id="path3965" />
  <path
     sodipodi:type="arc"
     style="opacity:1;fill:#ffffff;fill-opacity:1;fill-rule:nonzero;stroke:none"
     id="path3066"
     sodipodi:cx="25.088533"
     sodipodi:cy="25.097055"
     sodipodi:rx="9.0900478"
     sodipodi:ry="9.0900478"
     d="m 34.178581,25.097055 a 9.0900478,9.0900478 0 1 1 -18.180095,0 9.0900478,9.0900478 0 1 1 18.180095,0 z"
     transform="matrix(1.07,0,0,1.09,-0.93809303,-1.9860337)" />
  <path
     style="fill:#ff2a2a;stroke:none"
     d="M 25.40625,12.375 36.109375,35.5 69,12.375 49.53125,12.375 38.8125,24.03125 37.71875,12.375 z"
     id="path3160"
     inkscape:connector-curvature="0"
     sodipodi:nodetypes="ccccccc" />
  <path
     style="fill:#ff8080;stroke:none;fill-opacity:1"
     d="M 26.84375 15.5 L 33.96875 30.875 C 35.008569 29.297997 35.625 27.417505 35.625 25.375 C 35.625 20.223532 31.777695 15.978427 26.84375 15.5 z "
     id="path6365" />
</svg>
