<?xml version="1.0" encoding="UTF-8" standalone="no"?>
<!-- Created with Inkscape (http://www.inkscape.org/) -->

<svg
   xmlns:dc="http://purl.org/dc/elements/1.1/"
   xmlns:cc="http://creativecommons.org/ns#"
   xmlns:rdf="http://www.w3.org/1999/02/22-rdf-syntax-ns#"
   xmlns:svg="http://www.w3.org/2000/svg"
   xmlns="http://www.w3.org/2000/svg"
   xmlns:sodipodi="http://sodipodi.sourceforge.net/DTD/sodipodi-0.dtd"
   xmlns:inkscape="http://www.inkscape.org/namespaces/inkscape"
   id="svg2985"
   version="1.1"
   inkscape:version="0.48.2 r9819"
   width="90"
   height="90"
   sodipodi:docname="Custom Poke Ball.svg">
  <metadata
     id="metadata2991">
    <rdf:RDF>
      <cc:Work
         rdf:about="">
        <dc:format>image/svg+xml</dc:format>
        <dc:type
           rdf:resource="http://purl.org/dc/dcmitype/StillImage" />
        <dc:title></dc:title>
      </cc:Work>
    </rdf:RDF>
  </metadata>
  <defs
     id="defs2989" />
  <sodipodi:namedview
     pagecolor="#ffffff"
     bordercolor="#666666"
     borderopacity="1"
     objecttolerance="10"
     gridtolerance="10"
     guidetolerance="10"
     inkscape:pageopacity="0"
     inkscape:pageshadow="2"
     inkscape:window-width="1366"
     inkscape:window-height="706"
     id="namedview2987"
     showgrid="false"
     inkscape:zoom="5.7444444"
     inkscape:cx="45"
     inkscape:cy="45"
     inkscape:window-x="-8"
     inkscape:window-y="-8"
     inkscape:window-maximized="1"
     inkscape:current-layer="svg2985" />
  <path
     style="opacity:1;fill:#231815;fill-opacity:1;fill-rule:nonzero;stroke:none"
     d="M 45,0 C 20.147186,0 0,20.147186 0,45 0,69.852814 20.147186,90 45,90 69.852814,90 90,69.852814 90,45 90,20.147186 69.852814,0 45,0 z"
     id="path3129" />
  <path
     style="fill:#94493a;fill-opacity:1;fill-rule:nonzero;stroke:none"
     d="M 31.53125 48.90625 C 25.927151 48.90625 21.110135 52.225212 18.90625 57 C 13.676727 55.448525 8.5158061 53.392126 3.6875 50.6875 C 4.2405114 54.734757 5.3720813 58.596845 7 62.1875 C 7.0017448 62.191348 7.0295041 62.183652 7.03125 62.1875 C 10.608207 63.691769 14.267455 64.954373 18 65.96875 C 19.427704 72.134289 24.931615 76.71875 31.53125 76.71875 C 36.813591 76.71875 41.425396 73.774232 43.78125 69.4375 C 46.145716 69.476949 48.508783 69.47004 50.84375 69.375 C 61.527854 68.635891 72.657591 66.482425 83 62.1875 C 84.636129 58.578736 85.76259 54.694542 86.3125 50.625 C 73.817067 57.840563 59.433462 60.741508 45.28125 60.75 C 44.280104 54.049998 38.510063 48.90625 31.53125 48.90625 z M 31.53125 54.59375 C 36.075352 54.59375 39.78125 58.268398 39.78125 62.8125 C 39.78125 67.356602 36.075352 71.03125 31.53125 71.03125 C 26.987148 71.03125 23.3125 67.356602 23.3125 62.8125 C 23.3125 58.268398 26.987148 54.59375 31.53125 54.59375 z "
     id="path6916" />
  <path
     style="fill:#d35337;stroke:none;stroke-width:1px;stroke-linecap:butt;stroke-linejoin:miter;stroke-opacity:1;fill-opacity:1"
     d="M 31.53125 48.90625 C 25.927151 48.90625 21.110135 52.225212 18.90625 57 C 18.072285 56.752582 17.237512 56.488955 16.40625 56.21875 C 13.91305 55.397749 11.445132 54.456682 9.03125 53.375 C 9.1641659 55.082234 9.321382 56.812174 9.5625 58.5 C 9.8020126 60.176589 10.128606 61.866494 10.5 63.5625 C 12.941826 64.469783 15.426458 65.252973 17.9375 65.9375 C 17.959637 65.943535 17.977857 65.962732 18 65.96875 C 19.427704 72.134289 24.931615 76.71875 31.53125 76.71875 C 36.813591 76.71875 41.425396 73.774232 43.78125 69.4375 C 46.145716 69.476949 48.508783 69.47004 50.84375 69.375 C 51.041331 69.361332 51.239736 69.327432 51.4375 69.3125 C 54.087333 69.112428 56.752985 68.820055 59.4375 68.4375 L 61.15625 59.4375 C 58.469655 59.891923 55.77504 60.221007 53.0625 60.4375 C 51.765588 60.539617 50.45342 60.603849 49.15625 60.65625 C 47.861203 60.707554 46.574186 60.749224 45.28125 60.75 C 44.280104 54.049998 38.510063 48.90625 31.53125 48.90625 z M 31.53125 54.59375 C 36.075352 54.59375 39.78125 58.268398 39.78125 62.8125 C 39.78125 67.356602 36.075352 71.03125 31.53125 71.03125 C 26.987148 71.03125 23.3125 67.356602 23.3125 62.8125 C 23.3125 60.540449 24.232075 58.486675 25.71875 57 C 25.904584 56.814166 26.1096 56.636149 26.3125 56.46875 C 27.732799 55.296956 29.543205 54.59375 31.53125 54.59375 z "
     id="path7502" />
  <path
     style="fill:#d29936;stroke:none;stroke-width:1px;stroke-linecap:butt;stroke-linejoin:miter;stroke-opacity:1;fill-opacity:1"
     d="M 31.53125 48.90625 C 25.927151 48.90625 21.110135 52.225212 18.90625 57 C 15.562648 56.008033 12.249759 54.817243 9.03125 53.375 C 9.1641659 55.082234 9.321382 56.812174 9.5625 58.5 C 9.8020126 60.176589 10.128606 61.866494 10.5 63.5625 C 12.963311 64.477766 15.466329 65.280186 18 65.96875 C 19.427704 72.134289 24.931615 76.71875 31.53125 76.71875 C 36.813591 76.71875 41.425396 73.774232 43.78125 69.4375 C 46.145716 69.476949 48.508783 69.47004 50.84375 69.375 C 51.040786 69.361369 51.240168 69.327097 51.4375 69.3125 L 53.0625 60.4375 C 50.468677 60.641735 47.872569 60.748445 45.28125 60.75 C 44.280104 54.049998 38.510063 48.90625 31.53125 48.90625 z M 31.53125 54.59375 C 36.075352 54.59375 39.78125 58.268398 39.78125 62.8125 C 39.78125 67.356602 36.075352 71.03125 31.53125 71.03125 C 26.987148 71.03125 23.3125 67.356602 23.3125 62.8125 C 23.3125 58.268398 26.987148 54.59375 31.53125 54.59375 z "
     id="path7490" />
  <path
     style="fill:#44494d;fill-opacity:1;fill-rule:nonzero;stroke:none;opacity:1"
     d="M 45,3.28125 C 21.954493,3.28125 3.28125,21.954493 3.28125,45 c 0,1.920024 0.1240372,3.805194 0.375,5.65625 4.8388659,2.714709 10.007239,4.788348 15.25,6.34375 2.203885,-4.774788 7.020901,-8.09375 12.625,-8.09375 6.978813,0 12.748854,5.143748 13.75,11.84375 14.166068,-0.0085 28.558525,-2.925184 41.0625,-10.15625 0.245463,-1.831175 0.375,-3.695233 0.375,-5.59375 C 86.71875,21.954493 68.045507,3.28125 45,3.28125 z"
     id="path3043" />
  <path
     style="opacity:1;fill:#626872;fill-opacity:1;fill-rule:nonzero;stroke:none"
     d="m 45,3.28125 c -22.028839,0 -40.0454728,17.054018 -41.59375,38.6875 4.349783,5.314512 10.54002,9.421846 17.78125,11.59375 2.547669,-2.852082 6.218555,-4.65625 10.34375,-4.65625 4.434105,0 8.389952,2.081199 10.9375,5.3125 C 58.004772,50.639659 69.4375,38.38008 69.4375,23.8125 69.4375,18.127809 67.703624,12.787374 64.65625,8.1875 58.79795,5.0518025 52.111039,3.28125 45,3.28125 z"
     id="path3057" />
  <path
     style="fill:#3c4140;fill-opacity:1;fill-rule:nonzero;stroke:none"
     d="m 83.03125,62.15625 c -10.353102,4.305344 -21.490381,6.478741 -32.1875,7.21875 -2.334967,0.09504 -4.698034,0.101949 -7.0625,0.0625 -2.355854,4.336732 -6.967659,7.28125 -12.25,7.28125 -6.599635,0 -12.103546,-4.584461 -13.53125,-10.75 -3.7418,-1.016892 -7.414607,-2.271994 -11,-3.78125 6.548237,14.467136 21.083311,24.53125 38,24.53125 16.9314,0 31.491271,-10.075119 38.03125,-24.5625 z"
     id="path3120" />
  <path
     style="fill:#44494d;fill-opacity:1;fill-rule:nonzero;stroke:none;opacity:1"
     d="m 7,62.1875 c 2.2149254,4.893474 5.326785,9.270962 9.15625,12.9375 7.252091,5.876934 16.499354,9.40625 26.5625,9.40625 15.514343,0 29.049331,-8.36675 36.375,-20.84375 -9.205452,3.303877 -18.899452,5.040645 -28.25,5.6875 -2.334967,0.09504 -4.698034,0.101949 -7.0625,0.0625 -2.355854,4.336732 -6.967659,7.28125 -12.25,7.28125 -6.599635,0 -12.103546,-4.584461 -13.53125,-10.75 C 14.2582,64.951858 10.585393,63.696756 7,62.1875 z"
     id="path3108" />
  <path
     style="font-size:medium;font-style:normal;font-variant:normal;font-weight:normal;font-stretch:normal;text-indent:0;text-align:start;text-decoration:none;line-height:normal;letter-spacing:normal;word-spacing:normal;text-transform:none;direction:ltr;block-progression:tb;writing-mode:lr-tb;text-anchor:start;baseline-shift:baseline;color:#000000;fill:#a6a3bc;fill-opacity:1;fill-rule:nonzero;stroke:none;stroke-width:9.19999980999999960;marker:none;visibility:visible;display:inline;overflow:visible;enable-background:accumulate;font-family:Sans;-inkscape-font-specification:Sans"
     d="M 83.03125 62.15625 C 72.678148 66.461594 61.540869 68.634991 50.84375 69.375 C 48.508783 69.47004 46.145716 69.476949 43.78125 69.4375 C 41.425396 73.774232 36.813591 76.71875 31.53125 76.71875 C 24.931615 76.71875 19.427704 72.134289 18 65.96875 C 14.2582 64.951858 10.585393 63.696756 7 62.1875 C 7.9759392 64.34366 9.1253023 66.401935 10.4375 68.34375 C 11.731622 68.767117 13.037651 69.167577 14.34375 69.5625 C 17.051936 76.438203 23.743602 81.3125 31.53125 81.3125 C 37.477379 81.3125 42.696313 78.400888 46.09375 74 C 47.740247 74.0035 49.375707 74.03614 51.03125 73.96875 L 51.09375 73.96875 L 51.15625 73.96875 C 60.488184 73.323182 70.178724 71.631492 79.53125 68.40625 C 80.86993 66.434305 82.04082 64.350252 83.03125 62.15625 z "
     id="path7454" />
  <path
     style="font-size:medium;font-style:normal;font-variant:normal;font-weight:normal;font-stretch:normal;text-indent:0;text-align:start;text-decoration:none;line-height:normal;letter-spacing:normal;word-spacing:normal;text-transform:none;direction:ltr;block-progression:tb;writing-mode:lr-tb;text-anchor:start;baseline-shift:baseline;color:#000000;fill:#a6a3bc;fill-opacity:1;fill-rule:nonzero;stroke:none;stroke-width:9.19999980999999960;marker:none;visibility:visible;display:inline;overflow:visible;enable-background:accumulate;font-family:Sans;-inkscape-font-specification:Sans"
     d="M 31.53125 44.3125 C 25.634625 44.3125 20.455187 47.16725 17.0625 51.5 C 13.22078 50.184611 9.4489426 48.654471 5.9375 46.6875 L 3.28125 45.1875 C 3.2891534 47.042076 3.4135517 48.866152 3.65625 50.65625 C 8.4951159 53.370959 13.663489 55.444598 18.90625 57 C 21.110135 52.225212 25.927151 48.90625 31.53125 48.90625 C 38.510063 48.90625 44.280104 54.049998 45.28125 60.75 C 59.447318 60.7415 73.839775 57.824816 86.34375 50.59375 C 86.585126 48.793061 86.714512 46.959532 86.71875 45.09375 L 84 46.65625 C 73.335533 52.814511 61.049391 55.53008 48.65625 55.96875 C 45.914814 49.155742 39.27973 44.3125 31.53125 44.3125 z "
     id="path7457" />
  <path
     style="fill:#f6e753;fill-opacity:1;fill-rule:nonzero;stroke:none"
     d="M 31.53125 53.375 C 26.314701 53.375 22.09375 57.595951 22.09375 62.8125 C 22.09375 68.029049 26.314701 72.25 31.53125 72.25 C 36.747799 72.25 41 68.029049 41 62.8125 C 41 57.595951 36.747799 53.375 31.53125 53.375 z M 31.53125 56.53125 C 34.997607 56.53125 37.8125 59.346143 37.8125 62.8125 C 37.8125 66.278857 34.997607 69.09375 31.53125 69.09375 C 28.064893 69.09375 25.28125 66.278857 25.28125 62.8125 C 25.28125 59.346143 28.064893 56.53125 31.53125 56.53125 z M 31.53125 58.5625 C 29.177811 58.5625 27.28125 60.459061 27.28125 62.8125 C 27.28125 65.165939 29.177811 67.0625 31.53125 67.0625 C 33.884689 67.0625 35.8125 65.165939 35.8125 62.8125 C 35.8125 60.459061 33.884689 58.5625 31.53125 58.5625 z "
     id="path3002" />
  <path
     style="font-size:medium;font-style:normal;font-variant:normal;font-weight:normal;font-stretch:normal;text-indent:0;text-align:start;text-decoration:none;line-height:normal;letter-spacing:normal;word-spacing:normal;text-transform:none;direction:ltr;block-progression:tb;writing-mode:lr-tb;text-anchor:start;baseline-shift:baseline;color:#000000;fill:#ffffff;fill-opacity:1;fill-rule:nonzero;stroke:none;stroke-width:9.19999981;marker:none;visibility:visible;display:inline;overflow:visible;enable-background:accumulate;font-family:Sans;-inkscape-font-specification:Sans"
     d="m 31.53125,44.3125 c -5.896625,0 -11.076063,2.85475 -14.46875,7.1875 -2.836887,-0.971338 -5.62854,-2.048781 -8.3125,-3.34375 0.047363,1.702057 0.1439674,3.41654 0.28125,5.1875 3.216457,1.445106 6.531903,2.664433 9.875,3.65625 2.203885,-4.774788 7.020901,-8.09375 12.625,-8.09375 6.978813,0 12.748854,5.143748 13.75,11.84375 2.593856,-0.0016 5.185197,-0.107307 7.78125,-0.3125 l 0.90625,-4.8125 c -1.770447,0.160303 -3.533159,0.280768 -5.3125,0.34375 C 45.914814,49.155742 39.27973,44.3125 31.53125,44.3125 z"
     id="path7500" />
  <path
     style="font-size:medium;font-style:normal;font-variant:normal;font-weight:normal;font-stretch:normal;text-indent:0;text-align:start;text-decoration:none;line-height:normal;letter-spacing:normal;word-spacing:normal;text-transform:none;direction:ltr;block-progression:tb;writing-mode:lr-tb;text-anchor:start;baseline-shift:baseline;color:#000000;fill:#ffffff;fill-opacity:1;fill-rule:nonzero;stroke:none;stroke-width:9.19999981;marker:none;visibility:visible;display:inline;overflow:visible;enable-background:accumulate;font-family:Sans;-inkscape-font-specification:Sans"
     d="m 10.5,63.5625 c 0.387796,1.770911 0.839526,3.515593 1.3125,5.21875 0.842274,0.26502 1.685706,0.525584 2.53125,0.78125 2.708186,6.875703 9.399852,11.75 17.1875,11.75 5.946129,0 11.165063,-2.911612 14.5625,-7.3125 1.490209,0.0032 2.973551,0.01361 4.46875,-0.03125 l 0.875,-4.65625 c -0.197568,0.01463 -0.396474,0.04885 -0.59375,0.0625 -2.334967,0.09504 -4.698034,0.101949 -7.0625,0.0625 -2.355854,4.336732 -6.967659,7.28125 -12.25,7.28125 -6.599635,0 -12.103546,-4.584461 -13.53125,-10.75 -2.53723,-0.689531 -5.031958,-1.492695 -7.5,-2.40625 z"
     id="path7485" />
  <path
     style="fill:#d29936;fill-opacity:1;fill-rule:nonzero;stroke:none;opacity:1"
     d="M 21.78125 10.34375 C 17.357738 13.314562 13.534077 17.131193 10.53125 21.53125 C 17.950464 27.003206 31.150327 30.625 46.21875 30.625 C 60.205369 30.625 72.578858 27.482467 80.21875 22.65625 C 77.338234 18.127566 73.605184 14.180299 69.25 11.0625 C 63.140411 14.128082 55.080739 16 46.21875 16 C 36.671359 16 28.028101 13.842404 21.78125 10.34375 z "
     id="path7510" />
  <path
     style="fill:#ccb82b;stroke:none;stroke-width:1px;stroke-linecap:butt;stroke-linejoin:miter;stroke-opacity:1;fill-opacity:1"
     d="M 21.78125 10.34375 C 17.357738 13.314562 13.534077 17.131193 10.53125 21.53125 C 17.677372 26.80179 30.186327 30.339249 44.5625 30.59375 L 44.34375 15.96875 C 35.542264 15.706636 27.616784 13.612039 21.78125 10.34375 z "
     id="path7528" />
  <path
     style="opacity:1;fill:#94493a;fill-opacity:1;fill-rule:nonzero;stroke:none"
     d="M 18.71875 12.59375 C 16.740851 14.199777 14.934955 16.000711 13.28125 17.9375 C 20.167305 23.367241 32.33793 26.96875 46.21875 26.96875 C 59.138431 26.96875 70.580349 23.841966 77.65625 19.03125 C 76.050019 17.013975 74.259716 15.156378 72.3125 13.46875 C 65.812038 17.273193 56.537254 19.65625 46.21875 19.65625 C 35.138584 19.65625 25.246258 16.899252 18.71875 12.59375 z "
     id="path7512" />
  <path
     style="fill:#efea2e;stroke:none;stroke-width:1px;stroke-linecap:butt;stroke-linejoin:miter;stroke-opacity:1;fill-opacity:1"
     d="M 23.65625 11.3125 C 21.431052 12.69223 18.868347 14.565564 17.21875 16.875 C 16.130219 18.398943 14.62944 20.736466 13.0625 23.1875 C 18.814355 26.57858 26.981851 29.060664 36.375 30.09375 L 36.125 15.15625 C 31.479165 14.365701 27.240733 13.041899 23.65625 11.3125 z "
     id="path7526" />
  <path
     style="opacity:1;fill:#d35337;fill-opacity:1;fill-rule:nonzero;stroke:none"
     d="M 20.375 13.59375 C 19.190493 14.569253 18.084676 15.662703 17.21875 16.875 C 16.715962 17.578903 16.116359 18.493762 15.46875 19.46875 C 22.262686 23.820021 32.703736 26.687803 44.53125 26.9375 L 44.40625 19.625 C 34.953186 19.366526 26.473548 17.088778 20.375 13.59375 z "
     id="path7534" />
  <path
     sodipodi:type="arc"
     style="opacity:1;fill:#ffffff;fill-opacity:1;fill-rule:nonzero;stroke:none"
     id="path3066"
     sodipodi:cx="25.088533"
     sodipodi:cy="25.097055"
     sodipodi:rx="9.0900478"
     sodipodi:ry="9.0900478"
     d="m 34.178581,25.097055 a 9.0900478,9.0900478 0 1 1 -18.180095,0 9.0900478,9.0900478 0 1 1 18.180095,0 z"
     transform="matrix(1.07,0,0,1.09,-0.93809303,-1.9860337)" />
</svg>
