<?xml version="1.0" encoding="UTF-8" standalone="no"?>
<!-- Created with Inkscape (http://www.inkscape.org/) -->

<svg
   xmlns:dc="http://purl.org/dc/elements/1.1/"
   xmlns:cc="http://creativecommons.org/ns#"
   xmlns:rdf="http://www.w3.org/1999/02/22-rdf-syntax-ns#"
   xmlns:svg="http://www.w3.org/2000/svg"
   xmlns="http://www.w3.org/2000/svg"
   xmlns:sodipodi="http://sodipodi.sourceforge.net/DTD/sodipodi-0.dtd"
   xmlns:inkscape="http://www.inkscape.org/namespaces/inkscape"
   id="svg2985"
   version="1.1"
   inkscape:version="0.48.2 r9819"
   width="90"
   height="90"
   sodipodi:docname="Custom Poke Ball.svg">
  <metadata
     id="metadata2991">
    <rdf:RDF>
      <cc:Work
         rdf:about="">
        <dc:format>image/svg+xml</dc:format>
        <dc:type
           rdf:resource="http://purl.org/dc/dcmitype/StillImage" />
        <dc:title></dc:title>
      </cc:Work>
    </rdf:RDF>
  </metadata>
  <defs
     id="defs2989" />
  <sodipodi:namedview
     pagecolor="#ffffff"
     bordercolor="#666666"
     borderopacity="1"
     objecttolerance="10"
     gridtolerance="10"
     guidetolerance="10"
     inkscape:pageopacity="0"
     inkscape:pageshadow="2"
     inkscape:window-width="1366"
     inkscape:window-height="706"
     id="namedview2987"
     showgrid="false"
     inkscape:zoom="5.7444444"
     inkscape:cx="45"
     inkscape:cy="45"
     inkscape:window-x="-8"
     inkscape:window-y="-8"
     inkscape:window-maximized="1"
     inkscape:current-layer="svg2985" />
  <path
     style="opacity:1;fill:#231815;fill-opacity:1;fill-rule:nonzero;stroke:none"
     d="M 45,0 C 20.147186,0 0,20.147186 0,45 0,69.852814 20.147186,90 45,90 69.852814,90 90,69.852814 90,45 90,20.147186 69.852814,0 45,0 z"
     id="path3129" />
  <path
     style="fill:#ffffff;fill-opacity:1;fill-rule:nonzero;stroke:none"
     d="M 31.53125 53.375 C 26.314701 53.375 22.09375 57.595951 22.09375 62.8125 C 22.09375 68.029049 26.314701 72.25 31.53125 72.25 C 36.747799 72.25 41 68.029049 41 62.8125 C 41 57.595951 36.747799 53.375 31.53125 53.375 z M 31.53125 56.53125 C 34.997607 56.53125 37.8125 59.346143 37.8125 62.8125 C 37.8125 66.278857 34.997607 69.09375 31.53125 69.09375 C 28.064893 69.09375 25.28125 66.278857 25.28125 62.8125 C 25.28125 59.346143 28.064893 56.53125 31.53125 56.53125 z M 31.53125 58.5625 C 29.177811 58.5625 27.28125 60.459061 27.28125 62.8125 C 27.28125 65.165939 29.177811 67.0625 31.53125 67.0625 C 33.884689 67.0625 35.8125 65.165939 35.8125 62.8125 C 35.8125 60.459061 33.884689 58.5625 31.53125 58.5625 z "
     id="path3002" />
  <path
     style="fill:#5e318f;fill-opacity:1;fill-rule:nonzero;stroke:none;opacity:1"
     d="M 45,3.28125 C 21.954493,3.28125 3.28125,21.954493 3.28125,45 c 0,1.920024 0.1240372,3.805194 0.375,5.65625 4.8388659,2.714709 10.007239,4.788348 15.25,6.34375 2.203885,-4.774788 7.020901,-8.09375 12.625,-8.09375 6.978813,0 12.748854,5.143748 13.75,11.84375 14.166068,-0.0085 28.558525,-2.925184 41.0625,-10.15625 0.245463,-1.831175 0.375,-3.695233 0.375,-5.59375 C 86.71875,21.954493 68.045507,3.28125 45,3.28125 z"
     id="path3043" />
  <path
     style="opacity:1;fill:#7e308e;fill-opacity:1;fill-rule:nonzero;stroke:none"
     d="m 45,3.28125 c -22.028839,0 -40.0454728,17.054018 -41.59375,38.6875 4.349783,5.314512 10.54002,9.421846 17.78125,11.59375 2.547669,-2.852082 6.218555,-4.65625 10.34375,-4.65625 4.434105,0 8.389952,2.081199 10.9375,5.3125 C 58.004772,50.639659 69.4375,38.38008 69.4375,23.8125 69.4375,18.127809 67.703624,12.787374 64.65625,8.1875 58.79795,5.0518025 52.111039,3.28125 45,3.28125 z"
     id="path3057" />
  <path
     style="fill:#a5a3c3;fill-opacity:1;fill-rule:nonzero;stroke:none"
     d="m 83.03125,62.15625 c -10.353102,4.305344 -21.490381,6.478741 -32.1875,7.21875 -2.334967,0.09504 -4.698034,0.101949 -7.0625,0.0625 -2.355854,4.336732 -6.967659,7.28125 -12.25,7.28125 -6.599635,0 -12.103546,-4.584461 -13.53125,-10.75 -3.7418,-1.016892 -7.414607,-2.271994 -11,-3.78125 6.548237,14.467136 21.083311,24.53125 38,24.53125 16.9314,0 31.491271,-10.075119 38.03125,-24.5625 z"
     id="path3120" />
  <path
     style="fill:#d1c3e0;fill-opacity:1;fill-rule:nonzero;stroke:none;opacity:1"
     d="m 7,62.1875 c 2.2149254,4.893474 5.326785,9.270962 9.15625,12.9375 7.252091,5.876934 16.499354,9.40625 26.5625,9.40625 15.514343,0 29.049331,-8.36675 36.375,-20.84375 -9.205452,3.303877 -18.899452,5.040645 -28.25,5.6875 -2.334967,0.09504 -4.698034,0.101949 -7.0625,0.0625 -2.355854,4.336732 -6.967659,7.28125 -12.25,7.28125 -6.599635,0 -12.103546,-4.584461 -13.53125,-10.75 C 14.2582,64.951858 10.585393,63.696756 7,62.1875 z"
     id="path3108" />
  <path
     style="fill:#ffffff;fill-opacity:1;fill-rule:nonzero;stroke:none"
     d="M 14.59375 65.5 C 14.179383 65.521732 13.839625 65.632418 13.5625 65.84375 C 12.084498 66.970853 13.38824 70.505789 16.46875 73.71875 C 19.54926 76.931711 23.240748 78.595853 24.71875 77.46875 C 25.301257 77.024539 25.438015 76.209482 25.21875 75.1875 C 21.836051 73.455053 19.259917 70.403856 18.1875 66.6875 C 16.83576 65.885048 15.545926 65.450061 14.59375 65.5 z "
     id="path3072" />
  <path
     sodipodi:type="arc"
     style="fill:#a54a98;fill-opacity:1;fill-rule:nonzero;stroke:none"
     id="path3066"
     sodipodi:cx="25.088533"
     sodipodi:cy="25.097055"
     sodipodi:rx="9.0900478"
     sodipodi:ry="9.0900478"
     d="m 34.178581,25.097055 a 9.0900478,9.0900478 0 1 1 -18.180095,0 9.0900478,9.0900478 0 1 1 18.180095,0 z"
     transform="matrix(0.79238642,0.24909034,-0.27231722,0.86627396,24.611668,-9.1485264)" />
  <path
     style="fill:#d1c3e0;stroke:none;stroke-width:1px;stroke-linecap:butt;stroke-linejoin:miter;stroke-opacity:1;fill-opacity:1"
     d="m 44.390716,46.131528 -4.526113,0 -2.263056,-6.441006 -5.048356,6.266925 -3.133462,-7.137331 -3.655706,5.744681 -3.307543,-0.348163 8.007737,-15.841392 3.481624,9.748549 6.092844,-8.007737 z"
     id="path4234"
     inkscape:connector-curvature="0" />
  <path
     style="fill:#000022;stroke:none;stroke-width:1px;stroke-linecap:butt;stroke-linejoin:miter;stroke-opacity:1;fill-opacity:1"
     d="M 8,14.625 C -0.51234654,25.266821 2.1823773,31.727076 5.375,35.0625 10.211307,43.264847 20.16371,37.728431 26.96875,28.03125 33.931999,18.10862 26.771683,6.834051 26.771683,6.834051 19.321201,2.0919376 11.327815,10.464689 8,14.625 z"
     id="path4789"
     inkscape:connector-curvature="0"
     sodipodi:nodetypes="scscs" />
  <path
     style="fill:#a40182;stroke:none;stroke-width:1px;stroke-linecap:butt;stroke-linejoin:miter;stroke-opacity:1;fill-opacity:1;opacity:1"
     d="m 27.330754,7.311412 c 0,0 6.615087,10.793037 -0.348162,20.715667 C 20.019342,37.94971 9.7485493,43.520309 5.0483559,34.468085 5.5705996,27.156673 7.8336557,21.934236 12.359768,15.145068 16.88588,8.3558994 27.330754,7.311412 27.330754,7.311412 z"
     id="path4744"
     inkscape:connector-curvature="0"
     sodipodi:nodetypes="csc" />
  <path
     style="fill:#000022;fill-opacity:1;stroke:none"
     d="m 61.507749,10.042833 c -2.366996,0.841254 -14.305527,7.053768 -5.101499,22.863417 12.159012,20.88539 26.535874,6.671661 28.125,1 1.574579,-5.619739 2.268862,-10.41164 -3.25,-19.09375 C 76.232767,6.870375 69.504417,7.2007418 61.507749,10.042833 z"
     id="path4798"
     inkscape:connector-curvature="0"
     sodipodi:nodetypes="sssss" />
  <path
     style="fill:#a40182;stroke:none;stroke-width:1px;stroke-linecap:butt;stroke-linejoin:miter;stroke-opacity:1;fill-opacity:1;opacity:1"
     d="m 65.106383,8.7040619 c -2.611219,-0.5222437 -19.35068,5.9097231 -8.704062,24.1972921 13.08553,22.476859 29.941973,4.526112 28.027079,-0.174081 0,0 -1.044487,-18.452611 -19.323017,-24.0232111 z"
     id="path4751"
     inkscape:connector-curvature="0"
     sodipodi:nodetypes="cscc" />
  <path
     style="fill:#c82d8c;stroke:none;stroke-width:1px;stroke-linecap:butt;stroke-linejoin:miter;stroke-opacity:1;fill-opacity:1;opacity:1"
     d="M 27.34375 7.3125 C 27.34375 7.3125 16.901112 8.3670814 12.375 15.15625 C 8.3678476 21.166978 6.1031203 25.939721 5.28125 32.03125 C 6.9676244 33.196632 9.1109951 34.019075 11.84375 33.9375 C 17.490246 33.768948 23.85463 29.15135 28.9375 24.4375 C 32.456732 15.667975 27.34375 7.3125 27.34375 7.3125 z "
     id="path4768" />
  <path
     style="fill:#c82d8c;stroke:none;stroke-width:1px;stroke-linecap:butt;stroke-linejoin:miter;stroke-opacity:1;fill-opacity:1;opacity:1"
     d="M 64.46875 8.6875 C 60.517109 9.0307925 46.425046 15.761654 56.40625 32.90625 C 59.100778 37.534609 61.932507 40.425111 64.75 42.09375 C 68.166423 40.797942 72.526033 37.960957 75.1875 31.6875 C 77.703085 25.757906 76.079107 18.694193 73.9375 13.21875 C 71.56532 11.387898 68.653889 9.8037449 65.09375 8.71875 C 64.930549 8.6861098 64.732193 8.6646138 64.46875 8.6875 z "
     id="path4775" />
  <path
     sodipodi:type="arc"
     style="fill:#dba0cb;fill-opacity:1;fill-rule:nonzero;stroke:none"
     id="path4785"
     sodipodi:cx="14.709865"
     sodipodi:cy="17.930368"
     sodipodi:rx="3.5686653"
     sodipodi:ry="4.0038686"
     d="m 18.27853,17.930368 a 3.5686653,4.0038686 0 1 1 -7.137331,0 3.5686653,4.0038686 0 1 1 7.137331,0 z"
     transform="matrix(0.99744038,0.07150315,-0.07150315,0.99744038,1.3197295,-1.0059066)" />
  <path
     sodipodi:type="arc"
     style="fill:#dba0cb;fill-opacity:1;fill-rule:nonzero;stroke:none"
     id="path4787"
     sodipodi:cx="62.059959"
     sodipodi:cy="20.715668"
     sodipodi:rx="5.8317213"
     sodipodi:ry="6.615087"
     d="m 67.891681,20.715668 a 5.8317213,6.615087 0 1 1 -11.663443,0 5.8317213,6.615087 0 1 1 11.663443,0 z"
     transform="matrix(0.94029851,0,0,1,4.0532348,0)" />
</svg>
