<?xml version="1.0" encoding="UTF-8" standalone="no"?>
<!-- Created with Inkscape (http://www.inkscape.org/) -->

<svg
   xmlns:dc="http://purl.org/dc/elements/1.1/"
   xmlns:cc="http://creativecommons.org/ns#"
   xmlns:rdf="http://www.w3.org/1999/02/22-rdf-syntax-ns#"
   xmlns:svg="http://www.w3.org/2000/svg"
   xmlns="http://www.w3.org/2000/svg"
   xmlns:sodipodi="http://sodipodi.sourceforge.net/DTD/sodipodi-0.dtd"
   xmlns:inkscape="http://www.inkscape.org/namespaces/inkscape"
   id="svg2985"
   version="1.1"
   inkscape:version="0.48.2 r9819"
   width="90"
   height="90"
   sodipodi:docname="Moon Ball.svg">
  <metadata
     id="metadata2991">
    <rdf:RDF>
      <cc:Work
         rdf:about="">
        <dc:format>image/svg+xml</dc:format>
        <dc:type
           rdf:resource="http://purl.org/dc/dcmitype/StillImage" />
        <dc:title />
      </cc:Work>
    </rdf:RDF>
  </metadata>
  <defs
     id="defs2989" />
  <sodipodi:namedview
     pagecolor="#ffffff"
     bordercolor="#666666"
     borderopacity="1"
     objecttolerance="10"
     gridtolerance="10"
     guidetolerance="10"
     inkscape:pageopacity="0"
     inkscape:pageshadow="2"
     inkscape:window-width="1366"
     inkscape:window-height="706"
     id="namedview2987"
     showgrid="false"
     inkscape:zoom="5.7444444"
     inkscape:cx="45"
     inkscape:cy="45"
     inkscape:window-x="-8"
     inkscape:window-y="-8"
     inkscape:window-maximized="1"
     inkscape:current-layer="svg2985" />
  <path
     inkscape:connector-curvature="0"
     style="fill:#231815;fill-opacity:1;fill-rule:nonzero;stroke:none"
     d="M 45,0 C 20.147186,0 0,20.147186 0,45 0,69.852814 20.147186,90 45,90 69.852814,90 90,69.852814 90,45 90,20.147186 69.852814,0 45,0 z"
     id="path3129-21" />
  <path
     inkscape:connector-curvature="0"
     style="fill:#ffffff;fill-opacity:1;fill-rule:nonzero;stroke:none"
     d="m 31.53125,53.375 c -5.216549,0 -9.4375,4.220951 -9.4375,9.4375 0,5.216549 4.220951,9.4375 9.4375,9.4375 C 36.747799,72.25 41,68.029049 41,62.8125 41,57.595951 36.747799,53.375 31.53125,53.375 z m 0,3.15625 c 3.466357,0 6.28125,2.814893 6.28125,6.28125 0,3.466357 -2.814893,6.28125 -6.28125,6.28125 -3.466357,0 -6.25,-2.814893 -6.25,-6.28125 0,-3.466357 2.783643,-6.28125 6.25,-6.28125 z m 0,2.03125 c -2.353439,0 -4.25,1.896561 -4.25,4.25 0,2.353439 1.896561,4.25 4.25,4.25 2.353439,0 4.28125,-1.896561 4.28125,-4.25 0,-2.353439 -1.927811,-4.25 -4.28125,-4.25 z"
     id="path3002-6" />
  <path
     sodipodi:nodetypes="ssccscccscs"
     inkscape:connector-curvature="0"
     style="fill:#2e7287;fill-opacity:1;fill-rule:nonzero;stroke:none"
     d="M 45,3.28125 C 21.954493,3.28125 3.28125,21.954493 3.28125,45 c 0,1.920024 0.1240372,3.805194 0.375,5.65625 4.8388659,2.714709 10.007239,4.788348 15.25,6.34375 2.203885,-4.774788 7.020901,-8.09375 12.625,-8.09375 0.531797,0 1.046316,0.0356 1.5625,0.09375 L 38.778935,44.591235 28.211839,35.206637 34.65625,30.28125 C 43.383028,23.611477 42.23961,10.16642 48.53125,3.4375 47.370375,3.3405404 46.185984,3.28125 45,3.28125 z"
     id="path3043-8" />
  <path
     sodipodi:nodetypes="sccscccccs"
     inkscape:connector-curvature="0"
     style="fill:#0998b4;fill-opacity:1;fill-rule:nonzero;stroke:none"
     d="m 45,3.28125 c -22.028839,0 -40.0454728,17.054018 -41.59375,38.6875 4.349783,5.314512 10.54002,9.421846 17.78125,11.59375 2.547669,-2.852082 6.218555,-4.65625 10.34375,-4.65625 0.533016,0 1.044921,0.03522 1.5625,0.09375 L 38.778934,44.591235 28.211839,35.206637 34.65625,30.28125 C 35.967133,19.384529 42.213201,10.16511 48.5,3.4375 47.347323,3.3422005 46.177785,3.28125 45,3.28125 z"
     id="path3057-57" />
  <path
     inkscape:connector-curvature="0"
     style="fill:#a5a3c3;fill-opacity:1;fill-rule:nonzero;stroke:none"
     d="m 83.03125,62.15625 c -10.353102,4.305344 -21.490381,6.478741 -32.1875,7.21875 -2.334967,0.09504 -4.698034,0.101949 -7.0625,0.0625 -2.355854,4.336732 -6.967659,7.28125 -12.25,7.28125 -6.599635,0 -12.103546,-4.584461 -13.53125,-10.75 -3.7418,-1.016892 -7.414607,-2.271994 -11,-3.78125 6.548237,14.467136 21.083311,24.53125 38,24.53125 16.9314,0 31.491271,-10.075119 38.03125,-24.5625 z"
     id="path3120-6" />
  <path
     inkscape:connector-curvature="0"
     style="fill:#d1c3e0;fill-opacity:1;fill-rule:nonzero;stroke:none"
     d="m 7,62.1875 c 2.2149254,4.893474 5.326785,9.270962 9.15625,12.9375 7.252091,5.876934 16.499354,9.40625 26.5625,9.40625 15.514343,0 29.049331,-8.36675 36.375,-20.84375 -9.205452,3.303877 -18.899452,5.040645 -28.25,5.6875 -2.334967,0.09504 -4.698034,0.101949 -7.0625,0.0625 -2.355854,4.336732 -6.967659,7.28125 -12.25,7.28125 -6.599635,0 -12.103546,-4.584461 -13.53125,-10.75 C 14.2582,64.951858 10.585393,63.696756 7,62.1875 z"
     id="path3108-1" />
  <path
     inkscape:connector-curvature="0"
     style="fill:#ffffff;fill-opacity:1;fill-rule:nonzero;stroke:none"
     d="m 14.59375,65.5 c -0.414367,0.02173 -0.754125,0.132418 -1.03125,0.34375 -1.478002,1.127103 -0.17426,4.662039 2.90625,7.875 3.08051,3.212961 6.771998,4.877103 8.25,3.75 0.582507,-0.444211 0.719265,-1.259268 0.5,-2.28125 -3.382699,-1.732447 -5.958833,-4.783644 -7.03125,-8.5 C 16.83576,65.885048 15.545926,65.450061 14.59375,65.5 z"
     id="path3072-89" />
  <path
     sodipodi:nodetypes="cscccccsc"
     inkscape:connector-curvature="0"
     style="fill:#49575d;fill-opacity:1;fill-rule:nonzero;stroke:none"
     d="m 48.53125,3.4375 c -6.29164,6.72892 -5.148222,20.173977 -13.875,26.84375 L 28.211839,35.206637 38.778934,44.591235 33.09375,49 c 6.257736,0.704944 11.262643,5.560549 12.1875,11.75 14.166068,-0.0085 28.558525,-2.925184 41.0625,-10.15625 0.245463,-1.831175 0.375,-3.695233 0.375,-5.59375 0,-21.859523 -16.79076,-39.7753841 -38.1875,-41.5625 z"
     id="path3044-8" />
  <path
     sodipodi:nodetypes="ccccccscc"
     inkscape:connector-curvature="0"
     style="fill:#677280;fill-opacity:1;fill-rule:nonzero;stroke:none"
     d="M 48.5,3.4375 C 42.213201,10.16511 35.967133,19.384529 34.65625,30.28125 L 28.211839,35.206637 38.778934,44.591235 33.09375,49 c 3.788106,0.428371 7.133688,2.375878 9.375,5.21875 C 58.004772,50.639659 69.4375,38.38008 69.4375,23.8125 69.4375,18.127809 67.703624,12.787374 64.65625,8.1875 59.768247,5.5711609 54.306771,3.9175842 48.5,3.4375 z"
     id="path3049-9" />
  <path
     inkscape:connector-curvature="0"
     style="fill:#fdd23c;fill-opacity:1;fill-rule:nonzero;stroke:none"
     d="m 44.03125,4.34375 c -11.633232,0 -21.0625,5.851819 -21.0625,13.0625 0,7.210681 9.429268,13.0625 21.0625,13.0625 9.380357,0 17.335811,-3.810099 20.0625,-9.0625 -2.36651,1.487224 -6.021489,2.4375 -10.125,2.4375 -7.135049,0 -12.9375,-2.880231 -12.9375,-6.4375 0,-3.557269 5.802451,-6.4375 12.9375,-6.4375 4.103511,0 7.75849,0.950276 10.125,2.4375 -2.726689,-5.2524015 -10.682143,-9.0625 -20.0625,-9.0625 z"
     id="path3019-2" />
  <path
     sodipodi:type="arc"
     style="fill:#ffffff;fill-opacity:1;fill-rule:nonzero;stroke:none"
     id="path3066-7"
     sodipodi:cx="25.088533"
     sodipodi:cy="25.097055"
     sodipodi:rx="9.0900478"
     sodipodi:ry="9.0900478"
     d="m 34.178581,25.097055 a 9.0900478,9.0900478 0 1 1 -18.180095,0 9.0900478,9.0900478 0 1 1 18.180095,0 z"
     transform="matrix(1.07,0,0,1.09,-0.93809303,-1.9860337)" />
</svg>
