<?xml version="1.0" encoding="UTF-8" standalone="no"?>
<!-- Created with Inkscape (http://www.inkscape.org/) -->

<svg
   xmlns:dc="http://purl.org/dc/elements/1.1/"
   xmlns:cc="http://creativecommons.org/ns#"
   xmlns:rdf="http://www.w3.org/1999/02/22-rdf-syntax-ns#"
   xmlns:svg="http://www.w3.org/2000/svg"
   xmlns="http://www.w3.org/2000/svg"
   xmlns:sodipodi="http://sodipodi.sourceforge.net/DTD/sodipodi-0.dtd"
   xmlns:inkscape="http://www.inkscape.org/namespaces/inkscape"
   id="svg2985"
   version="1.1"
   inkscape:version="0.48.2 r9819"
   width="90"
   height="90"
   sodipodi:docname="Custom Poke Ball.svg">
  <metadata
     id="metadata2991">
    <rdf:RDF>
      <cc:Work
         rdf:about="">
        <dc:format>image/svg+xml</dc:format>
        <dc:type
           rdf:resource="http://purl.org/dc/dcmitype/StillImage" />
        <dc:title></dc:title>
      </cc:Work>
    </rdf:RDF>
  </metadata>
  <defs
     id="defs2989" />
  <sodipodi:namedview
     pagecolor="#ffffff"
     bordercolor="#666666"
     borderopacity="1"
     objecttolerance="10"
     gridtolerance="10"
     guidetolerance="10"
     inkscape:pageopacity="0"
     inkscape:pageshadow="2"
     inkscape:window-width="1366"
     inkscape:window-height="706"
     id="namedview2987"
     showgrid="false"
     inkscape:zoom="5.7444444"
     inkscape:cx="45"
     inkscape:cy="45"
     inkscape:window-x="-8"
     inkscape:window-y="-8"
     inkscape:window-maximized="1"
     inkscape:current-layer="svg2985" />
  <path
     style="opacity:1;fill:#231815;fill-opacity:1;fill-rule:nonzero;stroke:none"
     d="M 45,0 C 20.147186,0 0,20.147186 0,45 0,69.852814 20.147186,90 45,90 69.852814,90 90,69.852814 90,45 90,20.147186 69.852814,0 45,0 z"
     id="path3129" />
  <path
     style="fill:#ffffff;fill-opacity:1;fill-rule:nonzero;stroke:none"
     d="M 31.53125 53.375 C 26.314701 53.375 22.09375 57.595951 22.09375 62.8125 C 22.09375 68.029049 26.314701 72.25 31.53125 72.25 C 36.747799 72.25 41 68.029049 41 62.8125 C 41 57.595951 36.747799 53.375 31.53125 53.375 z M 31.53125 56.53125 C 34.997607 56.53125 37.8125 59.346143 37.8125 62.8125 C 37.8125 66.278857 34.997607 69.09375 31.53125 69.09375 C 28.064893 69.09375 25.28125 66.278857 25.28125 62.8125 C 25.28125 59.346143 28.064893 56.53125 31.53125 56.53125 z M 31.53125 58.5625 C 29.177811 58.5625 27.28125 60.459061 27.28125 62.8125 C 27.28125 65.165939 29.177811 67.0625 31.53125 67.0625 C 33.884689 67.0625 35.8125 65.165939 35.8125 62.8125 C 35.8125 60.459061 33.884689 58.5625 31.53125 58.5625 z "
     id="path3002" />
  <path
     style="fill:#588f45;fill-opacity:1;fill-rule:nonzero;stroke:none;opacity:1"
     d="M 45,3.28125 C 21.954493,3.28125 3.28125,21.954493 3.28125,45 c 0,1.920024 0.1240372,3.805194 0.375,5.65625 4.8388659,2.714709 10.007239,4.788348 15.25,6.34375 2.203885,-4.774788 7.020901,-8.09375 12.625,-8.09375 6.978813,0 12.748854,5.143748 13.75,11.84375 14.166068,-0.0085 28.558525,-2.925184 41.0625,-10.15625 0.245463,-1.831175 0.375,-3.695233 0.375,-5.59375 C 86.71875,21.954493 68.045507,3.28125 45,3.28125 z"
     id="path3043" />
  <path
     style="opacity:1;fill:#7ebf41;fill-opacity:1;fill-rule:nonzero;stroke:none"
     d="m 45,3.28125 c -22.028839,0 -40.0454728,17.054018 -41.59375,38.6875 4.349783,5.314512 10.54002,9.421846 17.78125,11.59375 2.547669,-2.852082 6.218555,-4.65625 10.34375,-4.65625 4.434105,0 8.389952,2.081199 10.9375,5.3125 C 58.004772,50.639659 69.4375,38.38008 69.4375,23.8125 69.4375,18.127809 67.703624,12.787374 64.65625,8.1875 58.79795,5.0518025 52.111039,3.28125 45,3.28125 z"
     id="path3057" />
  <path
     style="fill:#a5a3c3;fill-opacity:1;fill-rule:nonzero;stroke:none"
     d="m 83.03125,62.15625 c -10.353102,4.305344 -21.490381,6.478741 -32.1875,7.21875 -2.334967,0.09504 -4.698034,0.101949 -7.0625,0.0625 -2.355854,4.336732 -6.967659,7.28125 -12.25,7.28125 -6.599635,0 -12.103546,-4.584461 -13.53125,-10.75 -3.7418,-1.016892 -7.414607,-2.271994 -11,-3.78125 6.548237,14.467136 21.083311,24.53125 38,24.53125 16.9314,0 31.491271,-10.075119 38.03125,-24.5625 z"
     id="path3120" />
  <path
     style="fill:#d1c3e0;fill-opacity:1;fill-rule:nonzero;stroke:none;opacity:1"
     d="m 7,62.1875 c 2.2149254,4.893474 5.326785,9.270962 9.15625,12.9375 7.252091,5.876934 16.499354,9.40625 26.5625,9.40625 15.514343,0 29.049331,-8.36675 36.375,-20.84375 -9.205452,3.303877 -18.899452,5.040645 -28.25,5.6875 -2.334967,0.09504 -4.698034,0.101949 -7.0625,0.0625 -2.355854,4.336732 -6.967659,7.28125 -12.25,7.28125 -6.599635,0 -12.103546,-4.584461 -13.53125,-10.75 C 14.2582,64.951858 10.585393,63.696756 7,62.1875 z"
     id="path3108" />
  <path
     style="fill:#ffffff;fill-opacity:1;fill-rule:nonzero;stroke:none"
     d="M 14.59375 65.5 C 14.179383 65.521732 13.839625 65.632418 13.5625 65.84375 C 12.084498 66.970853 13.38824 70.505789 16.46875 73.71875 C 19.54926 76.931711 23.240748 78.595853 24.71875 77.46875 C 25.301257 77.024539 25.438015 76.209482 25.21875 75.1875 C 21.836051 73.455053 19.259917 70.403856 18.1875 66.6875 C 16.83576 65.885048 15.545926 65.450061 14.59375 65.5 z "
     id="path3072" />
  <path
     style="fill:#aaa54c;stroke:none;stroke-width:1px;stroke-linecap:butt;stroke-linejoin:miter;stroke-opacity:1;fill-opacity:1"
     d="M 67.9375 10.15625 C 61.527799 17.628235 50.504644 27.205604 37.25 25.25 C 28.204073 23.915355 23.798373 17.409135 21.6875 10.40625 C 17.582027 13.179542 13.981438 16.667714 11.09375 20.6875 C 16.338342 30.399097 25.419282 40.032747 40.90625 40.375 C 61.874199 40.83838 74.408457 30.231719 80.46875 23.0625 C 77.27547 17.913052 72.988618 13.489633 67.9375 10.15625 z "
     id="path3008" />
  <path
     style="fill:#aaa54c;stroke:none;stroke-width:1px;stroke-linecap:butt;stroke-linejoin:miter;stroke-opacity:1;fill-opacity:1"
     d="m 6.46875,29 c -2.0460167,4.925941 -3.1875,10.332479 -3.1875,16 0,1.920024 0.1240372,3.805194 0.375,5.65625 4.8388659,2.714709 10.007239,4.788348 15.25,6.34375 0.807712,-1.749935 1.986445,-3.29537 3.40625,-4.5625 C 13.104876,46.956295 8.55948,36.083038 6.46875,29 z"
     id="path3025" />
  <path
     style="fill:#aaa54c;stroke:none;stroke-width:1px;stroke-linecap:butt;stroke-linejoin:miter;stroke-opacity:1;fill-opacity:1"
     d="m 83.6875,29.40625 c -7.21849,10.182832 -20.428621,23.873203 -40.28125,26.1875 0.940772,1.546353 1.596348,3.29142 1.875,5.15625 14.166068,-0.0085 28.558525,-2.925184 41.0625,-10.15625 0.245463,-1.831175 0.375,-3.695233 0.375,-5.59375 0,-5.514504 -1.088786,-10.775887 -3.03125,-15.59375 z"
     id="path3010" />
  <path
     style="opacity:1;fill:#e3e27d;fill-opacity:1;fill-rule:nonzero;stroke:none"
     d="M 6.46875 29.03125 C 6.3278145 29.371229 6.1947422 29.718021 6.0625 30.0625 C 6.002404 30.219263 5.9332531 30.373582 5.875 30.53125 C 5.7336067 30.913295 5.5992886 31.300249 5.46875 31.6875 C 5.3983931 31.89674 5.317117 32.101788 5.25 32.3125 C 5.0617769 32.903422 4.9123005 33.491697 4.75 34.09375 C 4.5790394 34.727928 4.4227068 35.354213 4.28125 36 C 4.1531595 36.584767 4.0095549 37.187559 3.90625 37.78125 C 3.8812402 37.92498 3.8672865 38.074517 3.84375 38.21875 C 3.7723694 38.6526 3.7141102 39.093018 3.65625 39.53125 C 3.623603 39.780572 3.5907303 40.030558 3.5625 40.28125 C 3.511578 40.729338 3.4740428 41.172747 3.4375 41.625 C 3.4282385 41.740899 3.4145637 41.852585 3.40625 41.96875 C 7.756033 47.283262 13.94627 51.390596 21.1875 53.5625 C 21.364918 53.365635 21.562217 53.186698 21.75 53 C 21.9371 52.812661 22.11528 52.61402 22.3125 52.4375 C 13.116461 46.963192 8.5630222 36.114887 6.46875 29.03125 z "
     id="path3018" />
  <path
     style="fill:#e3e27d;stroke:none;stroke-width:1px;stroke-linecap:butt;stroke-linejoin:miter;stroke-opacity:1;fill-opacity:1"
     d="M 21.6875 10.40625 C 21.174316 10.752911 20.6845 11.100106 20.1875 11.46875 C 19.93679 11.654683 19.683843 11.839865 19.4375 12.03125 C 19.193893 12.220418 18.958081 12.43059 18.71875 12.625 C 18.351771 12.923321 17.981473 13.220846 17.625 13.53125 C 17.402865 13.724396 17.186755 13.927276 16.96875 14.125 C 16.824283 14.256355 16.673852 14.366653 16.53125 14.5 C 16.326848 14.690532 16.13805 14.899203 15.9375 15.09375 C 15.52784 15.492413 15.11179 15.897395 14.71875 16.3125 C 14.607479 16.429659 14.484911 16.537811 14.375 16.65625 C 14.140308 16.90991 13.915903 17.17805 13.6875 17.4375 C 13.585242 17.553321 13.475973 17.664296 13.375 17.78125 C 13.113263 18.085307 12.878018 18.407145 12.625 18.71875 C 12.38059 19.018976 12.142253 19.317968 11.90625 19.625 C 11.697785 19.896761 11.483115 20.160509 11.28125 20.4375 C 11.21965 20.521893 11.154717 20.602631 11.09375 20.6875 C 16.338342 30.399097 25.419282 40.032747 40.90625 40.375 C 52.093223 40.622226 60.847978 37.695488 67.53125 33.84375 C 68.754303 30.693034 69.4375 27.319695 69.4375 23.8125 C 69.4375 19.500971 68.436383 15.398816 66.625 11.65625 C 60.080205 18.843093 49.639428 27.077949 37.25 25.25 C 28.204073 23.915355 23.798373 17.409135 21.6875 10.40625 z "
     id="path3798" />
  <path
     sodipodi:type="arc"
     style="opacity:1;fill:#ffffff;fill-opacity:1;fill-rule:nonzero;stroke:none"
     id="path3066"
     sodipodi:cx="25.088533"
     sodipodi:cy="25.097055"
     sodipodi:rx="9.0900478"
     sodipodi:ry="9.0900478"
     d="m 34.178581,25.097055 a 9.0900478,9.0900478 0 1 1 -18.180095,0 9.0900478,9.0900478 0 1 1 18.180095,0 z"
     transform="matrix(1.07,0,0,1.09,-0.93809303,-1.9860337)" />
</svg>
