<?xml version="1.0" encoding="UTF-8" standalone="no"?>
<!-- Created with Inkscape (http://www.inkscape.org/) -->

<svg
   xmlns:dc="http://purl.org/dc/elements/1.1/"
   xmlns:cc="http://creativecommons.org/ns#"
   xmlns:rdf="http://www.w3.org/1999/02/22-rdf-syntax-ns#"
   xmlns:svg="http://www.w3.org/2000/svg"
   xmlns="http://www.w3.org/2000/svg"
   xmlns:sodipodi="http://sodipodi.sourceforge.net/DTD/sodipodi-0.dtd"
   xmlns:inkscape="http://www.inkscape.org/namespaces/inkscape"
   id="svg2985"
   version="1.1"
   inkscape:version="0.48.2 r9819"
   width="91"
   height="90"
   sodipodi:docname="Custom Poke Ball.svg">
  <metadata
     id="metadata2991">
    <rdf:RDF>
      <cc:Work
         rdf:about="">
        <dc:format>image/svg+xml</dc:format>
        <dc:type
           rdf:resource="http://purl.org/dc/dcmitype/StillImage" />
        <dc:title></dc:title>
      </cc:Work>
    </rdf:RDF>
  </metadata>
  <defs
     id="defs2989" />
  <sodipodi:namedview
     pagecolor="#ffffff"
     bordercolor="#666666"
     borderopacity="1"
     objecttolerance="10"
     gridtolerance="10"
     guidetolerance="10"
     inkscape:pageopacity="0"
     inkscape:pageshadow="2"
     inkscape:window-width="1366"
     inkscape:window-height="706"
     id="namedview2987"
     showgrid="false"
     inkscape:zoom="5.7444444"
     inkscape:cx="45.5"
     inkscape:cy="45"
     inkscape:window-x="-8"
     inkscape:window-y="-8"
     inkscape:window-maximized="1"
     inkscape:current-layer="svg2985" />
  <path
     style="fill:#231815;fill-opacity:1;fill-rule:nonzero;stroke:none"
     d="M 45,0 C 20.147186,0 0,20.147186 0,45 0,69.852814 20.147186,90 45,90 69.852814,90 90,69.852814 90,45 90,20.147186 69.852814,0 45,0 z"
     id="path3129"
     inkscape:connector-curvature="0" />
  <path
     style="fill:#ffffff;fill-opacity:1;fill-rule:nonzero;stroke:none"
     d="m 31.53125,53.375 c -5.216549,0 -9.4375,4.220951 -9.4375,9.4375 0,5.216549 4.220951,9.4375 9.4375,9.4375 C 36.747799,72.25 41,68.029049 41,62.8125 41,57.595951 36.747799,53.375 31.53125,53.375 z m 0,3.15625 c 3.466357,0 6.28125,2.814893 6.28125,6.28125 0,3.466357 -2.814893,6.28125 -6.28125,6.28125 -3.466357,0 -6.25,-2.814893 -6.25,-6.28125 0,-3.466357 2.783643,-6.28125 6.25,-6.28125 z m 0,2.03125 c -2.353439,0 -4.25,1.896561 -4.25,4.25 0,2.353439 1.896561,4.25 4.25,4.25 2.353439,0 4.28125,-1.896561 4.28125,-4.25 0,-2.353439 -1.927811,-4.25 -4.28125,-4.25 z"
     id="path3002"
     inkscape:connector-curvature="0" />
  <path
     style="fill:#2e7287;fill-opacity:1;fill-rule:nonzero;stroke:none"
     d="M 45,3.28125 C 21.954493,3.28125 3.28125,21.954493 3.28125,45 c 0,1.920024 0.1240372,3.805194 0.375,5.65625 4.8388659,2.714709 10.007239,4.788348 15.25,6.34375 2.203885,-4.774788 7.020901,-8.09375 12.625,-8.09375 6.978813,0 12.748854,5.143748 13.75,11.84375 14.166068,-0.0085 28.558525,-2.925184 41.0625,-10.15625 0.245463,-1.831175 0.375,-3.695233 0.375,-5.59375 C 86.71875,21.954493 68.045507,3.28125 45,3.28125 z"
     id="path3043"
     inkscape:connector-curvature="0" />
  <path
     style="fill:#0998b4;fill-opacity:1;fill-rule:nonzero;stroke:none"
     d="m 45,3.28125 c -22.028839,0 -40.0454728,17.054018 -41.59375,38.6875 4.349783,5.314512 10.54002,9.421846 17.78125,11.59375 2.547669,-2.852082 6.218555,-4.65625 10.34375,-4.65625 4.434105,0 8.389952,2.081199 10.9375,5.3125 C 58.004772,50.639659 69.4375,38.38008 69.4375,23.8125 69.4375,18.127809 67.703624,12.787374 64.65625,8.1875 58.79795,5.0518025 52.111039,3.28125 45,3.28125 z"
     id="path3057"
     inkscape:connector-curvature="0" />
  <path
     style="fill:#ffffff;fill-opacity:1;fill-rule:nonzero;stroke:none"
     d="m 27.29167,15.46875 c -5.371715,0 -10.338878,4.434129 -11.10417,9.90625 -0.765292,5.472121 2.961615,9.90625 8.33333,9.90625 5.371715,0 10.338878,-4.434129 11.10417,-9.90625 0.765292,-5.472121 -2.961615,-9.90625 -8.33333,-9.90625 z"
     id="path3066"
     inkscape:connector-curvature="0" />
  <path
     style="fill:#a5a3c3;fill-opacity:1;fill-rule:nonzero;stroke:none"
     d="m 83.03125,62.15625 c -10.353102,4.305344 -21.490381,6.478741 -32.1875,7.21875 -2.334967,0.09504 -4.698034,0.101949 -7.0625,0.0625 -2.355854,4.336732 -6.967659,7.28125 -12.25,7.28125 -6.599635,0 -12.103546,-4.584461 -13.53125,-10.75 -3.7418,-1.016892 -7.414607,-2.271994 -11,-3.78125 6.548237,14.467136 21.083311,24.53125 38,24.53125 16.9314,0 31.491271,-10.075119 38.03125,-24.5625 z"
     id="path3120"
     inkscape:connector-curvature="0" />
  <path
     style="fill:#d1c3e0;fill-opacity:1;fill-rule:nonzero;stroke:none"
     d="m 7,62.1875 c 2.2149254,4.893474 5.326785,9.270962 9.15625,12.9375 7.252091,5.876934 16.499354,9.40625 26.5625,9.40625 15.514343,0 29.049331,-8.36675 36.375,-20.84375 -9.205452,3.303877 -18.899452,5.040645 -28.25,5.6875 -2.334967,0.09504 -4.698034,0.101949 -7.0625,0.0625 -2.355854,4.336732 -6.967659,7.28125 -12.25,7.28125 -6.599635,0 -12.103546,-4.584461 -13.53125,-10.75 C 14.2582,64.951858 10.585393,63.696756 7,62.1875 z"
     id="path3108"
     inkscape:connector-curvature="0" />
  <path
     style="fill:#ffffff;fill-opacity:1;fill-rule:nonzero;stroke:none"
     d="m 14.59375,65.5 c -0.414367,0.02173 -0.754125,0.132418 -1.03125,0.34375 -1.478002,1.127103 -0.17426,4.662039 2.90625,7.875 3.08051,3.212961 6.771998,4.877103 8.25,3.75 0.582507,-0.444211 0.719265,-1.259268 0.5,-2.28125 -3.382699,-1.732447 -5.958833,-4.783644 -7.03125,-8.5 C 16.83576,65.885048 15.545926,65.450061 14.59375,65.5 z"
     id="path3072"
     inkscape:connector-curvature="0" />
  <path
     style="fill:#525c5f;stroke:none;stroke-width:1px;stroke-linecap:butt;stroke-linejoin:miter;stroke-opacity:1;fill-opacity:1"
     d="M 23.84375 14.8125 L 9.21875 33.4375 L 22.46875 52.3125 C 23.923053 51.051521 25.611031 50.071919 27.5 49.5 C 25.073704 47.604624 21.225443 43.369197 15.65625 33.9375 C 15.65625 33.9375 20.362488 26.807363 26.28125 22.28125 C 32.200012 17.755138 23.84375 14.8125 23.84375 14.8125 z "
     id="path5103" />
  <path
     style="fill:#231815;fill-opacity:1;stroke:none"
     d="m 73.810445,30.638298 c 0,0 -5.744681,-10.793037 -15.667312,-17.234043 C 48.220503,6.9632495 32.901354,-2.2630561 24.371373,1.7408124 15.841393,5.7446809 23.152805,9.7485493 28.375242,9.4003868 33.597679,9.0522244 22.45648,20.193424 22.45648,20.193424 l 2.959381,2.959381 c 0,0 3.307543,-4.17795 8.52998,-6.789169 5.222438,-2.611218 10.096712,-4.352031 10.096712,-4.352031 0,0 31.508704,29.071567 29.767892,18.626693 z"
     id="path5099"
     inkscape:connector-curvature="0"
     sodipodi:nodetypes="csssccscc" />
  <path
     style="fill:#525c5f;stroke:none;stroke-width:1px;stroke-linecap:butt;stroke-linejoin:miter;stroke-opacity:1;fill-opacity:1"
     d="M 29.46875 6.28125 C 27.670536 7.0027666 25.945404 7.8267502 24.28125 8.78125 L 25.9375 9.75 C 25.9375 9.75 22.285118 11.652382 18.28125 15.65625 C 14.508622 19.428879 9.3695623 23.844699 8.75 24.375 C 8.6437158 24.561307 8.5409811 24.749409 8.4375 24.9375 L 10.78125 30.625 L 34.125 8.1875 L 29.46875 6.28125 z "
     id="path5089" />
  <path
     style="fill:#525c5f;stroke:none;stroke-width:1px;stroke-linecap:butt;stroke-linejoin:miter;stroke-opacity:1;fill-opacity:1"
     d="M 7.5 37.09375 C 5.9429687 36.97523 4.6193728 38.60305 3.5 40.84375 C 3.3657197 42.206576 3.28125 43.601791 3.28125 45 C 3.28125 46.920024 3.4052872 48.805194 3.65625 50.65625 C 4.2409687 50.98429 4.8436087 51.315465 5.4375 51.625 C 5.7810041 50.219364 6.2293125 48.69293 6.78125 47.34375 C 8.3479811 43.513962 11.15625 40.375 11.15625 40.375 C 9.8506408 38.122824 8.6105329 37.178283 7.5 37.09375 z "
     id="path5094" />
  <path
     style="fill:#231815;stroke:none;stroke-width:1px;stroke-linecap:butt;stroke-linejoin:miter;stroke-opacity:1;fill-opacity:1"
     d="m 5.3965184,35.686654 c 0,0 3.1334623,9.400387 9.0522246,15.319149 5.918762,5.918762 8.007737,8.52998 8.007737,8.52998 L 23.84913,53.617021 8.8781431,34.816248 z"
     id="path5101"
     inkscape:connector-curvature="0" />
  <path
     style="fill:#231815;stroke:none;stroke-width:1px;stroke-linecap:butt;stroke-linejoin:miter;stroke-opacity:1;fill-opacity:1"
     d="m 11.663443,28.027079 c 0,0 -1.566731,-8.007737 -4.0038685,-8.007737 -2.4371374,0 -4.7001935,3.307544 -5.2224372,7.659575 C 1.9148936,32.030948 15.319149,54.83559 21.411992,57.272727 27.504836,59.709865 5.2224371,33.075435 11.663443,28.027079 z"
     id="path5087"
     inkscape:connector-curvature="0" />
  <path
     style="fill:#525c5f;stroke:none;stroke-width:1px;stroke-linecap:butt;stroke-linejoin:miter;stroke-opacity:1;fill-opacity:1"
     d="m 63.887814,5.2224371 c 0,0 1.39265,0.8704062 1.566731,1.9148937 0.174082,1.0444874 -2.611218,0.5222437 -7.13733,0.6963249 -4.526112,0.1740812 -13.056093,2.6112183 -13.056093,2.6112183 l 2.263056,-5.0483556 z"
     id="path5066"
     inkscape:connector-curvature="0" />
  <path
     style="fill:#231815;stroke:none;stroke-width:1px;stroke-linecap:butt;stroke-linejoin:miter;stroke-opacity:1;fill-opacity:1"
     d="m 77.117988,17.408124 c 0,0 5.5706,-2.437138 6.789169,0.174081 1.218568,2.611219 3.655706,4.003869 1.740812,8.529981 -1.914894,4.526112 -7.833656,11.489361 -7.833656,11.489361 0,0 2.088975,3.481625 2.611219,7.485494 0.522244,4.003868 1.740812,11.31528 1.740812,11.31528 L 78.162476,57.969052 72.765957,35.16441 z"
     id="path5064"
     inkscape:connector-curvature="0" />
  <path
     style="fill:#525c5f;stroke:none;stroke-width:1px;stroke-linecap:butt;stroke-linejoin:miter;stroke-opacity:1;fill-opacity:1"
     d="m 76.769826,17.059961 c 0,0 4.17795,0.348163 5.048356,1.740813 0.870406,1.39265 -10.618956,13.404255 -10.618956,13.404255 l -2.7853,-3.655706 c 0,0 4.352031,-1.39265 8.3559,-11.489362 z"
     id="path5068"
     inkscape:connector-curvature="0" />
  <path
     style="fill:#525c5f;stroke:none;stroke-width:1px;stroke-linecap:butt;stroke-linejoin:miter;stroke-opacity:1;fill-opacity:1"
     d="M 70.28125 39.34375 C 68.028734 39.462751 65.96875 41.4375 65.96875 41.4375 C 65.96875 41.4375 68.772606 43.523513 70.6875 51.53125 C 71.201524 53.680807 71.517064 55.456726 71.71875 56.9375 C 73.50942 56.383065 75.283501 55.751272 77.03125 55.0625 C 76.688534 50.931438 75.903896 45.258436 74.15625 41.96875 C 73.046482 39.879775 71.63276 39.272349 70.28125 39.34375 z "
     id="path5079" />
  <path
     style="fill:#231815;fill-opacity:1;stroke:none"
     d="m 73.636364,42.475822 c 0,0 -6.491845,6.9928 -13.578337,11.663443 -7.659574,5.048356 -14.10058,8.181818 -14.10058,8.181818 l -2.7853,-4.874274 c 0,0 28.897485,-18.452612 30.464217,-14.970987 z"
     id="path5077"
     inkscape:connector-curvature="0"
     sodipodi:nodetypes="csccc" />
  <path
     style="fill:#292d31;fill-opacity:1;stroke:none"
     d="M 51.40625 2.0625 C 48.577414 2.0951259 43.643756 2.3045659 41.5625 3.4375 C 40.425298 4.0565372 39.297817 4.7114257 38.15625 5.34375 C 37.232186 5.0197129 36.307477 4.6933254 35.40625 4.40625 C 24.163282 0.38527558 21.912173 7.1128171 27.125 7.3125 C 28.733311 7.7302353 30.399015 8.2286591 32.09375 8.78125 C 26.132076 12.286004 20.819252 15.804473 17.9375 18.96875 C 15.481489 21.665546 12.824815 24.721435 10.21875 27.875 C 9.7419545 26.653306 9.2689688 25.45917 8.75 24.375 C 6.9203173 20.552637 4.3026066 28.625982 5.375 31.90625 C 5.5302672 32.381186 5.7284025 32.844179 5.90625 33.3125 C 5.4202489 33.949345 4.9038728 34.585631 4.4375 35.21875 C 2.1178221 39.921914 2.40625 41.632184 2.40625 45 C 2.40625 46.280016 3.3576389 47.531996 3.46875 48.78125 C 4.6535219 45.982256 6.3315835 42.649163 8.5625 39.0625 C 8.8956596 39.684633 9.2292545 40.312656 9.5625 40.90625 C 12.649067 46.404197 17.042591 51.243552 20.375 54.53125 C 21.661656 52.796545 23.339944 51.388457 25.28125 50.40625 C 22.972789 47.831433 19.869426 44.219227 16 39.34375 C 14.503089 37.457642 13.403006 35.400766 12.46875 33.34375 C 14.727952 30.377028 17.389314 27.349812 20.53125 24.375 C 26.278325 18.93362 32.54411 14.483334 38.8125 11.3125 C 45.631709 14.278496 52.5218 18.547686 58.15625 24.71875 C 61.827308 28.739432 64.656238 32.403499 66.875 35.6875 C 65.653753 37.017919 64.39055 38.354301 63.03125 39.6875 C 55.176931 47.391002 47.298237 51.597791 42.09375 53.78125 C 43.714074 55.673505 44.830464 57.994229 45.25 60.5625 C 51.664527 56.905038 60.146173 51.61983 66.84375 45.96875 C 68.064594 44.938663 69.38127 43.659915 70.75 42.25 C 74.068611 48.84943 74.525537 53.400198 74.46875 56.03125 C 76.422536 55.343395 78.355197 54.574779 80.25 53.71875 C 80.01409 49.652605 79.257146 44.360799 75.34375 37.21875 C 78.076732 34.066558 80.763709 30.742867 83.03125 27.84375 C 85.490847 18.75312 81.082529 15.731787 78.6875 20.375 C 76.767069 23.372661 74.249874 26.923283 71.1875 30.6875 C 68.693852 27.223342 65.523559 23.392169 61.4375 19.15625 C 56.93332 14.486875 51.349792 10.987536 45.65625 8.34375 C 50.550238 6.629657 55.352464 5.7998026 59.8125 6 C 70.353369 5.8176615 58.562442 2.0625 53.34375 2.0625 C 53.055155 2.0625 52.349195 2.0516247 51.40625 2.0625 z "
     id="path5031" />
  <path
     style="fill:#525c5f;fill-opacity:1;stroke:none"
     d="M 38.90625 11.25 C 38.197235 11.607077 37.489163 11.985146 36.78125 12.375 C 36.923868 12.515988 37.029938 12.632553 37.1875 12.78125 C 43.690456 16.517222 56.708872 24.832611 63.71875 35.15625 C 60.559993 40.947305 49.335423 47.930179 40.9375 52.5625 C 41.348771 52.940264 41.730363 53.356878 42.09375 53.78125 C 47.298237 51.597791 55.176931 47.391002 63.03125 39.6875 C 64.39055 38.354301 65.653753 37.017919 66.875 35.6875 C 64.656238 32.403499 61.827308 28.739432 58.15625 24.71875 C 52.724524 18.769717 46.136846 14.609309 39.5625 11.65625 C 39.316086 11.490019 39.132991 11.396651 38.90625 11.25 z "
     id="path5050" />
</svg>
