<?xml version="1.0" encoding="UTF-8"?>
<!DOCTYPE svg PUBLIC "-//W3C//DTD SVG 1.1//EN" "http://www.w3.org/Graphics/SVG/1.1/DTD/svg11.dtd">
<!-- Creator: CorelDRAW X6 -->
<svg xmlns="http://www.w3.org/2000/svg" xml:space="preserve" width="5.82677in" height="4.13386in" version="1.1" style="shape-rendering:geometricPrecision; text-rendering:geometricPrecision; image-rendering:optimizeQuality; fill-rule:evenodd; clip-rule:evenodd"
viewBox="0 0 5827 4134"
 xmlns:xlink="http://www.w3.org/1999/xlink">
 <defs>
  <style type="text/css">
   <![CDATA[
    .fil0 {fill:none}
    .fil1 {fill:#ED323D}
    .fil2 {fill:#FEFEFE}
   ]]>
  </style>
 </defs>
 <g id="Layer_x0020_1">
  <metadata id="CorelCorpID_0Corel-Layer"/>
  <g id="_388532400">
   <rect class="fil0" width="5827" height="4134"/>
   <g>
    <path class="fil1" d="M864 2751c-435,0 -726,-309 -726,-683 0,-374 292,-686 726,-685l4101 0c434,-1 726,311 726,685 0,374 -291,683 -726,683l-4100 0z"/>
    <path class="fil2" d="M865 1551c-345,1 -556,231 -556,516 0,285 210,517 556,516l4097 0c346,1 556,-231 556,-516 0,-285 -212,-515 -556,-516l-4097 0z"/>
    <polygon class="fil1" points="688,1744 889,1744 1166,2193 1166,1744 1365,1744 1365,2388 1166,2388 887,1939 887,2388 688,2388 "/>
    <polygon class="fil1" points="2447,1810 2641,1810 2641,1897 2746,1897 2746,1960 2641,1960 2641,2388 2447,2388 2447,1960 2342,1960 2342,1897 2447,1897 "/>
    <polygon class="fil1" points="1476,1960 1670,1960 1670,2388 1476,2388 "/>
    <polygon class="fil1" points="1476,1744 1670,1744 1670,1875 1476,1875 "/>
    <path class="fil1" d="M4947 2170c0,0 0,65 0,91 0,68 -40,96 -79,96 -39,0 -79,-28 -79,-96 0,-26 0,-92 0,-92 0,0 0,-63 0,-89 0,-68 40,-96 79,-96 39,0 79,28 79,96 0,26 0,74 0,91l0 0zm-78 -240l0 0c-156,0 -283,108 -283,240 0,133 127,240 283,240 156,0 283,-108 283,-240 0,-133 -127,-240 -283,-240z"/>
    <path class="fil1" d="M4332 1744l191 0 0 644 -191 0c0,0 0,-21 0,-25 -74,46 -158,46 -223,16 -17,-8 -132,-63 -132,-212 0,-113 107,-236 246,-224 46,4 79,21 110,38 0,-99 0,-237 0,-237zm1 428l0 0c0,0 0,-54 0,-77 0,-66 -46,-83 -76,-83 -31,0 -76,17 -76,83 0,22 0,76 0,76 0,0 0,53 0,76 0,66 45,83 76,83 30,0 76,-17 76,-83 0,-28 0,-76 0,-76z"/>
    <path class="fil1" d="M2123 1940c72,-2 219,45 218,215 0,30 0,233 0,233l-192 0c0,0 0,-254 0,-281 0,-37 -36,-79 -88,-79 -53,0 -92,41 -92,79 0,18 0,281 0,281l-192 0 0 -428 192 0c0,0 0,34 0,45 37,-35 90,-63 154,-65z"/>
    <path class="fil1" d="M3697 1940c72,-2 219,45 218,215 0,30 0,233 0,233l-192 0c0,0 0,-254 0,-281 0,-37 -36,-79 -88,-79 -53,0 -92,41 -92,79 0,18 0,281 0,281l-192 0 0 -428 192 0c0,0 0,34 0,45 37,-35 90,-63 154,-65z"/>
    <path class="fil1" d="M2926 2109c0,-38 0,-63 13,-84 15,-26 43,-39 68,-39l0 0c25,0 53,13 68,39 12,22 13,47 13,84l-162 0zm161 129l0 0c0,0 0,2 0,26 0,78 -51,96 -80,96 -29,0 -81,-17 -81,-96 0,-23 0,-88 0,-88 0,0 365,0 365,0 0,-133 -128,-243 -286,-243 -157,0 -285,108 -285,240 0,133 128,240 285,240 131,0 241,-75 275,-176l-193 0z"/>
    <path class="fil1" d="M5166 1897l-22 0 0 -147 56 0c35,0 52,13 52,42 0,26 -16,38 -38,40l42 65 -25 0 -39 -64 -25 0 0 64zm27 -82l0 0c19,0 36,-1 36,-24 0,-18 -16,-22 -32,-22l-30 0 0 45 27 0z"/>
    <path class="fil1" d="M5063 1823c0,-73 59,-127 129,-127 69,0 128,54 128,127 0,74 -59,127 -128,127 -70,0 -129,-54 -129,-127zm129 106l0 0c58,0 103,-45 103,-106 0,-60 -45,-106 -103,-106 -58,0 -103,45 -103,106 0,61 45,106 103,106z"/>
   </g>
  </g>
 </g>
</svg>
