<?xml version="1.0" encoding="UTF-8" standalone="no"?>
<!-- Created with Inkscape (http://www.inkscape.org/) -->

<svg
   xmlns:dc="http://purl.org/dc/elements/1.1/"
   xmlns:cc="http://creativecommons.org/ns#"
   xmlns:rdf="http://www.w3.org/1999/02/22-rdf-syntax-ns#"
   xmlns:svg="http://www.w3.org/2000/svg"
   xmlns="http://www.w3.org/2000/svg"
   xmlns:sodipodi="http://sodipodi.sourceforge.net/DTD/sodipodi-0.dtd"
   xmlns:inkscape="http://www.inkscape.org/namespaces/inkscape"
   id="svg2985"
   version="1.1"
   inkscape:version="0.48.2 r9819"
   width="90"
   height="90"
   sodipodi:docname="Custom Poke Ball.svg">
  <metadata
     id="metadata2991">
    <rdf:RDF>
      <cc:Work
         rdf:about="">
        <dc:format>image/svg+xml</dc:format>
        <dc:type
           rdf:resource="http://purl.org/dc/dcmitype/StillImage" />
        <dc:title></dc:title>
      </cc:Work>
    </rdf:RDF>
  </metadata>
  <defs
     id="defs2989" />
  <sodipodi:namedview
     pagecolor="#ffffff"
     bordercolor="#666666"
     borderopacity="1"
     objecttolerance="10"
     gridtolerance="10"
     guidetolerance="10"
     inkscape:pageopacity="0"
     inkscape:pageshadow="2"
     inkscape:window-width="1366"
     inkscape:window-height="706"
     id="namedview2987"
     showgrid="false"
     inkscape:zoom="5.7444444"
     inkscape:cx="45"
     inkscape:cy="45"
     inkscape:window-x="-8"
     inkscape:window-y="-8"
     inkscape:window-maximized="1"
     inkscape:current-layer="svg2985" />
  <path
     style="opacity:1;fill:#231815;fill-opacity:1;fill-rule:nonzero;stroke:none"
     d="M 45,0 C 20.147186,0 0,20.147186 0,45 0,69.852814 20.147186,90 45,90 69.852814,90 90,69.852814 90,45 90,20.147186 69.852814,0 45,0 z"
     id="path3129" />
  <path
     style="fill:#ffffff;fill-opacity:1;fill-rule:nonzero;stroke:none"
     d="M 31.53125 53.375 C 26.314701 53.375 22.09375 57.595951 22.09375 62.8125 C 22.09375 68.029049 26.314701 72.25 31.53125 72.25 C 36.747799 72.25 41 68.029049 41 62.8125 C 41 57.595951 36.747799 53.375 31.53125 53.375 z M 31.53125 56.53125 C 34.997607 56.53125 37.8125 59.346143 37.8125 62.8125 C 37.8125 66.278857 34.997607 69.09375 31.53125 69.09375 C 28.064893 69.09375 25.28125 66.278857 25.28125 62.8125 C 25.28125 59.346143 28.064893 56.53125 31.53125 56.53125 z M 31.53125 58.5625 C 29.177811 58.5625 27.28125 60.459061 27.28125 62.8125 C 27.28125 65.165939 29.177811 67.0625 31.53125 67.0625 C 33.884689 67.0625 35.8125 65.165939 35.8125 62.8125 C 35.8125 60.459061 33.884689 58.5625 31.53125 58.5625 z "
     id="path3002" />
  <path
     style="fill:#3b82c4;fill-opacity:1;fill-rule:nonzero;stroke:none;opacity:1"
     d="M 45,3.28125 C 21.954493,3.28125 3.28125,21.954493 3.28125,45 c 0,1.920024 0.1240372,3.805194 0.375,5.65625 4.8388659,2.714709 10.007239,4.788348 15.25,6.34375 2.203885,-4.774788 7.020901,-8.09375 12.625,-8.09375 6.978813,0 12.748854,5.143748 13.75,11.84375 14.166068,-0.0085 28.558525,-2.925184 41.0625,-10.15625 0.245463,-1.831175 0.375,-3.695233 0.375,-5.59375 C 86.71875,21.954493 68.045507,3.28125 45,3.28125 z"
     id="path3043" />
  <path
     style="opacity:1;fill:#73b5e4;fill-opacity:1;fill-rule:nonzero;stroke:none"
     d="m 45,3.28125 c -22.028839,0 -40.0454728,17.054018 -41.59375,38.6875 4.349783,5.314512 10.54002,9.421846 17.78125,11.59375 2.547669,-2.852082 6.218555,-4.65625 10.34375,-4.65625 4.434105,0 8.389952,2.081199 10.9375,5.3125 C 58.004772,50.639659 69.4375,38.38008 69.4375,23.8125 69.4375,18.127809 67.703624,12.787374 64.65625,8.1875 58.79795,5.0518025 52.111039,3.28125 45,3.28125 z"
     id="path3057" />
  <path
     style="fill:#15608b;fill-opacity:1;fill-rule:nonzero;stroke:none"
     d="m 83.03125,62.15625 c -10.353102,4.305344 -21.490381,6.478741 -32.1875,7.21875 -2.334967,0.09504 -4.698034,0.101949 -7.0625,0.0625 -2.355854,4.336732 -6.967659,7.28125 -12.25,7.28125 -6.599635,0 -12.103546,-4.584461 -13.53125,-10.75 -3.7418,-1.016892 -7.414607,-2.271994 -11,-3.78125 6.548237,14.467136 21.083311,24.53125 38,24.53125 16.9314,0 31.491271,-10.075119 38.03125,-24.5625 z"
     id="path3120" />
  <path
     style="fill:#3b82c4;fill-opacity:1;fill-rule:nonzero;stroke:none;opacity:1"
     d="m 7,62.1875 c 2.2149254,4.893474 5.326785,9.270962 9.15625,12.9375 7.252091,5.876934 16.499354,9.40625 26.5625,9.40625 15.514343,0 29.049331,-8.36675 36.375,-20.84375 -9.205452,3.303877 -18.899452,5.040645 -28.25,5.6875 -2.334967,0.09504 -4.698034,0.101949 -7.0625,0.0625 -2.355854,4.336732 -6.967659,7.28125 -12.25,7.28125 -6.599635,0 -12.103546,-4.584461 -13.53125,-10.75 C 14.2582,64.951858 10.585393,63.696756 7,62.1875 z"
     id="path3108" />
  <path
     style="fill:#ccb82b;stroke:none;stroke-width:1px;stroke-linecap:butt;stroke-linejoin:miter;stroke-opacity:1;fill-opacity:1"
     d="M 11.15625 63.8125 C 10.337619 64.413613 9.5144621 65.021296 8.75 65.5625 C 11.740401 70.828676 15.825554 75.390141 20.71875 78.90625 C 22.261628 77.888174 23.896778 76.788556 25.6875 75.53125 L 33.78125 83.03125 L 42.125 77.625 C 46.409687 80.686769 50.763345 83.322774 55 85.5 C 62.137422 83.74592 68.55824 80.179594 73.71875 75.28125 C 67.096845 74.570955 60.314286 72.820887 53.96875 69.96875 L 55.53125 68.9375 C 53.962774 69.107594 52.397407 69.267521 50.84375 69.375 C 48.508783 69.47004 46.145716 69.476949 43.78125 69.4375 C 41.425396 73.774232 36.813591 76.71875 31.53125 76.71875 C 24.931615 76.71875 19.427704 72.134289 18 65.96875 C 15.690327 65.341061 13.409016 64.625461 11.15625 63.8125 z "
     id="path3441" />
  <path
     style="fill:#ccb82b;stroke:none;stroke-width:1px;stroke-linecap:butt;stroke-linejoin:miter;stroke-opacity:1;fill-opacity:1"
     d="M 26.3125 7.71875 C 17.702915 12.041273 10.801832 19.22896 6.875 28.0625 C 8.3838193 35.118042 11.056089 41.7441 14.53125 47.84375 L 8.03125 52.875 C 11.56117 54.527768 15.213356 55.904407 18.90625 57 C 21.110135 52.225212 25.927151 48.90625 31.53125 48.90625 C 38.510063 48.90625 44.280104 54.049998 45.28125 60.75 C 49.951273 60.747198 54.637789 60.40404 59.28125 59.71875 L 52.78125 53.15625 C 61.743464 44.509939 71.08133 34.074467 79.6875 21.8125 C 75.68825 15.844338 70.178859 10.967596 63.71875 7.71875 C 55.379091 20.136515 46.884359 30.536593 38.84375 39.09375 L 33.25 33.4375 L 25.65625 39.28125 C 23.032507 30.403505 22.912482 19.873013 26.3125 7.71875 z "
     id="path3448" />
  <path
     style="fill:#efea2e;stroke:none;stroke-width:1px;stroke-linecap:butt;stroke-linejoin:miter;stroke-opacity:1;fill-opacity:1"
     d="M 26.3125 7.71875 C 17.709333 12.039768 10.798281 19.232792 6.875 28.0625 C 8.3838193 35.118042 11.056089 41.7441 14.53125 47.84375 L 12.28125 49.59375 C 15.004646 51.248749 17.984528 52.601814 21.1875 53.5625 C 23.735169 50.710418 27.406055 48.90625 31.53125 48.90625 C 35.965355 48.90625 39.921202 50.987449 42.46875 54.21875 C 58.004772 50.639659 69.4375 38.38008 69.4375 23.8125 C 69.4375 18.127809 67.703624 12.787374 64.65625 8.1875 C 64.35113 8.0241824 64.028308 7.8746039 63.71875 7.71875 C 55.379091 20.136515 46.884359 30.536593 38.84375 39.09375 L 33.25 33.4375 L 25.65625 39.28125 C 23.032507 30.403505 22.912482 19.873013 26.3125 7.71875 z "
     id="path3450" />
  <path
     sodipodi:type="arc"
     style="opacity:1;fill:#ffffff;fill-opacity:1;fill-rule:nonzero;stroke:none"
     id="path3066"
     sodipodi:cx="25.088533"
     sodipodi:cy="25.097055"
     sodipodi:rx="9.0900478"
     sodipodi:ry="9.0900478"
     d="m 34.178581,25.097055 a 9.0900478,9.0900478 0 1 1 -18.180095,0 9.0900478,9.0900478 0 1 1 18.180095,0 z"
     transform="matrix(1.07,0,0,1.09,-0.93809303,-1.9860337)" />
</svg>
