<?xml version="1.0" encoding="UTF-8" standalone="no"?>
<!-- Created with Inkscape (http://www.inkscape.org/) -->

<svg
   xmlns:dc="http://purl.org/dc/elements/1.1/"
   xmlns:cc="http://creativecommons.org/ns#"
   xmlns:rdf="http://www.w3.org/1999/02/22-rdf-syntax-ns#"
   xmlns:svg="http://www.w3.org/2000/svg"
   xmlns="http://www.w3.org/2000/svg"
   xmlns:sodipodi="http://sodipodi.sourceforge.net/DTD/sodipodi-0.dtd"
   xmlns:inkscape="http://www.inkscape.org/namespaces/inkscape"
   id="svg2985"
   version="1.1"
   inkscape:version="0.48.2 r9819"
   width="90"
   height="90"
   sodipodi:docname="Custom Poke Ball.svg">
  <metadata
     id="metadata2991">
    <rdf:RDF>
      <cc:Work
         rdf:about="">
        <dc:format>image/svg+xml</dc:format>
        <dc:type
           rdf:resource="http://purl.org/dc/dcmitype/StillImage" />
        <dc:title></dc:title>
      </cc:Work>
    </rdf:RDF>
  </metadata>
  <defs
     id="defs2989" />
  <sodipodi:namedview
     pagecolor="#ffffff"
     bordercolor="#666666"
     borderopacity="1"
     objecttolerance="10"
     gridtolerance="10"
     guidetolerance="10"
     inkscape:pageopacity="0"
     inkscape:pageshadow="2"
     inkscape:window-width="1366"
     inkscape:window-height="706"
     id="namedview2987"
     showgrid="false"
     inkscape:zoom="5.7444444"
     inkscape:cx="45"
     inkscape:cy="45"
     inkscape:window-x="-8"
     inkscape:window-y="-8"
     inkscape:window-maximized="1"
     inkscape:current-layer="svg2985" />
  <path
     style="opacity:1;fill:#231815;fill-opacity:1;fill-rule:nonzero;stroke:none"
     d="M 45,0 C 20.147186,0 0,20.147186 0,45 0,69.852814 20.147186,90 45,90 69.852814,90 90,69.852814 90,45 90,20.147186 69.852814,0 45,0 z"
     id="path3129" />
  <path
     style="fill:#ffffff;fill-opacity:1;fill-rule:nonzero;stroke:none"
     d="M 31.53125 53.375 C 26.314701 53.375 22.09375 57.595951 22.09375 62.8125 C 22.09375 68.029049 26.314701 72.25 31.53125 72.25 C 36.747799 72.25 41 68.029049 41 62.8125 C 41 57.595951 36.747799 53.375 31.53125 53.375 z M 31.53125 56.53125 C 34.997607 56.53125 37.8125 59.346143 37.8125 62.8125 C 37.8125 66.278857 34.997607 69.09375 31.53125 69.09375 C 28.064893 69.09375 25.28125 66.278857 25.28125 62.8125 C 25.28125 59.346143 28.064893 56.53125 31.53125 56.53125 z M 31.53125 58.5625 C 29.177811 58.5625 27.28125 60.459061 27.28125 62.8125 C 27.28125 65.165939 29.177811 67.0625 31.53125 67.0625 C 33.884689 67.0625 35.8125 65.165939 35.8125 62.8125 C 35.8125 60.459061 33.884689 58.5625 31.53125 58.5625 z "
     id="path3002" />
  <path
     style="fill:#0e5a2f;fill-opacity:1;fill-rule:nonzero;stroke:none;opacity:1"
     d="M 45,3.28125 C 21.954493,3.28125 3.28125,21.954493 3.28125,45 c 0,1.920024 0.1240372,3.805194 0.375,5.65625 4.8388659,2.714709 10.007239,4.788348 15.25,6.34375 2.203885,-4.774788 7.020901,-8.09375 12.625,-8.09375 6.978813,0 12.748854,5.143748 13.75,11.84375 14.166068,-0.0085 28.558525,-2.925184 41.0625,-10.15625 0.245463,-1.831175 0.375,-3.695233 0.375,-5.59375 C 86.71875,21.954493 68.045507,3.28125 45,3.28125 z"
     id="path3043" />
  <path
     style="fill:#a5a3c3;fill-opacity:1;fill-rule:nonzero;stroke:none"
     d="m 83.03125,62.15625 c -10.353102,4.305344 -21.490381,6.478741 -32.1875,7.21875 -2.334967,0.09504 -4.698034,0.101949 -7.0625,0.0625 -2.355854,4.336732 -6.967659,7.28125 -12.25,7.28125 -6.599635,0 -12.103546,-4.584461 -13.53125,-10.75 -3.7418,-1.016892 -7.414607,-2.271994 -11,-3.78125 6.548237,14.467136 21.083311,24.53125 38,24.53125 16.9314,0 31.491271,-10.075119 38.03125,-24.5625 z"
     id="path3120" />
  <path
     style="fill:#d1c3e0;fill-opacity:1;fill-rule:nonzero;stroke:none;opacity:1"
     d="m 7,62.1875 c 2.2149254,4.893474 5.326785,9.270962 9.15625,12.9375 7.252091,5.876934 16.499354,9.40625 26.5625,9.40625 15.514343,0 29.049331,-8.36675 36.375,-20.84375 -9.205452,3.303877 -18.899452,5.040645 -28.25,5.6875 -2.334967,0.09504 -4.698034,0.101949 -7.0625,0.0625 -2.355854,4.336732 -6.967659,7.28125 -12.25,7.28125 -6.599635,0 -12.103546,-4.584461 -13.53125,-10.75 C 14.2582,64.951858 10.585393,63.696756 7,62.1875 z"
     id="path3108" />
  <path
     style="fill:#ffffff;fill-opacity:1;fill-rule:nonzero;stroke:none"
     d="M 14.59375 65.5 C 14.179383 65.521732 13.839625 65.632418 13.5625 65.84375 C 12.084498 66.970853 13.38824 70.505789 16.46875 73.71875 C 19.54926 76.931711 23.240748 78.595853 24.71875 77.46875 C 25.301257 77.024539 25.438015 76.209482 25.21875 75.1875 C 21.836051 73.455053 19.259917 70.403856 18.1875 66.6875 C 16.83576 65.885048 15.545926 65.450061 14.59375 65.5 z "
     id="path3072" />
  <path
     style="fill:#5d7840;fill-opacity:1;stroke:none"
     d="m 45,3.28125 c -6.516765,0 -12.69335,1.4932682 -18.1875,4.15625 1.698501,1.8699411 7.157192,3.294675 12.34375,4.5625 7.833655,1.914894 27.684176,10.121131 35.34375,14.125 7.881637,4.119947 10.9864,9.897787 9.59375,13.03125 -1.39265,3.133462 -9.25,0 -9.25,0 0,0 3.49595,2.804581 6.28125,9.59375 0.627856,1.530399 1.123619,2.757162 1.5,3.8125 1.250861,-0.623363 2.50172,-1.26494 3.71875,-1.96875 0.245463,-1.831175 0.375,-3.695233 0.375,-5.59375 0,-9.291047 -3.023133,-17.879909 -8.15625,-24.8125 C 71.596491,14.311295 64.75,10.78125 64.75,10.78125 c 0,0 -10.263782,-0.509188 -12.875,-2.25 -1.822733,-1.215155 -4.771834,-3.6007969 -6.78125,-5.25 -0.03127,-6.88e-5 -0.06246,0 -0.09375,0 z"
     id="path6150" />
  <path
     style="opacity:1;fill:#307d54;fill-opacity:1;fill-rule:nonzero;stroke:none"
     d="m 45,3.28125 c -22.028839,0 -40.0454728,17.054018 -41.59375,38.6875 4.349783,5.314512 10.54002,9.421846 17.78125,11.59375 2.547669,-2.852082 6.218555,-4.65625 10.34375,-4.65625 4.434105,0 8.389952,2.081199 10.9375,5.3125 C 58.004772,50.639659 69.4375,38.38008 69.4375,23.8125 69.4375,18.127809 67.703624,12.787374 64.65625,8.1875 58.79795,5.0518025 52.111039,3.28125 45,3.28125 z"
     id="path3057" />
  <path
     style="fill:#5d7840;fill-opacity:1;stroke:none"
     d="m 5.40625,32.90625 c 0,0 -2.9842237,14.264144 13.03125,19.3125 1.266784,0.399312 2.30962,0.66951 3.1875,0.84375 0.913353,-0.931053 1.950218,-1.729423 3.09375,-2.375 C 22.922647,47.636013 17.40625,43 17.40625,43 z"
     id="path6148" />
  <path
     style="fill:#5d7840;fill-opacity:1;stroke:none"
     d="m 35.65625,38.6875 c -0.452118,0.0098 -1.083293,0.199287 -2.0625,0.65625 -4.465855,2.084066 1.0625,4.357893 1.0625,9.40625 0,0.184457 0.02643,0.351253 0.03125,0.53125 5.503455,1.277682 9.74828,5.810586 10.59375,11.46875 7.135698,-0.0043 14.332218,-0.746448 21.3125,-2.40625 0.337442,-1.595408 0.733317,-3.866537 1.125,-7 1.044487,-8.355899 -5.412839,-8.352756 -19.6875,-8.875 -11.598163,-0.424323 -10.415821,-3.823793 -12.375,-3.78125 z"
     id="path6125" />
  <path
     style="fill:#726127;stroke:none;stroke-width:1px;stroke-linecap:butt;stroke-linejoin:miter;stroke-opacity:1;fill-opacity:1"
     d="m 62.3125,7.125 c -7.311412,0.6963249 -7.480899,4.888781 0.875,7.5 4.37306,1.366581 11.326075,4.919847 17,8 -4.284254,-6.720236 -10.424869,-12.133192 -17.71875,-15.5 -0.05056,0.00359 -0.106674,-0.00472 -0.15625,0 z"
     id="path6156" />
  <path
     style="fill:#726127;stroke:none;stroke-width:1px;stroke-linecap:butt;stroke-linejoin:miter;stroke-opacity:1;fill-opacity:1"
     d="m 84.90625,32.78125 c -3.742941,1.355258 -7.333601,2.520118 -9.1875,2.71875 -4.874274,0.522243 -15.835469,1.571869 -20.1875,4.53125 -4.352031,2.959381 -5.39815,6.969112 -10.96875,9.40625 -1.797012,0.786193 -3.870748,1.20004 -5.875,1.4375 3.482245,2.095825 5.968034,5.687499 6.59375,9.875 4.396162,-0.0026 8.810939,-0.301441 13.1875,-0.90625 2.988491,-1.331327 5.558127,-2.832835 7,-4.5 5.5706,-6.441006 5.906976,-7.299444 10.78125,-9.5625 3.314091,-1.538685 7.026818,0.369905 10.375,1.59375 0.04518,-0.789588 0.09375,-1.57324 0.09375,-2.375 0,-4.251582 -0.6312,-8.354586 -1.8125,-12.21875 z"
     id="path5603" />
  <path
     style="fill:#779752;stroke:none;stroke-width:1px;stroke-linecap:butt;stroke-linejoin:miter;stroke-opacity:1;fill-opacity:1"
     d="m 45,3.28125 c -6.517459,0 -12.663779,1.5249722 -18.15625,4.1875 1.732598,1.8536017 7.156423,3.270876 12.3125,4.53125 6.370783,1.557303 21.257637,6.102419 30.25,10.84375 -0.134262,-3.863496 -1.05443,-7.544865 -2.65625,-10.9375 -1.153283,-0.665812 -2,-1.125 -2,-1.125 0,0 -10.263782,-0.509188 -12.875,-2.25 -1.822733,-1.215155 -4.771834,-3.6007969 -6.78125,-5.25 -0.03132,-6.87e-5 -0.06242,0 -0.09375,0 z"
     id="path6144" />
  <path
     style="fill:#779752;stroke:none;stroke-width:1px;stroke-linecap:butt;stroke-linejoin:miter;stroke-opacity:1;fill-opacity:1"
     d="m 5.40625,32.90625 c 0,0 -2.9842237,14.264144 13.03125,19.3125 1.295027,0.408215 2.360834,0.670368 3.25,0.84375 0.905615,-0.918078 1.936099,-1.704063 3.0625,-2.34375 C 22.977323,47.667905 17.40625,43 17.40625,43 l -12,-10.09375 z"
     id="path6142" />
  <path
     style="fill:#779752;stroke:none;stroke-width:1px;stroke-linecap:butt;stroke-linejoin:miter;stroke-opacity:1;fill-opacity:1"
     d="m 35.65625,38.6875 c -0.452118,0.0098 -1.083293,0.199287 -2.0625,0.65625 -4.465855,2.084066 1.0625,4.357893 1.0625,9.40625 0,0.184457 0.02643,0.351253 0.03125,0.53125 3.127387,0.728194 5.858478,2.498663 7.78125,4.9375 C 50.087881,52.463503 56.719131,48.616584 61.5,43.4375 58.264751,42.813726 53.792737,42.679536 48.03125,42.46875 36.433087,42.044427 37.615429,38.644957 35.65625,38.6875 z"
     id="path6132" />
  <path
     style="fill:#aaa54c;stroke:none;stroke-width:1px;stroke-linecap:butt;stroke-linejoin:miter;stroke-opacity:1;fill-opacity:1"
     d="M 45 3.28125 C 37.759236 3.28125 30.962709 5.1329589 25.03125 8.375 C 28.045221 14.454142 29.205946 18.584116 26.28125 22.09375 C 24.720992 23.96606 19.178397 20.403376 13.0625 18.21875 C 7.5899455 24.743657 4.0520746 32.944891 3.40625 41.96875 C 5.466454 44.485882 7.9479419 46.726854 10.75 48.625 C 9.0399441 46.228455 7.0674503 43.115405 6.96875 41.4375 C 6.7946688 38.478119 7.2994439 33.436956 9.5625 29.78125 C 11.825556 26.125544 22.973525 35.857169 25.0625 36.03125 C 27.151475 36.205331 28.380319 37.776113 34.125 33.25 C 39.86968 28.723888 40.384006 27.320781 40.90625 22.96875 C 41.428494 18.616719 38.830331 18.276294 38.65625 14.96875 C 38.482169 11.661207 43.504775 8.8746373 45.59375 6.4375 C 46.546798 5.3256111 46.955296 4.2243707 47.125 3.34375 C 46.422927 3.3087588 45.710956 3.28125 45 3.28125 z M 62.78125 7.25 C 54.591726 7.6896262 47.658634 8.7762189 47.875 11.15625 C 48.262668 15.420599 62.247429 21.095817 69.4375 23.75 C 69.424828 18.08869 67.692442 12.770496 64.65625 8.1875 C 64.04601 7.8608648 63.409014 7.5465514 62.78125 7.25 z M 66.25 36.71875 C 62.083123 37.420457 57.859175 38.448261 55.53125 40.03125 C 51.179219 42.990631 50.1331 47.000362 44.5625 49.4375 C 42.756215 50.227749 40.669965 50.638428 38.65625 50.875 C 40.124829 51.75189 41.415724 52.883096 42.46875 54.21875 C 53.098169 51.770011 61.809451 45.253293 66.25 36.71875 z "
     id="path5599" />
  <path
     sodipodi:type="arc"
     style="opacity:1;fill:#ffffff;fill-opacity:1;fill-rule:nonzero;stroke:none"
     id="path3066"
     sodipodi:cx="25.088533"
     sodipodi:cy="25.097055"
     sodipodi:rx="9.0900478"
     sodipodi:ry="9.0900478"
     d="m 34.178581,25.097055 a 9.0900478,9.0900478 0 1 1 -18.180095,0 9.0900478,9.0900478 0 1 1 18.180095,0 z"
     transform="matrix(1.07,0,0,1.09,-0.93809303,-1.9860337)" />
</svg>
