<?xml version="1.0" encoding="UTF-8" standalone="no"?>
<!-- Created with Inkscape (http://www.inkscape.org/) -->

<svg
   xmlns:dc="http://purl.org/dc/elements/1.1/"
   xmlns:cc="http://creativecommons.org/ns#"
   xmlns:rdf="http://www.w3.org/1999/02/22-rdf-syntax-ns#"
   xmlns:svg="http://www.w3.org/2000/svg"
   xmlns="http://www.w3.org/2000/svg"
   xmlns:sodipodi="http://sodipodi.sourceforge.net/DTD/sodipodi-0.dtd"
   xmlns:inkscape="http://www.inkscape.org/namespaces/inkscape"
   id="svg2985"
   version="1.1"
   inkscape:version="0.48.2 r9819"
   width="90"
   height="90"
   sodipodi:docname="Sport Ball.svg">
  <metadata
     id="metadata2991">
    <rdf:RDF>
      <cc:Work
         rdf:about="">
        <dc:format>image/svg+xml</dc:format>
        <dc:type
           rdf:resource="http://purl.org/dc/dcmitype/StillImage" />
        <dc:title />
      </cc:Work>
    </rdf:RDF>
  </metadata>
  <defs
     id="defs2989" />
  <sodipodi:namedview
     pagecolor="#ffffff"
     bordercolor="#666666"
     borderopacity="1"
     objecttolerance="10"
     gridtolerance="10"
     guidetolerance="10"
     inkscape:pageopacity="0"
     inkscape:pageshadow="2"
     inkscape:window-width="1366"
     inkscape:window-height="706"
     id="namedview2987"
     showgrid="false"
     inkscape:zoom="5.7444444"
     inkscape:cx="45"
     inkscape:cy="45"
     inkscape:window-x="-8"
     inkscape:window-y="-8"
     inkscape:window-maximized="1"
     inkscape:current-layer="svg2985" />
  <path
     inkscape:connector-curvature="0"
     style="fill:#231815;fill-opacity:1;fill-rule:nonzero;stroke:none"
     d="M 45,0 C 20.147186,0 0,20.147186 0,45 0,69.852814 20.147186,90 45,90 69.852814,90 90,69.852814 90,45 90,20.147186 69.852814,0 45,0 z"
     id="path3129-4" />
  <path
     inkscape:connector-curvature="0"
     style="fill:#b02d2e;fill-opacity:1;fill-rule:nonzero;stroke:none"
     d="M 45,3.28125 C 21.954493,3.28125 3.28125,21.954493 3.28125,45 c 0,1.920024 0.1240372,3.805194 0.375,5.65625 4.8388659,2.714709 10.007239,4.788348 15.25,6.34375 2.203885,-4.774788 7.020901,-8.09375 12.625,-8.09375 6.978813,0 12.748854,5.143748 13.75,11.84375 14.166068,-0.0085 28.558525,-2.925184 41.0625,-10.15625 0.245463,-1.831175 0.375,-3.695233 0.375,-5.59375 C 86.71875,21.954493 68.045507,3.28125 45,3.28125 z"
     id="path3043-46" />
  <path
     inkscape:connector-curvature="0"
     style="fill:#e94646;fill-opacity:1;fill-rule:nonzero;stroke:none"
     d="m 45,3.28125 c -22.028839,0 -40.0454728,17.054018 -41.59375,38.6875 4.349783,5.314512 10.54002,9.421846 17.78125,11.59375 2.547669,-2.852082 6.218555,-4.65625 10.34375,-4.65625 4.434105,0 8.389952,2.081199 10.9375,5.3125 C 58.004772,50.639659 69.4375,38.38008 69.4375,23.8125 69.4375,18.127809 67.703624,12.787374 64.65625,8.1875 58.79795,5.0518025 52.111039,3.28125 45,3.28125 z"
     id="path3057-06" />
  <path
     sodipodi:type="arc"
     style="fill:#f4a7a4;fill-opacity:1;fill-rule:nonzero;stroke:none"
     id="path3066-6"
     sodipodi:cx="25.088533"
     sodipodi:cy="25.097055"
     sodipodi:rx="9.0900478"
     sodipodi:ry="9.0900478"
     d="m 34.178581,25.097055 a 9.0900478,9.0900478 0 1 1 -18.180095,0 9.0900478,9.0900478 0 1 1 18.180095,0 z"
     transform="matrix(1.07,0,0,1.09,-0.93809303,-1.9860337)" />
  <path
     inkscape:connector-curvature="0"
     style="fill:#ffffff;fill-opacity:1;fill-rule:nonzero;stroke:none"
     d="m 31.53125,53.375 c -5.216549,0 -9.4375,4.220951 -9.4375,9.4375 0,5.216549 4.220951,9.4375 9.4375,9.4375 C 36.747799,72.25 41,68.029049 41,62.8125 41,57.595951 36.747799,53.375 31.53125,53.375 z m 0,3.15625 c 3.466357,0 6.28125,2.814893 6.28125,6.28125 0,3.466357 -2.814893,6.28125 -6.28125,6.28125 -3.466357,0 -6.25,-2.814893 -6.25,-6.28125 0,-3.466357 2.783643,-6.28125 6.25,-6.28125 z m 0,2.03125 c -2.353439,0 -4.25,1.896561 -4.25,4.25 0,2.353439 1.896561,4.25 4.25,4.25 2.353439,0 4.28125,-1.896561 4.28125,-4.25 0,-2.353439 -1.927811,-4.25 -4.28125,-4.25 z"
     id="path3002-1" />
  <path
     inkscape:connector-curvature="0"
     style="fill:#a5a3c3;fill-opacity:1;fill-rule:nonzero;stroke:none"
     d="m 83.03125,62.15625 c -10.353102,4.305344 -21.490381,6.478741 -32.1875,7.21875 -2.334967,0.09504 -4.698034,0.101949 -7.0625,0.0625 -2.355854,4.336732 -6.967659,7.28125 -12.25,7.28125 -6.599635,0 -12.103546,-4.584461 -13.53125,-10.75 -3.7418,-1.016892 -7.414607,-2.271994 -11,-3.78125 6.548237,14.467136 21.083311,24.53125 38,24.53125 16.9314,0 31.491271,-10.075119 38.03125,-24.5625 z"
     id="path3120-8" />
  <path
     inkscape:connector-curvature="0"
     style="fill:#d1c3e0;fill-opacity:1;fill-rule:nonzero;stroke:none"
     d="m 7,62.1875 c 2.2149254,4.893474 5.326785,9.270962 9.15625,12.9375 7.252091,5.876934 16.499354,9.40625 26.5625,9.40625 15.514343,0 29.049331,-8.36675 36.375,-20.84375 -9.205452,3.303877 -18.899452,5.040645 -28.25,5.6875 -2.334967,0.09504 -4.698034,0.101949 -7.0625,0.0625 -2.355854,4.336732 -6.967659,7.28125 -12.25,7.28125 -6.599635,0 -12.103546,-4.584461 -13.53125,-10.75 C 14.2582,64.951858 10.585393,63.696756 7,62.1875 z"
     id="path3108-4" />
  <path
     inkscape:connector-curvature="0"
     style="fill:#ffffff;fill-opacity:1;fill-rule:nonzero;stroke:none"
     d="m 14.59375,65.5 c -0.414367,0.02173 -0.754125,0.132418 -1.03125,0.34375 -1.478002,1.127103 -0.17426,4.662039 2.90625,7.875 3.08051,3.212961 6.771998,4.877103 8.25,3.75 0.582507,-0.444211 0.719265,-1.259268 0.5,-2.28125 -3.382699,-1.732447 -5.958833,-4.783644 -7.03125,-8.5 C 16.83576,65.885048 15.545926,65.450061 14.59375,65.5 z"
     id="path3072-96" />
  <path
     inkscape:connector-curvature="0"
     style="fill:#ffffff;fill-opacity:1;fill-rule:nonzero;stroke:none"
     d="m 35.155926,6.09375 c -7.199693,0 -13.900852,5.071553 -16.281386,11.84375 l 6.53125,0 c 1.709459,-3.251766 5.17103,-5.5625 8.871684,-5.5625 3.701943,0 6.539762,2.308939 7.347066,5.5625 l 6.5,0 C 47.638234,11.165303 42.355619,6.09375 35.155926,6.09375 z m -17.164864,17.9375 c 0.414475,6.851147 5.722346,12 12.978012,12 7.255666,0 14.003705,-5.148853 16.334488,-12 l -6.46875,0 c -1.686983,3.346818 -5.228858,5.75 -8.991656,5.75 -3.760743,0 -6.607652,-2.406047 -7.352094,-5.75 l -6.5,0 z"
     id="path5529-0" />
  <path
     id="path5531-6"
     d="m 33.6402,17.05814 c -2.2113,0 -4.2532,1.78872 -4.5625,4 -0.3093,2.21128 1.2262,4 3.4375,4 2.2113,0 4.2532,-1.78872 4.5625,-4 0.3093,-2.21128 -1.2262,-4 -3.4375,-4 z"
     style="fill:#ffffff;fill-opacity:1;fill-rule:nonzero;stroke:none"
     inkscape:connector-curvature="0" />
</svg>
