<?xml version="1.0" encoding="UTF-8" standalone="no"?>
<!-- Created with Inkscape (http://www.inkscape.org/) -->

<svg
   xmlns:dc="http://purl.org/dc/elements/1.1/"
   xmlns:cc="http://creativecommons.org/ns#"
   xmlns:rdf="http://www.w3.org/1999/02/22-rdf-syntax-ns#"
   xmlns:svg="http://www.w3.org/2000/svg"
   xmlns="http://www.w3.org/2000/svg"
   xmlns:sodipodi="http://sodipodi.sourceforge.net/DTD/sodipodi-0.dtd"
   xmlns:inkscape="http://www.inkscape.org/namespaces/inkscape"
   id="svg2985"
   version="1.1"
   inkscape:version="0.48.2 r9819"
   width="90"
   height="94"
   sodipodi:docname="Custom Poke Ball.svg">
  <metadata
     id="metadata2991">
    <rdf:RDF>
      <cc:Work
         rdf:about="">
        <dc:format>image/svg+xml</dc:format>
        <dc:type
           rdf:resource="http://purl.org/dc/dcmitype/StillImage" />
        <dc:title></dc:title>
      </cc:Work>
    </rdf:RDF>
  </metadata>
  <defs
     id="defs2989" />
  <sodipodi:namedview
     pagecolor="#ffffff"
     bordercolor="#666666"
     borderopacity="1"
     objecttolerance="10"
     gridtolerance="10"
     guidetolerance="10"
     inkscape:pageopacity="0"
     inkscape:pageshadow="2"
     inkscape:window-width="1366"
     inkscape:window-height="706"
     id="namedview2987"
     showgrid="false"
     inkscape:zoom="5.5"
     inkscape:cx="45"
     inkscape:cy="47"
     inkscape:window-x="-8"
     inkscape:window-y="-8"
     inkscape:window-maximized="1"
     inkscape:current-layer="svg2985" />
  <path
     style="fill:#231815;fill-opacity:1;fill-rule:nonzero;stroke:none;opacity:1"
     d="M 45,4 C 20.147186,4 0,24.147186 0,49 0,73.852814 20.147186,94 45,94 69.852814,94 90,73.852814 90,49 90,24.147186 69.852814,4 45,4 z"
     id="path3129"
     inkscape:connector-curvature="0" />
  <path
     style="fill:#ffffff;fill-opacity:1;fill-rule:nonzero;stroke:none;opacity:1"
     d="m 31.53125,57.375 c -5.216549,0 -9.4375,4.220951 -9.4375,9.4375 0,5.216549 4.220951,9.4375 9.4375,9.4375 C 36.747799,76.25 41,72.029049 41,66.8125 41,61.595951 36.747799,57.375 31.53125,57.375 z m 0,3.15625 c 3.466357,0 6.28125,2.814893 6.28125,6.28125 0,3.466357 -2.814893,6.28125 -6.28125,6.28125 -3.466357,0 -6.25,-2.814893 -6.25,-6.28125 0,-3.466357 2.783643,-6.28125 6.25,-6.28125 z m 0,2.03125 c -2.353439,0 -4.25,1.896561 -4.25,4.25 0,2.353439 1.896561,4.25 4.25,4.25 2.353439,0 4.28125,-1.896561 4.28125,-4.25 0,-2.353439 -1.927811,-4.25 -4.28125,-4.25 z"
     id="path3002"
     inkscape:connector-curvature="0" />
  <path
     style="fill:#d2cde6;fill-opacity:1;fill-rule:nonzero;stroke:none;opacity:1"
     d="M 45,7.28125 C 21.954493,7.28125 3.28125,25.954493 3.28125,49 c 0,1.920024 0.1240372,3.805194 0.375,5.65625 4.8388659,2.714709 10.007239,4.788348 15.25,6.34375 2.203885,-4.774788 7.020901,-8.09375 12.625,-8.09375 6.978813,0 12.748854,5.143748 13.75,11.84375 14.166068,-0.0085 28.558525,-2.925184 41.0625,-10.15625 0.245463,-1.831175 0.375,-3.695233 0.375,-5.59375 C 86.71875,25.954493 68.045507,7.28125 45,7.28125 z"
     id="path3043"
     inkscape:connector-curvature="0" />
  <path
     style="fill:#ffffff;fill-opacity:1;fill-rule:nonzero;stroke:none;opacity:1"
     d="m 45,7.28125 c -22.028839,0 -40.0454728,17.054018 -41.59375,38.6875 4.349783,5.314512 10.54002,9.421846 17.78125,11.59375 2.547669,-2.852082 6.218555,-4.65625 10.34375,-4.65625 4.434105,0 8.389952,2.081199 10.9375,5.3125 C 58.004772,54.639659 69.4375,42.38008 69.4375,27.8125 c 0,-5.684691 -1.733876,-11.025126 -4.78125,-15.625 C 58.79795,9.0518025 52.111039,7.28125 45,7.28125 z"
     id="path3057"
     inkscape:connector-curvature="0" />
  <path
     style="fill:#a5a3c3;fill-opacity:1;fill-rule:nonzero;stroke:none;opacity:1"
     d="m 83.03125,66.15625 c -10.353102,4.305344 -21.490381,6.478741 -32.1875,7.21875 -2.334967,0.09504 -4.698034,0.101949 -7.0625,0.0625 -2.355854,4.336732 -6.967659,7.28125 -12.25,7.28125 -6.599635,0 -12.103546,-4.584461 -13.53125,-10.75 -3.7418,-1.016892 -7.414607,-2.271994 -11,-3.78125 6.548237,14.467136 21.083311,24.53125 38,24.53125 16.9314,0 31.491271,-10.075119 38.03125,-24.5625 z"
     id="path3120"
     inkscape:connector-curvature="0" />
  <path
     style="fill:#d1c3e0;fill-opacity:1;fill-rule:nonzero;stroke:none;opacity:1"
     d="m 7,66.1875 c 2.2149254,4.893474 5.326785,9.270962 9.15625,12.9375 7.252091,5.876934 16.499354,9.40625 26.5625,9.40625 15.514343,0 29.049331,-8.36675 36.375,-20.84375 -9.205452,3.303877 -18.899452,5.040645 -28.25,5.6875 -2.334967,0.09504 -4.698034,0.101949 -7.0625,0.0625 -2.355854,4.336732 -6.967659,7.28125 -12.25,7.28125 -6.599635,0 -12.103546,-4.584461 -13.53125,-10.75 C 14.2582,68.951858 10.585393,67.696756 7,66.1875 z"
     id="path3108"
     inkscape:connector-curvature="0" />
  <path
     style="fill:#ffffff;fill-opacity:1;fill-rule:nonzero;stroke:none;opacity:1"
     d="m 14.59375,69.5 c -0.414367,0.02173 -0.754125,0.132418 -1.03125,0.34375 -1.478002,1.127103 -0.17426,4.662039 2.90625,7.875 3.08051,3.212961 6.771998,4.877103 8.25,3.75 0.582507,-0.444211 0.719265,-1.259268 0.5,-2.28125 -3.382699,-1.732447 -5.958833,-4.783644 -7.03125,-8.5 C 16.83576,69.885048 15.545926,69.450061 14.59375,69.5 z"
     id="path3072"
     inkscape:connector-curvature="0" />
  <path
     style="fill:#d35337;fill-opacity:1;fill-rule:nonzero;stroke:none;opacity:1"
     d="M 50.03125 7.59375 C 55.456203 12.318135 66.72147 22.79943 69.28125 30.71875 C 72.036131 39.241662 72.855374 50.654637 73.1875 60.46875 C 77.731167 58.960437 82.145774 57.021445 86.34375 54.59375 C 86.589213 52.762575 86.71875 50.898517 86.71875 49 C 86.71875 27.656836 70.703911 10.076434 50.03125 7.59375 z "
     id="path4334" />
  <path
     inkscape:connector-curvature="0"
     style="fill:#d35337;fill-opacity:1;stroke:none"
     d="M 19.71875,15.8125 C 9.7283194,23.433564 3.28125,35.460765 3.28125,49 c 0,1.920024 0.1240372,3.805194 0.375,5.65625 1.8349338,1.029438 3.7092125,1.960734 5.625,2.8125 C 8.3907422,49.113479 9.526474,44.669756 9.625,41.8125 c 0.1468545,-4.258781 7.259934,-19.912027 10.09375,-26 z"
     id="path4352" />
  <path
     inkscape:connector-curvature="0"
     id="path4357"
     d="m 19.71875,15.8125 c -9.231138,7.046702 -15.4326104,17.861891 -16.3125,30.15625 1.6080979,1.964754 3.4599533,3.777026 5.53125,5.375 0.010344,-4.568195 0.6164779,-7.471607 0.6875,-9.53125 0.1468545,-4.258781 7.259934,-19.912027 10.09375,-26 z"
     style="fill:#f18e38;fill-opacity:1;fill-rule:nonzero;stroke:none" />
  <path
     inkscape:connector-curvature="0"
     style="fill:#fdd000;fill-opacity:1;stroke:none"
     d="M 19.71875,15.8125 C 15.132693,19.313322 11.309505,23.763413 8.5,28.84375 c 1.16668,1.977246 2.30598,3.807657 3.34375,5.25 2.368691,-6.296437 6.024725,-14.306248 7.875,-18.28125 z"
     id="path4359" />
  <path
     style="fill:#716c6a;stroke:none;stroke-width:1px;stroke-linecap:butt;stroke-linejoin:miter;stroke-opacity:1;fill-opacity:1"
     d="M 45 7.28125 C 31.444956 7.28125 19.400901 13.73962 11.78125 23.75 C 13.261716 30.157353 17.795017 37.295884 30.71875 37.34375 C 50.354218 37.416474 65.86569 32.066782 74.34375 19.34375 C 66.807522 11.886946 56.442774 7.28125 45 7.28125 z "
     id="path4323" />
  <path
     style="font-size:medium;font-style:normal;font-variant:normal;font-weight:normal;font-stretch:normal;text-indent:0;text-align:start;text-decoration:none;line-height:normal;letter-spacing:normal;word-spacing:normal;text-transform:none;direction:ltr;block-progression:tb;writing-mode:lr-tb;text-anchor:start;baseline-shift:baseline;color:#000000;fill:#943033;fill-opacity:1;stroke:none;stroke-width:4.36851645;marker:none;visibility:visible;display:inline;overflow:visible;enable-background:accumulate;font-family:Sans;-inkscape-font-specification:Sans"
     d="m 41.4375,0.00884792 c -3.635921,0.0609086 -7.057061,-0.0781815 -9.34375,1.52217088 -2.187744,1.5311052 -2.929187,3.3376868 -4.147425,5.5854949 -1.218238,2.247808 -1.824132,5.3694243 -2.526838,7.5677803 -0.476466,1.490582 -0.590221,3.699121 -0.763418,6.455307 -0.173197,2.756187 -0.429222,6.20737 -0.136122,9.400301 0.2931,3.192931 -0.09278,5.348278 1.073803,7.958126 1.166586,2.609847 3.187925,5.071336 6.1875,5.281001 2.274465,0.158981 3.025608,-0.878241 4.455513,-2.15607 1.429905,-1.277828 2.33871,-2.828114 3.419668,-4.66586 2.161917,-3.675491 4.242342,-9.745578 7.09375,-13.526645 C 52.838764,15.356771 55.369327,11.635712 56.55845,10.092573 57.474402,8.9039293 58.240184,9.2097859 58.605053,7.3345609 58.797705,6.3444392 58.314562,3.5048636 57.401838,2.9406438 55.312149,1.6488593 53.948941,1.2153603 51.28125,0.69227161 48.792486,0.20426727 45.073421,-0.05206065 41.4375,0.00884792 z"
     id="path4310"
     inkscape:connector-curvature="0" />
  <path
     style="font-size:medium;font-style:normal;font-variant:normal;font-weight:normal;font-stretch:normal;text-indent:0;text-align:start;text-decoration:none;line-height:normal;letter-spacing:normal;word-spacing:normal;text-transform:none;direction:ltr;block-progression:tb;writing-mode:lr-tb;text-anchor:start;baseline-shift:baseline;opacity:1;color:#000000;fill:#f18e38;fill-opacity:1;stroke:none;stroke-width:4.36851645000000040;marker:none;visibility:visible;display:inline;overflow:visible;enable-background:accumulate;font-family:Sans;-inkscape-font-specification:Sans"
     d="m 41.53125,3.1281415 c 3.371917,-0.056486 7.091602,0.4784626 8.993291,0.8513514 1.722761,0.3378041 3.775723,1.0682483 3.790256,2.3796759 0.01144,1.0326265 -2.532215,2.779863 -3.814072,4.7804862 -1.281857,2.000623 -6.293097,10.105368 -6.293097,10.105368 -2.833762,4.550416 -5.137488,10.135207 -7.113878,13.495284 -0.988195,1.680038 -2.153095,2.807875 -2.75,3.727765 -0.643581,0.991822 -0.859296,1.799111 -2.323622,1.709154 -1.024996,-0.06297 -1.585835,-1.75473 -2.426378,-3.635166 -0.840543,-1.880436 -1.42022,-4.637067 -1.6875,-7.548725 -0.26728,-2.911659 -0.254367,-5.986788 -0.09375,-8.542796 0.160617,-2.556009 0.519761,-4.720612 0.71875,-5.343131 0.648203,-2.027846 1.543295,-4.301313 2.5625,-6.1818779 1.019205,-1.8805653 2.210698,-3.2982499 3.0625,-3.7588303 0.584399,-0.3159925 4.003083,-1.9820723 7.375,-2.0385583 z"
     id="path3519" />
  <path
     style="fill:#000022;fill-opacity:1;stroke:none"
     d="m 41.4375,0.00874094 c -3.635921,0.0609086 -7.057061,-0.06910242 -9.34375,1.53124996 -2.187744,1.5311052 -2.938012,3.3459419 -4.15625,5.59375 -0.851389,1.5709228 -1.379707,3.5639221 -1.875,5.3750001 0.312441,0.489795 0.714217,0.853119 1.1875,1 0.558107,0.173206 1.279788,0.0038 2.0625,-0.375 0.524808,-1.38257 1.117035,-2.774437 1.78125,-4.0000001 1.019205,-1.8805653 2.210698,-3.3206696 3.0625,-3.78125 0.584399,-0.3159925 4.003083,-1.974764 7.375,-2.03125 3.371917,-0.056486 7.098311,0.4708612 9,0.84375 1.722761,0.3378041 3.766717,1.0635724 3.78125,2.375 0.0019,0.1707805 -0.06688,0.3859637 -0.1875,0.59375 0.673041,0.8185032 1.7346,2.0210476 2.75,2.625 0.77813,-0.7931366 1.395531,-0.7450837 1.71875,-2.40625 0.192652,-0.9901217 -0.274776,-3.8420302 -1.1875,-4.40625 -2.089689,-1.2917845 -3.457309,-1.7269113 -6.125,-2.24999996 -2.488764,-0.48800434 -6.207829,-0.74840857 -9.84375,-0.6875 z"
     id="path4295"
     inkscape:connector-curvature="0" />
  <path
     style="fill:#d35337;stroke:none;stroke-width:1px;stroke-linecap:butt;stroke-linejoin:miter;stroke-opacity:1;fill-opacity:1;opacity:1"
     d="M 52.40625 4.5 C 48.236695 8.604786 43.318143 14.467838 40.5625 21.3125 C 37.456643 29.027048 33.899427 35.628151 31.40625 39.90625 C 31.592483 40.058458 31.808937 40.173842 32.03125 40.1875 C 33.495576 40.277457 33.700169 39.460572 34.34375 38.46875 C 34.940655 37.54886 36.105555 36.430038 37.09375 34.75 C 39.07014 31.389923 41.384988 25.800416 44.21875 21.25 C 44.21875 21.25 49.218143 13.125623 50.5 11.125 C 51.781857 9.1243768 54.32394 7.3763765 54.3125 6.34375 C 54.303227 5.5069482 53.46006 4.9126358 52.40625 4.5 z "
     id="path4300" />
  <path
     style="fill:#fdd000;stroke:none;stroke-width:1px;stroke-linecap:butt;stroke-linejoin:miter;stroke-opacity:1;fill-opacity:1;opacity:1"
     d="M 38.625 3.53125 C 36.39994 4.0586439 34.568957 4.9330939 34.15625 5.15625 C 33.304448 5.6168304 32.112955 7.0569347 31.09375 8.9375 C 30.074545 10.818065 29.179453 13.065904 28.53125 15.09375 C 28.332261 15.716269 27.973117 17.881491 27.8125 20.4375 C 27.651883 22.993508 27.63897 26.088341 27.90625 29 C 28.009149 30.120945 28.182439 31.184909 28.375 32.21875 C 29.601419 27.770061 30.628644 21.307701 32.625 14.875 C 34.018487 10.384876 36.300692 6.5871667 38.625 3.53125 z "
     id="path4302" />
  <path
     style="fill:#ffffff;fill-opacity:1;fill-rule:nonzero;stroke:none"
     d="M 31.34375 27.375 C 29.889575 27.646327 28.606534 29.380766 28.3125 31.59375 C 27.976461 34.122874 29.087564 36.342563 30.78125 36.53125 C 32.474936 36.719937 34.101461 34.810374 34.4375 32.28125 C 34.773539 29.752126 33.662436 27.563687 31.96875 27.375 C 31.757039 27.351414 31.551489 27.336239 31.34375 27.375 z "
     id="path4320" />
  <path
     style="fill:#d35337;stroke:none;stroke-width:1px;stroke-linecap:butt;stroke-linejoin:miter;stroke-opacity:1;fill-opacity:1"
     d="M 83.03125 66.15625 C 79.888135 67.463316 76.659658 68.535131 73.40625 69.46875 C 73.48383 73.715393 73.566251 77.178738 73.8125 79.1875 C 77.667702 75.504725 80.807905 71.081411 83.03125 66.15625 z "
     id="path4328" />
  <path
     style="fill:#f18e38;stroke:none;stroke-width:1px;stroke-linecap:butt;stroke-linejoin:miter;stroke-opacity:1;fill-opacity:1"
     d="M 7 66.1875 C 8.6796154 69.898304 10.86703 73.311393 13.5 76.34375 C 12.522744 73.229859 11.740739 70.372921 11.125 67.78125 C 9.7409913 67.281072 8.3598643 66.759929 7 66.1875 z "
     id="path4345" />
</svg>
